SplineFontDB: 3.0
FontName: FiraMath-Book
FullName: Fira Math Book
FamilyName: Fira Math
Weight: Book
Copyright: 
Version: 
ItalicAngle: 0
UnderlinePosition: -100
UnderlineWidth: 50
Ascent: 800
Descent: 200
InvalidEm: 0
LayerCount: 2
Layer: 0 0 "Back" 1
Layer: 1 0 "Fore" 0
XUID: [1021 620 891379711 8713]
OS2Version: 0
OS2_WeightWidthSlopeOnly: 0
OS2_UseTypoMetrics: 1
CreationTime: 1542519059
OS2TypoAscent: 0
OS2TypoAOffset: 1
OS2TypoDescent: 0
OS2TypoDOffset: 1
OS2TypoLinegap: 0
OS2WinAscent: 0
OS2WinAOffset: 1
OS2WinDescent: 0
OS2WinDOffset: 1
HheadAscent: 0
HheadAOffset: 1
HheadDescent: 0
HheadDOffset: 1
OS2Vendor: 'PfEd'
DEI: 91125
Encoding: UnicodeFull
Compacted: 1
UnicodeInterp: none
NameList: AGL For New Fonts
AntiAlias: 1
BeginChars: 1114138 989

StartChar: uni0021
Encoding: 33 33 1
Width: 241
Flags: W
LayerCount: 2
Fore
SplineSet
165 688 m 1
 157 227 l 1
 82 227 l 1
 73 688 l 1
 165 688 l 1
120 117 m 0
 157 117 185 88 185 53 c 0
 185 17 157 -12 120 -12 c 0
 84 -12 56 17 56 53 c 0
 56 88 84 117 120 117 c 0
EndSplineSet
EndChar

StartChar: uni0022
Encoding: 34 34 2
Width: 390
Flags: W
LayerCount: 2
Fore
SplineSet
76 429 m 1
 63 688 l 1
 153 688 l 1
 139 429 l 1
 76 429 l 1
251 429 m 1
 237 688 l 1
 328 688 l 1
 314 429 l 1
 251 429 l 1
EndSplineSet
EndChar

StartChar: uni0023
Encoding: 35 35 3
Width: 515
Flags: W
LayerCount: 2
Fore
SplineSet
500 448 m 1
 423 448 l 1
 394 231 l 1
 463 231 l 1
 463 167 l 1
 386 167 l 1
 364 0 l 1
 292 0 l 1
 314 167 l 1
 153 167 l 1
 131 0 l 1
 59 0 l 1
 81 167 l 1
 15 167 l 1
 15 231 l 1
 89 231 l 1
 118 448 l 1
 52 448 l 1
 52 513 l 1
 127 513 l 1
 147 668 l 1
 219 668 l 1
 199 513 l 1
 360 513 l 1
 380 668 l 1
 452 668 l 1
 432 513 l 1
 500 513 l 1
 500 448 l 1
322 231 m 1
 351 448 l 1
 190 448 l 1
 161 231 l 1
 322 231 l 1
EndSplineSet
EndChar

StartChar: uni0024
Encoding: 36 36 4
Width: 530
Flags: W
LayerCount: 2
Fore
SplineSet
486 185 m 0
 486 84 420 9 305 -8 c 1
 305 -154 l 1
 232 -154 l 1
 232 -12 l 1
 147 -7 80 24 28 74 c 1
 78 128 l 1
 123 85 178 58 251 58 c 0
 333 58 399 100 399 182 c 0
 399 251 366 281 251 316 c 0
 120 356 55 405 55 506 c 0
 55 598 127 667 232 677 c 1
 232 823 l 1
 305 823 l 1
 305 677 l 1
 373 669 420 644 466 602 c 1
 417 549 l 1
 371 592 323 609 266 609 c 0
 195 609 142 575 142 510 c 0
 142 451 170 423 290 387 c 0
 400 353 486 310 486 185 c 0
EndSplineSet
EndChar

StartChar: uni0025
Encoding: 37 37 5
Width: 818
Flags: W
LayerCount: 2
Fore
SplineSet
612 709 m 1
 671 671 l 1
 208 -29 l 1
 149 9 l 1
 612 709 l 1
206 678 m 0
 299 678 366 614 366 511 c 0
 366 408 299 343 206 343 c 0
 114 343 47 408 47 511 c 0
 47 614 114 678 206 678 c 0
206 621 m 0
 140 621 121 567 121 511 c 0
 121 456 140 401 206 401 c 0
 272 401 290 455 290 511 c 0
 290 565 272 621 206 621 c 0
612 323 m 0
 705 323 771 259 771 156 c 0
 771 53 705 -12 612 -12 c 0
 520 -12 452 53 452 156 c 0
 452 259 519 323 612 323 c 0
612 265 m 0
 547 265 528 212 528 156 c 0
 528 101 547 46 612 46 c 0
 679 46 697 100 697 156 c 0
 697 210 679 265 612 265 c 0
EndSplineSet
EndChar

StartChar: uni0026
Encoding: 38 38 6
Width: 727
Flags: W
LayerCount: 2
Fore
SplineSet
302 700 m 0
 408 700 481 636 481 549 c 0
 481 464 417 412 337 365 c 1
 520 193 l 1
 544 243 566 300 581 367 c 1
 660 345 l 1
 635 262 605 197 572 144 c 1
 687 37 l 1
 626 -12 l 1
 525 85 l 1
 470 23 401 -12 304 -12 c 0
 175 -12 83 61 83 174 c 0
 83 262 138 319 224 373 c 1
 163 431 125 476 125 545 c 0
 125 632 189 700 302 700 c 0
303 637 m 0
 242 637 208 598 208 546 c 0
 208 495 236 461 289 411 c 1
 357 451 398 490 398 544 c 0
 398 603 360 637 303 637 c 0
272 327 m 1
 203 283 169 238 169 177 c 0
 169 101 229 55 313 55 c 0
 381 55 431 83 476 132 c 1
 272 327 l 1
EndSplineSet
EndChar

StartChar: uni0027
Encoding: 39 39 7
Width: 216
Flags: W
LayerCount: 2
Fore
SplineSet
76 429 m 1
 63 688 l 1
 153 688 l 1
 139 429 l 1
 76 429 l 1
EndSplineSet
EndChar

StartChar: uni0028
Encoding: 40 40 8
Width: 324
Flags: W
LayerCount: 2
Fore
SplineSet
228 843 m 1
 281 807 l 1
 191 674 131 566 131 350 c 0
 131 135 191 26 281 -107 c 1
 228 -143 l 1
 130 -5 43 114 43 350 c 0
 43 586 130 705 228 843 c 1
EndSplineSet
EndChar

StartChar: uni0029
Encoding: 41 41 9
Width: 324
Flags: W
LayerCount: 2
Fore
SplineSet
96 843 m 1
 194 705 281 586 281 350 c 0
 281 114 194 -5 96 -143 c 1
 43 -107 l 1
 133 26 193 135 193 350 c 0
 193 566 133 674 43 807 c 1
 96 843 l 1
EndSplineSet
EndChar

StartChar: uni002A
Encoding: 42 42 10
Width: 438
Flags: W
LayerCount: 2
Fore
SplineSet
415 566 m 1
 263 531 l 1
 365 414 l 1
 299 365 l 1
 219 499 l 1
 139 365 l 1
 73 413 l 1
 175 531 l 1
 23 566 l 1
 48 641 l 1
 191 580 l 1
 178 738 l 1
 260 738 l 1
 247 581 l 1
 389 642 l 1
 415 566 l 1
EndSplineSet
EndChar

StartChar: uni002B
Encoding: 43 43 11
Width: 498
Flags: W
LayerCount: 2
Fore
SplineSet
287 516 m 1
 287 366 l 1
 434 366 l 1
 434 296 l 1
 287 296 l 1
 287 146 l 1
 210 146 l 1
 210 296 l 1
 64 296 l 1
 64 366 l 1
 210 366 l 1
 210 516 l 1
 287 516 l 1
EndSplineSet
EndChar

StartChar: uni002C
Encoding: 44 44 12
Width: 232
Flags: W
LayerCount: 2
Fore
SplineSet
115 117 m 0
 153 117 180 88 180 53 c 0
 180 32 175 13 163 -14 c 2
 98 -163 l 1
 38 -163 l 1
 78 -1 l 1
 62 11 51 31 51 53 c 0
 51 88 79 117 115 117 c 0
EndSplineSet
EndChar

StartChar: uni002D
Encoding: 45 45 13
Width: 402
Flags: W
LayerCount: 2
Fore
SplineSet
62 277 m 1
 62 349 l 1
 341 349 l 1
 341 277 l 1
 62 277 l 1
EndSplineSet
EndChar

StartChar: uni002E
Encoding: 46 46 14
Width: 232
Flags: W
LayerCount: 2
Fore
SplineSet
115 117 m 0
 153 117 180 88 180 53 c 0
 180 17 153 -12 115 -12 c 0
 79 -12 51 17 51 53 c 0
 51 88 79 117 115 117 c 0
EndSplineSet
EndChar

StartChar: uni002F
Encoding: 47 47 15
Width: 520
Flags: W
LayerCount: 2
Fore
SplineSet
340 806 m 1
 412 789 l 1
 181 -103 l 1
 108 -85 l 1
 340 806 l 1
EndSplineSet
EndChar

StartChar: uni0030
Encoding: 48 48 16
Width: 556
Flags: W
LayerCount: 2
Fore
SplineSet
278 678 m 0
 425 678 498 556 498 333 c 0
 498 111 425 -12 278 -12 c 0
 131 -12 58 111 58 334 c 0
 58 557 131 678 278 678 c 0
278 611 m 0
 191 611 145 532 145 334 c 0
 145 135 191 55 278 55 c 0
 364 55 411 135 411 333 c 0
 411 532 364 611 278 611 c 0
EndSplineSet
EndChar

StartChar: uni0031
Encoding: 49 49 17
Width: 428
Flags: W
LayerCount: 2
Fore
SplineSet
316 668 m 1
 316 0 l 1
 232 0 l 1
 232 578 l 1
 74 481 l 1
 37 541 l 1
 242 668 l 1
 316 668 l 1
EndSplineSet
EndChar

StartChar: uni0032
Encoding: 50 50 18
Width: 491
Flags: W
LayerCount: 2
Fore
SplineSet
227 678 m 0
 348 678 424 600 424 497 c 0
 424 370 345 283 136 71 c 1
 440 71 l 1
 430 0 l 1
 40 0 l 1
 40 67 l 1
 278 317 336 382 336 493 c 0
 336 566 290 609 223 609 c 0
 165 609 126 585 82 535 c 1
 27 579 l 1
 81 645 144 678 227 678 c 0
EndSplineSet
EndChar

StartChar: uni0033
Encoding: 51 51 19
Width: 496
Flags: W
LayerCount: 2
Fore
SplineSet
224 678 m 0
 349 678 419 600 419 509 c 0
 419 423 363 372 288 355 c 1
 372 348 439 294 439 192 c 0
 439 75 352 -12 215 -12 c 0
 135 -12 67 17 16 77 c 1
 67 124 l 1
 112 77 157 57 212 57 c 0
 299 57 351 111 351 192 c 0
 351 287 298 317 215 317 c 2
 166 317 l 1
 176 382 l 1
 210 382 l 2
 277 382 334 423 334 504 c 0
 334 570 289 610 219 610 c 0
 166 610 125 592 79 550 c 1
 35 600 l 1
 91 652 152 678 224 678 c 0
EndSplineSet
EndChar

StartChar: uni0034
Encoding: 52 52 20
Width: 529
Flags: W
LayerCount: 2
Fore
SplineSet
497 235 m 1
 497 167 l 1
 410 167 l 1
 410 0 l 1
 328 0 l 1
 328 167 l 1
 41 167 l 1
 41 228 l 1
 243 678 l 1
 313 649 l 1
 130 235 l 1
 329 235 l 1
 337 418 l 1
 410 418 l 1
 410 235 l 1
 497 235 l 1
EndSplineSet
EndChar

StartChar: uni0035
Encoding: 53 53 21
Width: 498
Flags: W
LayerCount: 2
Fore
SplineSet
429 668 m 1
 417 602 l 1
 153 602 l 1
 153 398 l 1
 188 416 224 425 262 425 c 0
 375 425 451 346 451 214 c 0
 451 81 361 -12 223 -12 c 0
 139 -12 79 20 28 72 c 1
 78 121 l 1
 120 78 163 57 223 57 c 0
 309 57 364 115 364 216 c 0
 364 321 309 359 237 359 c 0
 199 359 172 351 139 334 c 1
 73 334 l 1
 73 668 l 1
 429 668 l 1
EndSplineSet
EndChar

StartChar: uni0036
Encoding: 54 54 22
Width: 531
Flags: W
LayerCount: 2
Fore
SplineSet
305 438 m 0
 403 438 488 369 488 226 c 0
 488 80 396 -12 279 -12 c 0
 118 -12 58 123 58 311 c 0
 58 533 152 678 307 678 c 0
 361 678 404 663 442 638 c 1
 409 582 l 1
 378 601 344 611 306 611 c 0
 206 611 146 506 142 348 c 1
 186 410 240 438 305 438 c 0
279 55 m 0
 361 55 403 123 403 224 c 0
 403 332 356 371 291 371 c 0
 229 371 178 333 143 276 c 1
 147 129 186 55 279 55 c 0
EndSplineSet
EndChar

StartChar: uni0037
Encoding: 55 55 23
Width: 442
Flags: W
LayerCount: 2
Fore
SplineSet
411 668 m 1
 411 605 l 1
 158 -9 l 1
 81 16 l 1
 326 599 l 1
 26 599 l 1
 26 668 l 1
 411 668 l 1
EndSplineSet
EndChar

StartChar: uni0038
Encoding: 56 56 24
Width: 548
Flags: W
LayerCount: 2
Fore
SplineSet
359 358 m 1
 452 319 501 262 501 178 c 0
 501 66 407 -12 272 -12 c 0
 136 -12 47 66 47 176 c 0
 47 263 97 316 182 352 c 1
 108 388 75 438 75 508 c 0
 75 619 174 678 274 678 c 0
 373 678 474 623 474 510 c 0
 474 442 436 397 359 358 c 1
274 615 m 0
 204 615 158 576 158 507 c 0
 158 439 202 412 281 385 c 2
 301 378 l 1
 364 413 391 449 391 507 c 0
 391 573 348 615 274 615 c 0
273 56 m 0
 359 56 413 103 413 177 c 0
 413 251 374 283 267 321 c 2
 240 330 l 1
 168 298 135 251 135 176 c 0
 135 100 188 56 273 56 c 0
EndSplineSet
EndChar

StartChar: uni0039
Encoding: 57 57 25
Width: 523
Flags: W
LayerCount: 2
Fore
SplineSet
258 678 m 0
 401 678 471 575 471 416 c 0
 471 143 360 49 120 -21 c 1
 100 42 l 1
 271 91 377 171 384 327 c 1
 353 280 299 244 231 244 c 0
 127 244 47 326 47 458 c 0
 47 597 142 678 258 678 c 0
248 311 m 0
 307 311 351 344 385 398 c 1
 388 550 347 611 260 611 c 0
 179 611 132 555 132 456 c 0
 132 358 180 311 248 311 c 0
EndSplineSet
EndChar

StartChar: uni003A
Encoding: 58 58 26
Width: 232
Flags: W
LayerCount: 2
Fore
SplineSet
115 490 m 0
 153 490 180 462 180 426 c 0
 180 390 153 362 115 362 c 0
 79 362 51 390 51 426 c 0
 51 462 79 490 115 490 c 0
115 117 m 0
 153 117 180 88 180 53 c 0
 180 17 153 -12 115 -12 c 0
 79 -12 51 17 51 53 c 0
 51 88 79 117 115 117 c 0
EndSplineSet
EndChar

StartChar: uni003B
Encoding: 59 59 27
Width: 232
Flags: W
LayerCount: 2
Fore
SplineSet
115 490 m 0
 153 490 180 462 180 426 c 0
 180 390 153 362 115 362 c 0
 79 362 51 390 51 426 c 0
 51 462 79 490 115 490 c 0
115 117 m 0
 153 117 180 88 180 53 c 0
 180 32 175 13 163 -14 c 2
 98 -163 l 1
 38 -163 l 1
 78 -1 l 1
 62 11 51 31 51 53 c 0
 51 88 79 117 115 117 c 0
EndSplineSet
EndChar

StartChar: uni003C
Encoding: 60 60 28
Width: 499
Flags: W
LayerCount: 2
Fore
SplineSet
416 546 m 1
 446 476 l 1
 121 333 l 1
 446 188 l 1
 416 120 l 1
 53 291 l 1
 53 375 l 1
 416 546 l 1
EndSplineSet
EndChar

StartChar: uni003D
Encoding: 61 61 29
Width: 498
Flags: W
LayerCount: 2
Fore
SplineSet
64 390 m 1
 64 461 l 1
 435 461 l 1
 435 390 l 1
 64 390 l 1
64 201 m 1
 64 272 l 1
 435 272 l 1
 435 201 l 1
 64 201 l 1
EndSplineSet
EndChar

StartChar: uni003E
Encoding: 62 62 30
Width: 499
Flags: W
LayerCount: 2
Fore
SplineSet
84 546 m 1
 446 375 l 1
 446 291 l 1
 84 120 l 1
 53 188 l 1
 378 333 l 1
 53 476 l 1
 84 546 l 1
EndSplineSet
EndChar

StartChar: uni003F
Encoding: 63 63 31
Width: 456
Flags: W
LayerCount: 2
Fore
SplineSet
237 700 m 0
 359 700 424 626 424 546 c 0
 424 388 242 409 242 274 c 2
 242 227 l 1
 159 227 l 1
 159 279 l 2
 159 447 336 430 336 541 c 0
 336 597 296 630 232 630 c 0
 179 630 132 608 90 558 c 1
 33 602 l 1
 89 668 155 700 237 700 c 0
203 117 m 0
 241 117 268 88 268 53 c 0
 268 17 241 -12 203 -12 c 0
 167 -12 139 17 139 53 c 0
 139 88 167 117 203 117 c 0
EndSplineSet
EndChar

StartChar: uni0040
Encoding: 64 64 32
Width: 1020
Flags: W
LayerCount: 2
Fore
SplineSet
526 700 m 0
 802 700 947 515 947 307 c 0
 947 136 881 10 753 10 c 0
 673 10 637 66 627 114 c 1
 603 62 560 12 482 12 c 0
 377 12 310 98 310 231 c 0
 310 404 402 490 526 490 c 0
 579 490 626 479 680 451 c 1
 680 192 l 2
 680 105 707 75 752 75 c 0
 819 75 862 142 862 305 c 0
 862 498 745 630 526 630 c 0
 299 630 158 463 158 240 c 0
 158 15 293 -141 526 -141 c 0
 601 -141 663 -127 717 -108 c 1
 740 -173 l 1
 675 -195 615 -211 525 -211 c 0
 259 -211 73 -37 73 240 c 0
 73 500 256 700 526 700 c 0
492 74 m 0
 561 74 591 131 604 164 c 1
 604 413 l 1
 582 423 560 429 528 429 c 0
 439 429 392 361 392 231 c 0
 392 128 428 74 492 74 c 0
EndSplineSet
EndChar

StartChar: uni0041
Encoding: 65 65 33
Width: 571
Flags: W
LayerCount: 2
Fore
SplineSet
471 0 m 1
 418 176 l 1
 150 176 l 1
 96 0 l 1
 8 0 l 1
 231 688 l 1
 341 688 l 1
 563 0 l 1
 471 0 l 1
172 247 m 1
 396 247 l 1
 284 616 l 1
 172 247 l 1
EndSplineSet
EndChar

StartChar: uni0042
Encoding: 66 66 34
Width: 606
Flags: W
LayerCount: 2
Fore
SplineSet
400 364 m 1
 481 351 559 312 559 195 c 0
 559 52 450 0 292 0 c 2
 103 0 l 1
 103 688 l 1
 263 688 l 2
 430 688 528 634 528 515 c 0
 528 429 468 378 400 364 c 1
272 619 m 2
 189 619 l 1
 189 394 l 1
 301 394 l 2
 380 394 439 434 439 509 c 0
 439 595 377 619 272 619 c 2
292 70 m 2
 395 70 467 94 467 195 c 0
 467 293 395 327 310 327 c 2
 189 327 l 1
 189 70 l 1
 292 70 l 2
EndSplineSet
EndChar

StartChar: uni0043
Encoding: 67 67 35
Width: 558
Flags: W
LayerCount: 2
Fore
SplineSet
342 700 m 0
 427 700 475 676 529 633 c 1
 482 577 l 1
 438 612 397 628 347 628 c 0
 239 628 150 555 150 344 c 0
 150 143 236 62 346 62 c 0
 412 62 454 89 494 119 c 1
 537 64 l 1
 498 25 434 -12 343 -12 c 0
 178 -12 58 113 58 344 c 0
 58 578 186 700 342 700 c 0
EndSplineSet
EndChar

StartChar: uni0044
Encoding: 68 68 36
Width: 641
Flags: W
LayerCount: 2
Fore
SplineSet
245 688 m 2
 417 688 584 633 584 348 c 0
 584 66 410 0 263 0 c 2
 103 0 l 1
 103 688 l 1
 245 688 l 2
263 618 m 2
 189 618 l 1
 189 69 l 1
 270 69 l 2
 380 69 491 117 491 348 c 0
 491 585 375 618 263 618 c 2
EndSplineSet
EndChar

StartChar: uni0045
Encoding: 69 69 37
Width: 530
Flags: W
LayerCount: 2
Fore
SplineSet
470 688 m 1
 460 618 l 1
 189 618 l 1
 189 386 l 1
 424 386 l 1
 424 316 l 1
 189 316 l 1
 189 70 l 1
 477 70 l 1
 477 0 l 1
 103 0 l 1
 103 688 l 1
 470 688 l 1
EndSplineSet
EndChar

StartChar: uni0046
Encoding: 70 70 38
Width: 489
Flags: W
LayerCount: 2
Fore
SplineSet
103 0 m 1
 103 688 l 1
 463 688 l 1
 453 618 l 1
 189 618 l 1
 189 376 l 1
 417 376 l 1
 417 307 l 1
 189 307 l 1
 189 0 l 1
 103 0 l 1
EndSplineSet
EndChar

StartChar: uni0047
Encoding: 71 71 39
Width: 628
Flags: W
LayerCount: 2
Fore
SplineSet
353 700 m 0
 442 700 498 674 556 626 c 1
 505 572 l 1
 457 611 415 628 353 628 c 0
 252 628 150 551 150 345 c 0
 150 144 221 60 345 60 c 0
 393 60 439 70 479 92 c 1
 479 308 l 1
 354 308 l 1
 344 379 l 1
 565 379 l 1
 565 48 l 1
 501 11 430 -12 345 -12 c 0
 169 -12 58 107 58 345 c 0
 58 578 197 700 353 700 c 0
EndSplineSet
EndChar

StartChar: uni0048
Encoding: 72 72 40
Width: 678
Flags: W
LayerCount: 2
Fore
SplineSet
488 0 m 1
 488 326 l 1
 189 326 l 1
 189 0 l 1
 103 0 l 1
 103 688 l 1
 189 688 l 1
 189 398 l 1
 488 398 l 1
 488 688 l 1
 575 688 l 1
 575 0 l 1
 488 0 l 1
EndSplineSet
EndChar

StartChar: uni0049
Encoding: 73 73 41
Width: 292
Flags: W
LayerCount: 2
Fore
SplineSet
189 688 m 1
 189 0 l 1
 103 0 l 1
 103 688 l 1
 189 688 l 1
EndSplineSet
EndChar

StartChar: uni004A
Encoding: 74 74 42
Width: 302
Flags: W
LayerCount: 2
Fore
SplineSet
204 688 m 1
 204 95 l 2
 204 -44 141 -96 30 -133 c 1
 7 -70 l 1
 98 -33 117 7 117 99 c 2
 117 688 l 1
 204 688 l 1
EndSplineSet
EndChar

StartChar: uni004B
Encoding: 75 75 43
Width: 579
Flags: W
LayerCount: 2
Fore
SplineSet
189 688 m 1
 189 0 l 1
 103 0 l 1
 103 688 l 1
 189 688 l 1
561 688 m 1
 294 373 l 1
 579 0 l 1
 472 0 l 1
 194 368 l 1
 462 688 l 1
 561 688 l 1
EndSplineSet
EndChar

StartChar: uni004C
Encoding: 76 76 44
Width: 493
Flags: W
LayerCount: 2
Fore
SplineSet
189 688 m 1
 189 76 l 1
 473 76 l 1
 463 0 l 1
 103 0 l 1
 103 688 l 1
 189 688 l 1
EndSplineSet
EndChar

StartChar: uni004D
Encoding: 77 77 45
Width: 776
Flags: W
LayerCount: 2
Fore
SplineSet
653 688 m 1
 713 0 l 1
 629 0 l 1
 603 315 l 2
 593 424 585 542 584 600 c 1
 429 79 l 1
 348 79 l 1
 186 601 l 1
 185 523 179 412 170 310 c 2
 146 0 l 1
 64 0 l 1
 122 688 l 1
 240 688 l 1
 391 179 l 1
 535 688 l 1
 653 688 l 1
EndSplineSet
EndChar

StartChar: uni004E
Encoding: 78 78 46
Width: 681
Flags: W
LayerCount: 2
Fore
SplineSet
578 688 m 1
 578 0 l 1
 462 0 l 1
 172 593 l 1
 177 538 184 459 184 332 c 2
 184 0 l 1
 103 0 l 1
 103 688 l 1
 216 688 l 1
 508 94 l 1
 506 113 497 218 497 303 c 2
 497 688 l 1
 578 688 l 1
EndSplineSet
EndChar

StartChar: uni004F
Encoding: 79 79 47
Width: 692
Flags: W
LayerCount: 2
Fore
SplineSet
346 700 m 0
 517 700 634 575 634 343 c 0
 634 116 518 -12 346 -12 c 0
 175 -12 58 112 58 342 c 0
 58 569 176 700 346 700 c 0
346 628 m 0
 228 628 150 544 150 342 c 0
 150 142 230 60 346 60 c 0
 466 60 542 142 542 343 c 0
 542 544 467 628 346 628 c 0
EndSplineSet
EndChar

StartChar: uni0050
Encoding: 80 80 48
Width: 578
Flags: W
LayerCount: 2
Fore
SplineSet
279 688 m 2
 443 688 543 621 543 477 c 0
 543 320 430 256 279 256 c 2
 189 256 l 1
 189 0 l 1
 103 0 l 1
 103 688 l 1
 279 688 l 2
276 325 m 2
 381 325 451 357 451 476 c 0
 451 582 384 620 278 620 c 2
 189 620 l 1
 189 325 l 1
 276 325 l 2
EndSplineSet
EndChar

StartChar: uni0051
Encoding: 81 81 49
Width: 691
Flags: W
LayerCount: 2
Fore
SplineSet
473 35 m 1
 551 35 612 9 662 -28 c 1
 605 -101 l 1
 528 -32 468 -10 344 -10 c 0
 175 -10 58 112 58 342 c 0
 58 569 176 700 346 700 c 0
 517 700 634 575 634 343 c 0
 634 170 571 83 473 35 c 1
150 342 m 0
 150 142 230 60 346 60 c 0
 466 60 542 142 542 343 c 0
 542 544 467 628 346 628 c 0
 228 628 150 544 150 342 c 0
EndSplineSet
EndChar

StartChar: uni0052
Encoding: 82 82 50
Width: 601
Flags: W
LayerCount: 2
Fore
SplineSet
471 0 m 1
 303 296 l 1
 189 296 l 1
 189 0 l 1
 103 0 l 1
 103 688 l 1
 280 688 l 2
 450 688 538 622 538 495 c 0
 538 397 486 340 388 311 c 1
 574 0 l 1
 471 0 l 1
189 363 m 1
 290 363 l 2
 389 363 446 400 446 495 c 0
 446 582 396 620 279 620 c 2
 189 620 l 1
 189 363 l 1
EndSplineSet
EndChar

StartChar: uni0053
Encoding: 83 83 51
Width: 544
Flags: W
LayerCount: 2
Fore
SplineSet
269 700 m 0
 363 700 422 672 478 621 c 1
 431 568 l 1
 379 610 331 628 273 628 c 0
 200 628 145 593 145 526 c 0
 145 465 174 436 298 398 c 0
 411 364 500 320 500 191 c 0
 500 71 410 -12 259 -12 c 0
 161 -12 85 21 28 76 c 1
 76 130 l 1
 128 87 182 60 258 60 c 0
 342 60 410 103 410 188 c 0
 410 259 376 290 258 326 c 0
 123 367 56 418 56 523 c 0
 56 626 144 700 269 700 c 0
EndSplineSet
EndChar

StartChar: uni0054
Encoding: 84 84 52
Width: 512
Flags: W
LayerCount: 2
Fore
SplineSet
502 688 m 1
 492 614 l 1
 299 614 l 1
 299 0 l 1
 213 0 l 1
 213 614 l 1
 15 614 l 1
 15 688 l 1
 502 688 l 1
EndSplineSet
EndChar

StartChar: uni0055
Encoding: 85 85 53
Width: 660
Flags: W
LayerCount: 2
Fore
SplineSet
567 688 m 1
 567 219 l 2
 567 84 483 -12 329 -12 c 0
 173 -12 93 84 93 219 c 2
 93 688 l 1
 179 688 l 1
 179 226 l 2
 179 118 227 62 329 62 c 0
 432 62 479 118 479 226 c 2
 479 688 l 1
 567 688 l 1
EndSplineSet
EndChar

StartChar: uni0056
Encoding: 86 86 54
Width: 554
Flags: W
LayerCount: 2
Fore
SplineSet
545 688 m 1
 325 0 l 1
 231 0 l 1
 8 688 l 1
 102 688 l 1
 279 93 l 1
 457 688 l 1
 545 688 l 1
EndSplineSet
EndChar

StartChar: uni0057
Encoding: 87 87 55
Width: 822
Flags: W
LayerCount: 2
Fore
SplineSet
796 688 m 1
 653 0 l 1
 542 0 l 1
 410 587 l 1
 277 0 l 1
 169 0 l 1
 26 688 l 1
 112 688 l 1
 227 77 l 1
 364 688 l 1
 457 688 l 1
 597 77 l 1
 716 688 l 1
 796 688 l 1
EndSplineSet
EndChar

StartChar: uni0058
Encoding: 88 88 56
Width: 534
Flags: W
LayerCount: 2
Fore
SplineSet
317 372 m 1
 528 0 l 1
 429 0 l 1
 265 311 l 1
 100 0 l 1
 6 0 l 1
 214 367 l 1
 25 688 l 1
 123 688 l 1
 267 425 l 1
 410 688 l 1
 503 688 l 1
 317 372 l 1
EndSplineSet
EndChar

StartChar: uni0059
Encoding: 89 89 57
Width: 544
Flags: W
LayerCount: 2
Fore
SplineSet
537 688 m 1
 316 266 l 1
 316 0 l 1
 228 0 l 1
 228 265 l 1
 7 688 l 1
 103 688 l 1
 275 342 l 1
 446 688 l 1
 537 688 l 1
EndSplineSet
EndChar

StartChar: uni005A
Encoding: 90 90 58
Width: 521
Flags: W
LayerCount: 2
Fore
SplineSet
475 688 m 1
 475 618 l 1
 128 74 l 1
 473 74 l 1
 463 0 l 1
 31 0 l 1
 31 70 l 1
 381 615 l 1
 68 615 l 1
 68 688 l 1
 475 688 l 1
EndSplineSet
EndChar

StartChar: uni005B
Encoding: 91 91 59
Width: 321
Flags: W
LayerCount: 2
Fore
SplineSet
267 814 m 1
 267 744 l 1
 149 744 l 1
 149 -46 l 1
 267 -46 l 1
 267 -115 l 1
 70 -115 l 1
 70 814 l 1
 267 814 l 1
EndSplineSet
EndChar

StartChar: uni005C
Encoding: 92 92 60
Width: 520
Flags: W
LayerCount: 2
Fore
SplineSet
180 806 m 1
 412 -85 l 1
 339 -103 l 1
 108 789 l 1
 180 806 l 1
EndSplineSet
EndChar

StartChar: uni005D
Encoding: 93 93 61
Width: 321
Flags: W
LayerCount: 2
Fore
SplineSet
251 814 m 1
 251 -115 l 1
 54 -115 l 1
 54 -46 l 1
 172 -46 l 1
 172 744 l 1
 54 744 l 1
 54 814 l 1
 251 814 l 1
EndSplineSet
EndChar

StartChar: uni005E
Encoding: 94 94 62
Width: 538
Flags: W
LayerCount: 2
Fore
SplineSet
306 838 m 1
 494 527 l 1
 404 527 l 1
 268 764 l 1
 133 527 l 1
 44 527 l 1
 232 838 l 1
 306 838 l 1
EndSplineSet
EndChar

StartChar: uni005F
Encoding: 95 95 63
Width: 520
Flags: W
LayerCount: 2
Fore
SplineSet
20 -137 m 1
 20 -65 l 1
 500 -65 l 1
 500 -137 l 1
 20 -137 l 1
EndSplineSet
EndChar

StartChar: uni0060
Encoding: 96 96 64
Width: 294
Flags: W
LayerCount: 2
Fore
SplineSet
68 797 m 1
 264 685 l 1
 238 640 l 1
 30 725 l 1
 68 797 l 1
EndSplineSet
EndChar

StartChar: uni0061
Encoding: 97 97 65
Width: 537
Flags: W
LayerCount: 2
Fore
SplineSet
441 121 m 2
 441 72 457 57 485 47 c 1
 465 -12 l 1
 414 -5 381 17 367 69 c 1
 331 13 275 -12 209 -12 c 0
 105 -12 43 53 43 147 c 0
 43 259 127 319 271 319 c 2
 357 319 l 1
 357 361 l 2
 357 439 320 469 244 469 c 0
 204 469 156 459 102 440 c 1
 81 502 l 1
 144 526 201 538 259 538 c 0
 384 538 441 474 441 365 c 2
 441 121 l 2
228 52 m 0
 285 52 326 81 357 137 c 1
 357 263 l 1
 282 263 l 2
 184 263 132 226 132 151 c 0
 132 87 165 52 228 52 c 0
EndSplineSet
EndChar

StartChar: uni0062
Encoding: 98 98 66
Width: 583
Flags: W
LayerCount: 2
Fore
SplineSet
330 538 m 0
 449 538 525 439 525 264 c 0
 525 98 447 -12 320 -12 c 0
 260 -12 212 16 177 60 c 1
 169 0 l 1
 95 0 l 1
 95 738 l 1
 179 748 l 1
 179 459 l 1
 215 508 265 538 330 538 c 0
300 55 m 0
 381 55 434 118 434 264 c 0
 434 415 385 471 307 471 c 0
 247 471 208 431 179 387 c 1
 179 128 l 1
 208 85 250 55 300 55 c 0
EndSplineSet
EndChar

StartChar: uni0063
Encoding: 99 99 67
Width: 476
Flags: W
LayerCount: 2
Fore
SplineSet
287 538 m 0
 348 538 397 522 445 482 c 1
 404 429 l 1
 369 455 335 468 290 468 c 0
 204 468 149 401 149 260 c 0
 149 120 204 60 290 60 c 0
 335 60 367 74 406 101 c 1
 445 46 l 1
 400 8 347 -12 287 -12 c 0
 147 -12 59 89 59 259 c 0
 59 427 146 538 287 538 c 0
EndSplineSet
EndChar

StartChar: uni0064
Encoding: 100 100 68
Width: 587
Flags: W
LayerCount: 2
Fore
SplineSet
408 748 m 1
 492 738 l 1
 492 0 l 1
 419 0 l 1
 410 74 l 1
 377 22 324 -12 257 -12 c 0
 130 -12 59 96 59 261 c 0
 59 422 136 538 265 538 c 0
 329 538 374 508 408 472 c 1
 408 748 l 1
274 55 m 0
 335 55 373 85 408 138 c 1
 408 400 l 1
 376 443 338 471 283 471 c 0
 201 471 149 402 149 262 c 0
 149 122 195 55 274 55 c 0
EndSplineSet
EndChar

StartChar: uni0065
Encoding: 101 101 69
Width: 542
Flags: W
LayerCount: 2
Fore
SplineSet
489 280 m 0
 489 262 488 245 487 234 c 1
 148 234 l 1
 156 107 216 57 295 57 c 0
 348 57 387 72 433 104 c 1
 470 54 l 1
 419 13 361 -12 289 -12 c 0
 144 -12 59 91 59 258 c 0
 59 423 141 538 275 538 c 0
 416 538 489 439 489 280 c 0
406 296 m 1
 406 304 l 2
 406 410 364 471 277 471 c 0
 204 471 155 419 148 296 c 1
 406 296 l 1
EndSplineSet
EndChar

StartChar: uni0066
Encoding: 102 102 70
Width: 332
Flags: W
LayerCount: 2
Fore
SplineSet
271 680 m 0
 212 680 190 655 190 602 c 2
 190 526 l 1
 320 526 l 1
 311 461 l 1
 190 461 l 1
 190 0 l 1
 106 0 l 1
 106 461 l 1
 13 461 l 1
 13 526 l 1
 106 526 l 1
 106 601 l 2
 106 688 163 748 266 748 c 0
 315 748 350 739 391 721 c 1
 364 660 l 1
 330 675 299 680 271 680 c 0
EndSplineSet
EndChar

StartChar: uni0067
Encoding: 103 103 71
Width: 517
Flags: W
LayerCount: 2
Fore
SplineSet
489 582 m 1
 514 505 l 1
 472 492 423 490 362 489 c 1
 423 462 454 418 454 354 c 0
 454 251 380 177 256 177 c 0
 232 177 210 180 189 187 c 1
 171 175 160 156 160 135 c 0
 160 110 176 90 232 90 c 2
 316 90 l 2
 423 90 493 29 493 -53 c 0
 493 -154 412 -211 251 -211 c 0
 82 -211 27 -160 27 -54 c 1
 103 -54 l 1
 103 -117 133 -145 251 -145 c 0
 367 -145 408 -114 408 -59 c 0
 408 -7 367 19 299 19 c 2
 216 19 l 2
 124 19 82 65 82 117 c 0
 82 152 102 185 139 209 c 1
 79 241 51 287 51 356 c 0
 51 463 135 538 251 538 c 0
 384 535 430 555 489 582 c 1
251 477 m 0
 176 477 137 426 137 356 c 0
 137 282 179 233 253 233 c 0
 328 233 368 278 368 356 c 0
 368 434 329 477 251 477 c 0
EndSplineSet
EndChar

StartChar: uni0068
Encoding: 104 104 72
Width: 579
Flags: W
LayerCount: 2
Fore
SplineSet
339 538 m 0
 435 538 490 476 490 377 c 2
 490 0 l 1
 406 0 l 1
 406 365 l 2
 406 446 372 472 319 472 c 0
 259 472 216 433 179 376 c 1
 179 0 l 1
 95 0 l 1
 95 737 l 1
 179 747 l 1
 179 450 l 1
 218 503 271 538 339 538 c 0
EndSplineSet
EndChar

StartChar: uni0069
Encoding: 105 105 73
Width: 274
Flags: W
LayerCount: 2
Fore
SplineSet
136 774 m 0
 172 774 196 749 196 716 c 0
 196 683 172 658 136 658 c 0
 101 658 77 683 77 716 c 0
 77 749 101 774 136 774 c 0
179 526 m 1
 179 0 l 1
 95 0 l 1
 95 526 l 1
 179 526 l 1
EndSplineSet
EndChar

StartChar: uni006A
Encoding: 106 106 74
Width: 275
Flags: W
LayerCount: 2
Fore
SplineSet
138 774 m 0
 174 774 198 749 198 716 c 0
 198 683 174 658 138 658 c 0
 103 658 79 683 79 716 c 0
 79 749 103 774 138 774 c 0
180 526 m 1
 180 29 l 2
 180 -118 127 -161 19 -210 c 1
 -5 -149 l 1
 64 -116 96 -90 96 24 c 2
 96 526 l 1
 180 526 l 1
EndSplineSet
EndChar

StartChar: uni006B
Encoding: 107 107 75
Width: 504
Flags: W
LayerCount: 2
Fore
SplineSet
179 748 m 1
 179 0 l 1
 95 0 l 1
 95 738 l 1
 179 748 l 1
480 526 m 1
 280 293 l 1
 502 0 l 1
 401 0 l 1
 185 287 l 1
 385 526 l 1
 480 526 l 1
EndSplineSet
EndChar

StartChar: uni006C
Encoding: 108 108 76
Width: 293
Flags: W
LayerCount: 2
Fore
SplineSet
195 -12 m 0
 131 -12 89 27 89 100 c 2
 89 738 l 1
 173 748 l 1
 173 102 l 2
 173 73 183 58 208 58 c 0
 221 58 233 60 243 64 c 1
 265 5 l 1
 246 -5 221 -12 195 -12 c 0
EndSplineSet
EndChar

StartChar: uni006D
Encoding: 109 109 77
Width: 850
Flags: W
LayerCount: 2
Fore
SplineSet
619 538 m 0
 705 538 761 476 761 377 c 2
 761 0 l 1
 677 0 l 1
 677 365 l 2
 677 446 643 472 599 472 c 0
 541 472 507 433 470 375 c 1
 470 0 l 1
 386 0 l 1
 386 365 l 2
 386 446 352 472 308 472 c 0
 250 472 215 433 179 375 c 1
 179 0 l 1
 95 0 l 1
 95 526 l 1
 167 526 l 1
 174 446 l 1
 211 501 260 538 329 538 c 0
 394 538 442 502 461 441 c 1
 499 499 549 538 619 538 c 0
EndSplineSet
EndChar

StartChar: uni006E
Encoding: 110 110 78
Width: 579
Flags: W
LayerCount: 2
Fore
SplineSet
339 538 m 0
 436 538 490 477 490 377 c 2
 490 0 l 1
 406 0 l 1
 406 365 l 2
 406 446 374 472 320 472 c 0
 258 472 216 433 179 375 c 1
 179 0 l 1
 95 0 l 1
 95 526 l 1
 167 526 l 1
 174 446 l 1
 212 501 269 538 339 538 c 0
EndSplineSet
EndChar

StartChar: uni006F
Encoding: 111 111 79
Width: 581
Flags: W
LayerCount: 2
Fore
SplineSet
291 538 m 0
 439 538 522 432 522 264 c 0
 522 99 437 -12 290 -12 c 0
 143 -12 59 95 59 262 c 0
 59 427 144 538 291 538 c 0
291 470 m 0
 201 470 149 403 149 262 c 0
 149 123 199 56 290 56 c 0
 381 56 432 123 432 264 c 0
 432 403 382 470 291 470 c 0
EndSplineSet
EndChar

StartChar: uni0070
Encoding: 112 112 80
Width: 583
Flags: W
LayerCount: 2
Fore
SplineSet
331 538 m 0
 468 538 525 431 525 264 c 0
 525 103 454 -12 320 -12 c 0
 260 -12 213 9 179 51 c 1
 179 -201 l 1
 95 -211 l 1
 95 526 l 1
 167 526 l 1
 174 453 l 1
 212 507 268 538 331 538 c 0
300 57 m 0
 387 57 434 123 434 264 c 0
 434 404 393 471 311 471 c 0
 252 471 209 431 179 386 c 1
 179 125 l 1
 208 82 249 57 300 57 c 0
EndSplineSet
EndChar

StartChar: uni0071
Encoding: 113 113 81
Width: 587
Flags: W
LayerCount: 2
Fore
SplineSet
420 526 m 1
 492 526 l 1
 492 -211 l 1
 408 -201 l 1
 408 70 l 1
 374 20 322 -12 257 -12 c 0
 130 -12 59 96 59 261 c 0
 59 422 136 538 265 538 c 0
 333 538 379 505 414 466 c 1
 420 526 l 1
275 55 m 0
 335 55 373 85 408 138 c 1
 408 400 l 1
 376 443 338 471 283 471 c 0
 201 471 149 402 149 262 c 0
 149 122 195 55 275 55 c 0
EndSplineSet
EndChar

StartChar: uni0072
Encoding: 114 114 82
Width: 380
Flags: W
LayerCount: 2
Fore
SplineSet
318 538 m 0
 336 538 354 536 370 532 c 1
 354 450 l 1
 339 454 327 456 308 456 c 0
 241 456 202 408 179 305 c 1
 179 0 l 1
 95 0 l 1
 95 526 l 1
 167 526 l 1
 175 416 l 1
 203 497 252 538 318 538 c 0
EndSplineSet
EndChar

StartChar: uni0073
Encoding: 115 115 83
Width: 465
Flags: W
LayerCount: 2
Fore
SplineSet
236 538 m 0
 309 538 363 516 413 478 c 1
 376 425 l 1
 330 456 289 471 239 471 c 0
 177 471 138 442 138 397 c 0
 138 352 167 332 254 309 c 0
 366 280 427 238 427 146 c 0
 427 39 330 -12 224 -12 c 0
 136 -12 73 17 28 57 c 1
 73 108 l 1
 115 76 163 56 222 56 c 0
 293 56 339 88 339 141 c 0
 339 196 312 216 209 244 c 0
 95 274 50 321 50 395 c 0
 50 478 130 538 236 538 c 0
EndSplineSet
EndChar

StartChar: uni0074
Encoding: 116 116 84
Width: 357
Flags: W
LayerCount: 2
Fore
SplineSet
325 80 m 1
 357 23 l 1
 323 0 285 -12 241 -12 c 0
 154 -12 102 39 102 135 c 2
 102 461 l 1
 11 461 l 1
 11 526 l 1
 102 526 l 1
 102 647 l 1
 186 656 l 1
 186 526 l 1
 313 526 l 1
 304 461 l 1
 186 461 l 1
 186 139 l 2
 186 84 205 58 252 58 c 0
 277 58 299 65 325 80 c 1
EndSplineSet
EndChar

StartChar: uni0075
Encoding: 117 117 85
Width: 575
Flags: W
LayerCount: 2
Fore
SplineSet
480 526 m 1
 480 0 l 1
 408 0 l 1
 402 85 l 1
 363 21 313 -12 236 -12 c 0
 144 -12 89 46 89 149 c 2
 89 526 l 1
 173 526 l 1
 173 158 l 2
 173 83 200 55 259 55 c 0
 319 55 363 94 396 149 c 1
 396 526 l 1
 480 526 l 1
EndSplineSet
EndChar

StartChar: uni0076
Encoding: 118 118 86
Width: 487
Flags: W
LayerCount: 2
Fore
SplineSet
476 526 m 1
 296 0 l 1
 194 0 l 1
 11 526 l 1
 103 526 l 1
 246 75 l 1
 387 526 l 1
 476 526 l 1
EndSplineSet
EndChar

StartChar: uni0077
Encoding: 119 119 87
Width: 713
Flags: W
LayerCount: 2
Fore
SplineSet
691 526 m 1
 570 0 l 1
 455 0 l 1
 358 450 l 1
 258 0 l 1
 146 0 l 1
 21 526 l 1
 106 526 l 1
 205 59 l 1
 313 526 l 1
 407 526 l 1
 511 59 l 1
 611 526 l 1
 691 526 l 1
EndSplineSet
EndChar

StartChar: uni0078
Encoding: 120 120 88
Width: 479
Flags: W
LayerCount: 2
Fore
SplineSet
289 282 m 1
 473 0 l 1
 371 0 l 1
 237 228 l 1
 101 0 l 1
 6 0 l 1
 190 278 l 1
 28 526 l 1
 126 526 l 1
 241 329 l 1
 356 526 l 1
 451 526 l 1
 289 282 l 1
EndSplineSet
EndChar

StartChar: uni0079
Encoding: 121 121 89
Width: 486
Flags: W
LayerCount: 2
Fore
SplineSet
475 526 m 1
 298 -3 l 2
 261 -115 202 -193 61 -211 c 1
 51 -145 l 1
 158 -125 187 -84 218 0 c 1
 189 0 l 1
 11 526 l 1
 101 526 l 1
 246 61 l 1
 388 526 l 1
 475 526 l 1
EndSplineSet
EndChar

StartChar: uni007A
Encoding: 122 122 90
Width: 429
Flags: W
LayerCount: 2
Fore
SplineSet
400 526 m 1
 400 462 l 1
 121 71 l 1
 402 71 l 1
 392 0 l 1
 26 0 l 1
 26 63 l 1
 304 455 l 1
 49 455 l 1
 49 526 l 1
 400 526 l 1
EndSplineSet
EndChar

StartChar: uni007B
Encoding: 123 123 91
Width: 323
Flags: W
LayerCount: 2
Fore
SplineSet
273 834 m 1
 273 769 l 1
 207 769 180 750 180 699 c 2
 180 456 l 2
 180 384 153 364 105 349 c 1
 153 334 180 315 180 243 c 2
 180 1 l 2
 180 -50 207 -69 273 -69 c 1
 273 -134 l 1
 147 -134 101 -92 101 9 c 2
 101 239 l 2
 101 293 82 314 30 314 c 1
 30 384 l 1
 82 384 101 406 101 461 c 2
 101 691 l 2
 101 792 147 834 273 834 c 1
EndSplineSet
EndChar

StartChar: uni007C
Encoding: 124 124 92
Width: 404
Flags: W
LayerCount: 2
Fore
SplineSet
240 806 m 1
 240 -102 l 1
 164 -102 l 1
 164 806 l 1
 240 806 l 1
EndSplineSet
EndChar

StartChar: uni007D
Encoding: 125 125 93
Width: 323
Flags: W
LayerCount: 2
Fore
SplineSet
50 834 m 1
 176 834 222 792 222 691 c 2
 222 461 l 2
 222 406 241 384 293 384 c 1
 293 314 l 1
 241 314 222 293 222 239 c 2
 222 9 l 2
 222 -92 176 -134 50 -134 c 1
 50 -69 l 1
 115 -69 143 -50 143 1 c 2
 143 243 l 2
 143 315 170 334 218 349 c 1
 170 364 143 384 143 456 c 2
 143 699 l 2
 143 750 115 769 50 769 c 1
 50 834 l 1
EndSplineSet
EndChar

StartChar: uni007E
Encoding: 126 126 94
Width: 484
Flags: W
LayerCount: 2
Fore
SplineSet
317 253 m 0
 243 253 204 314 162 314 c 0
 129 314 107 288 90 262 c 1
 39 289 l 1
 60 329 99 381 170 381 c 0
 242 381 280 321 325 321 c 0
 356 321 378 342 395 368 c 1
 445 340 l 1
 424 300 386 253 317 253 c 0
EndSplineSet
EndChar

StartChar: uni00A1
Encoding: 161 161 96
Width: 241
Flags: W
LayerCount: 2
Fore
SplineSet
121 490 m 0
 157 490 185 462 185 426 c 0
 185 390 157 362 121 362 c 0
 84 362 56 390 56 426 c 0
 56 462 84 490 121 490 c 0
159 248 m 1
 168 -201 l 1
 76 -201 l 1
 84 248 l 1
 159 248 l 1
EndSplineSet
EndChar

StartChar: uni00A2
Encoding: 162 162 97
Width: 476
Flags: W
LayerCount: 2
Fore
SplineSet
406 101 m 1
 445 46 l 1
 410 16 370 -2 325 -9 c 1
 325 -153 l 1
 252 -153 l 1
 252 -10 l 1
 132 6 59 104 59 259 c 0
 59 413 132 519 253 536 c 1
 253 683 l 1
 325 683 l 1
 325 536 l 1
 369 530 407 513 445 482 c 1
 404 429 l 1
 369 455 335 468 290 468 c 0
 204 468 149 401 149 260 c 0
 149 120 204 60 290 60 c 0
 335 60 367 74 406 101 c 1
EndSplineSet
EndChar

StartChar: uni00A3
Encoding: 163 163 98
Width: 517
Flags: W
LayerCount: 2
Fore
SplineSet
208 196 m 2
 208 131 195 97 146 71 c 1
 468 71 l 1
 458 0 l 1
 43 0 l 1
 43 67 l 1
 109 93 125 118 125 197 c 2
 125 324 l 1
 59 324 l 1
 59 380 l 1
 125 380 l 1
 125 495 l 2
 125 600 190 678 310 678 c 0
 382 678 438 653 485 597 c 1
 430 555 l 1
 398 592 364 609 313 609 c 0
 246 609 208 568 208 495 c 2
 208 380 l 1
 417 380 l 1
 417 324 l 1
 208 324 l 1
 208 196 l 2
EndSplineSet
EndChar

StartChar: uni00A4
Encoding: 164 164 99
Width: 560
Flags: W
LayerCount: 2
Fore
SplineSet
487 341 m 0
 487 295 474 252 449 218 c 1
 526 142 l 1
 476 91 l 1
 397 168 l 1
 365 147 325 135 278 135 c 0
 233 135 194 148 161 170 c 1
 83 91 l 1
 34 142 l 1
 112 220 l 1
 88 254 75 296 75 341 c 0
 75 386 88 427 111 461 c 1
 34 541 l 1
 84 591 l 1
 162 511 l 1
 194 533 234 546 278 546 c 0
 325 546 366 534 398 512 c 1
 477 591 l 1
 526 541 l 1
 449 464 l 1
 474 429 487 387 487 341 c 0
281 202 m 0
 364 202 407 255 407 342 c 0
 407 428 364 481 281 481 c 0
 200 481 156 428 156 342 c 0
 156 255 200 202 281 202 c 0
EndSplineSet
EndChar

StartChar: uni00A5
Encoding: 165 165 100
Width: 530
Flags: W
LayerCount: 2
Fore
SplineSet
523 668 m 1
 331 344 l 1
 446 344 l 1
 446 287 l 1
 308 287 l 1
 308 194 l 1
 446 194 l 1
 446 137 l 1
 308 137 l 1
 308 0 l 1
 222 0 l 1
 222 137 l 1
 84 137 l 1
 84 194 l 1
 222 194 l 1
 222 287 l 1
 84 287 l 1
 84 344 l 1
 198 344 l 1
 7 668 l 1
 100 668 l 1
 268 369 l 1
 434 668 l 1
 523 668 l 1
EndSplineSet
EndChar

StartChar: uni00A6
Encoding: 166 166 101
Width: 404
Flags: W
LayerCount: 2
Fore
SplineSet
240 806 m 1
 240 443 l 1
 164 443 l 1
 164 806 l 1
 240 806 l 1
240 262 m 1
 240 -102 l 1
 164 -102 l 1
 164 262 l 1
 240 262 l 1
EndSplineSet
EndChar

StartChar: uni00A7
Encoding: 167 167 102
Width: 533
Flags: W
LayerCount: 2
Fore
SplineSet
384 172 m 1
 419 146 437 116 437 73 c 0
 437 -15 358 -70 247 -70 c 0
 177 -70 122 -50 80 -21 c 1
 113 35 l 1
 153 8 196 -4 250 -4 c 0
 309 -4 353 22 353 65 c 0
 353 113 332 131 229 165 c 0
 123 199 73 233 73 312 c 0
 73 362 104 405 151 434 c 1
 116 459 98 489 98 535 c 0
 98 624 175 676 280 676 c 0
 353 676 404 655 448 624 c 1
 415 570 l 1
 373 597 334 611 279 611 c 0
 216 611 181 583 181 541 c 0
 181 494 202 473 305 439 c 0
 411 403 460 365 460 292 c 0
 460 241 428 201 384 172 c 1
155 323 m 0
 155 273 176 255 255 229 c 0
 285 219 311 209 333 199 c 1
 362 224 379 253 379 281 c 0
 379 328 358 348 269 380 c 0
 243 389 220 398 200 407 c 1
 170 381 155 350 155 323 c 0
EndSplineSet
EndChar

StartChar: uni00A8
Encoding: 168 168 103
Width: 372
Flags: W
LayerCount: 2
Fore
SplineSet
84 762 m 0
 114 762 137 739 137 709 c 0
 137 679 114 656 84 656 c 0
 53 656 30 679 30 709 c 0
 30 739 53 762 84 762 c 0
288 762 m 0
 319 762 342 739 342 709 c 0
 342 679 319 656 288 656 c 0
 258 656 235 679 235 709 c 0
 235 739 258 762 288 762 c 0
EndSplineSet
EndChar

StartChar: uni00A9
Encoding: 169 169 104
Width: 810
Flags: W
LayerCount: 2
Fore
SplineSet
406 745 m 0
 577 745 714 617 714 434 c 0
 714 253 577 124 406 124 c 0
 233 124 96 253 96 434 c 0
 96 616 233 745 406 745 c 0
406 696 m 0
 261 696 153 589 153 434 c 0
 153 280 261 174 406 174 c 0
 550 174 658 280 658 434 c 0
 658 590 550 696 406 696 c 0
407 623 m 0
 457 623 489 608 521 584 c 1
 489 540 l 1
 464 558 440 567 411 567 c 0
 361 567 318 531 318 435 c 0
 318 346 357 306 411 306 c 0
 447 306 471 318 495 336 c 1
 525 292 l 1
 498 268 462 247 409 247 c 0
 315 247 248 314 248 435 c 0
 248 559 323 623 407 623 c 0
EndSplineSet
EndChar

StartChar: uni00AA
Encoding: 170 170 105
Width: 500
Flags: W
LayerCount: 2
Fore
SplineSet
255 524 m 2
 317 524 l 1
 317 550 l 2
 317 605 291 624 232 624 c 0
 201 624 161 617 119 603 c 1
 99 660 l 1
 150 679 198 688 245 688 c 0
 352 688 399 640 399 555 c 2
 399 382 l 2
 399 347 411 336 432 328 c 1
 414 273 l 1
 371 278 344 293 330 331 c 1
 300 290 255 272 203 272 c 0
 119 272 68 321 68 393 c 0
 68 478 137 524 255 524 c 2
223 333 m 0
 265 333 295 353 317 388 c 1
 317 473 l 1
 264 473 l 2
 192 473 154 449 154 397 c 0
 154 356 179 333 223 333 c 0
73 71 m 1
 444 71 l 1
 444 0 l 1
 73 0 l 1
 73 71 l 1
EndSplineSet
EndChar

StartChar: uni00AB
Encoding: 171 171 106
Width: 570
Flags: W
LayerCount: 2
Fore
SplineSet
231 531 m 1
 282 497 l 1
 146 287 l 1
 282 78 l 1
 231 43 l 1
 59 258 l 1
 59 315 l 1
 231 531 l 1
461 531 m 1
 511 497 l 1
 376 287 l 1
 511 78 l 1
 461 43 l 1
 289 258 l 1
 289 315 l 1
 461 531 l 1
EndSplineSet
EndChar

StartChar: uni00AC
Encoding: 172 172 107
Width: 500
Flags: W
LayerCount: 2
Fore
SplineSet
436 358 m 1
 436 147 l 1
 360 147 l 1
 360 287 l 1
 64 287 l 1
 64 358 l 1
 436 358 l 1
EndSplineSet
EndChar

StartChar: uni00AD
Encoding: 173 173 108
Width: 402
Flags: W
LayerCount: 2
Fore
SplineSet
62 277 m 1
 62 349 l 1
 341 349 l 1
 341 277 l 1
 62 277 l 1
EndSplineSet
EndChar

StartChar: uni00AE
Encoding: 174 174 109
Width: 641
Flags: W
LayerCount: 2
Fore
SplineSet
319 747 m 0
 462 747 571 634 571 494 c 0
 571 354 462 242 319 242 c 0
 180 242 70 353 70 494 c 0
 70 633 180 747 319 747 c 0
319 288 m 0
 436 288 519 375 519 494 c 0
 519 613 436 701 319 701 c 0
 206 701 121 613 121 494 c 0
 121 374 206 288 319 288 c 0
426 552 m 0
 426 512 398 487 361 476 c 1
 435 360 l 1
 372 360 l 1
 310 467 l 1
 283 467 l 1
 283 360 l 1
 230 360 l 1
 230 635 l 1
 306 635 l 2
 387 635 426 608 426 552 c 0
283 593 m 1
 283 509 l 1
 316 509 l 2
 349 509 371 521 371 552 c 0
 371 582 352 593 313 593 c 2
 283 593 l 1
EndSplineSet
EndChar

StartChar: uni00AF
Encoding: 175 175 110
Width: 325
Flags: W
LayerCount: 2
Fore
SplineSet
295 669 m 1
 30 669 l 1
 30 733 l 1
 295 733 l 1
 295 669 l 1
EndSplineSet
EndChar

StartChar: uni00B0
Encoding: 176 176 111
Width: 522
Flags: W
LayerCount: 2
Fore
SplineSet
219 384 m 0
 138 384 58 441 58 542 c 0
 58 643 138 700 219 700 c 0
 302 700 380 642 380 541 c 0
 380 440 302 384 219 384 c 0
219 442 m 0
 268 442 309 475 309 541 c 0
 309 608 268 641 219 641 c 0
 172 641 129 609 129 542 c 0
 129 475 172 442 219 442 c 0
EndSplineSet
EndChar

StartChar: uni00B1
Encoding: 177 177 112
Width: 498
Flags: W
LayerCount: 2
Fore
SplineSet
64 313 m 1
 64 382 l 1
 211 382 l 1
 211 533 l 1
 287 533 l 1
 287 382 l 1
 434 382 l 1
 434 313 l 1
 287 313 l 1
 287 163 l 1
 211 163 l 1
 211 313 l 1
 64 313 l 1
64 29 m 1
 64 98 l 1
 434 98 l 1
 434 29 l 1
 64 29 l 1
EndSplineSet
EndChar

StartChar: uni00B2
Encoding: 178 178 113
Width: 400
Flags: W
LayerCount: 2
Fore
SplineSet
195 745 m 0
 281 745 331 694 331 627 c 0
 331 557 287 506 150 380 c 1
 342 380 l 1
 334 322 l 1
 69 322 l 1
 69 376 l 1
 221 524 257 563 257 621 c 0
 257 664 230 687 190 687 c 0
 154 687 130 674 103 643 c 1
 58 678 l 1
 93 721 138 745 195 745 c 0
EndSplineSet
EndChar

StartChar: uni00B3
Encoding: 179 179 114
Width: 400
Flags: W
LayerCount: 2
Fore
SplineSet
198 745 m 0
 284 745 332 698 332 641 c 0
 332 588 297 555 246 543 c 1
 301 538 345 506 345 440 c 0
 345 369 287 313 191 313 c 0
 134 313 88 334 55 372 c 1
 96 411 l 1
 124 382 153 370 188 370 c 0
 239 370 271 398 271 444 c 0
 271 496 239 514 188 514 c 2
 155 514 l 1
 164 566 l 1
 186 566 l 2
 227 566 261 588 261 632 c 0
 261 669 234 690 192 690 c 0
 158 690 132 679 103 653 c 1
 66 694 l 1
 104 728 146 745 198 745 c 0
EndSplineSet
EndChar

StartChar: uni00B4
Encoding: 180 180 115
Width: 294
Flags: W
LayerCount: 2
Fore
SplineSet
226 797 m 1
 264 725 l 1
 56 640 l 1
 30 685 l 1
 226 797 l 1
EndSplineSet
EndChar

StartChar: uni00B5
Encoding: 181 181 116
Width: 585
Flags: W
LayerCount: 2
Fore
SplineSet
507 -1 m 1
 429 -11 l 1
 412 28 408 53 404 90 c 1
 375 40 327 -12 262 -12 c 0
 213 -12 184 4 163 41 c 1
 174 3 178 -31 178 -92 c 2
 178 -201 l 1
 95 -211 l 1
 95 526 l 1
 179 526 l 1
 179 155 l 2
 179 85 214 61 262 61 c 0
 314 61 361 89 397 162 c 1
 397 526 l 1
 481 526 l 1
 481 179 l 2
 481 100 493 44 507 -1 c 1
EndSplineSet
EndChar

StartChar: uni00B6
Encoding: 182 182 117
Width: 728
Flags: W
LayerCount: 2
Fore
SplineSet
335 688 m 2
 585 688 l 1
 585 -201 l 1
 509 -213 l 1
 509 621 l 1
 392 621 l 1
 392 -201 l 1
 316 -213 l 1
 316 285 l 1
 157 292 93 378 93 487 c 0
 93 616 186 688 335 688 c 2
EndSplineSet
EndChar

StartChar: uni00B7
Encoding: 183 183 118
Width: 232
Flags: W
LayerCount: 2
Fore
SplineSet
115 377 m 0
 153 377 180 348 180 313 c 0
 180 277 153 248 115 248 c 0
 79 248 51 277 51 313 c 0
 51 348 79 377 115 377 c 0
EndSplineSet
EndChar

StartChar: uni00B8
Encoding: 184 184 119
Width: 268
Flags: W
LayerCount: 2
Fore
SplineSet
145 16 m 1
 145 -58 l 1
 213 -64 238 -100 238 -141 c 0
 238 -205 184 -238 118 -238 c 0
 81 -238 50 -229 30 -214 c 1
 53 -166 l 1
 72 -176 90 -182 116 -182 c 0
 144 -182 167 -170 167 -141 c 0
 167 -113 142 -98 78 -98 c 1
 91 16 l 1
 145 16 l 1
EndSplineSet
EndChar

StartChar: uni00B9
Encoding: 185 185 120
Width: 400
Flags: W
LayerCount: 2
Fore
SplineSet
270 738 m 1
 270 322 l 1
 199 322 l 1
 199 665 l 1
 100 607 l 1
 69 656 l 1
 207 738 l 1
 270 738 l 1
EndSplineSet
EndChar

StartChar: uni00BA
Encoding: 186 186 121
Width: 500
Flags: W
LayerCount: 2
Fore
SplineSet
251 688 m 0
 371 688 441 610 441 480 c 0
 441 355 370 272 250 272 c 0
 129 272 59 351 59 480 c 0
 59 605 130 688 251 688 c 0
251 624 m 0
 183 624 146 579 146 480 c 0
 146 382 183 335 250 335 c 0
 317 335 354 381 354 480 c 0
 354 579 318 624 251 624 c 0
64 0 m 1
 64 71 l 1
 435 71 l 1
 435 0 l 1
 64 0 l 1
EndSplineSet
EndChar

StartChar: uni00BB
Encoding: 187 187 122
Width: 561
Flags: W
LayerCount: 2
Fore
SplineSet
109 531 m 1
 282 315 l 1
 282 258 l 1
 109 43 l 1
 59 78 l 1
 194 287 l 1
 59 497 l 1
 109 531 l 1
330 531 m 1
 502 315 l 1
 502 258 l 1
 330 43 l 1
 280 78 l 1
 415 287 l 1
 280 497 l 1
 330 531 l 1
EndSplineSet
EndChar

StartChar: uni00BC
Encoding: 188 188 123
Width: 928
Flags: W
LayerCount: 2
Fore
SplineSet
640 749 m 1
 695 723 l 1
 288 -76 l 1
 233 -50 l 1
 640 749 l 1
270 272 m 1
 199 272 l 1
 199 615 l 1
 100 557 l 1
 69 606 l 1
 207 688 l 1
 270 688 l 1
 270 272 l 1
883 153 m 1
 883 98 l 1
 829 98 l 1
 829 0 l 1
 759 0 l 1
 759 98 l 1
 572 98 l 1
 572 148 l 1
 701 423 l 1
 762 400 l 1
 647 153 l 1
 760 153 l 1
 766 261 l 1
 829 261 l 1
 829 153 l 1
 883 153 l 1
EndSplineSet
EndChar

StartChar: uni00BD
Encoding: 189 189 124
Width: 928
Flags: W
LayerCount: 2
Fore
SplineSet
640 749 m 1
 695 723 l 1
 288 -76 l 1
 233 -50 l 1
 640 749 l 1
270 688 m 1
 270 272 l 1
 199 272 l 1
 199 615 l 1
 100 557 l 1
 69 606 l 1
 207 688 l 1
 270 688 l 1
723 423 m 0
 809 423 859 372 859 305 c 0
 859 235 815 184 678 58 c 1
 870 58 l 1
 862 0 l 1
 597 0 l 1
 597 54 l 1
 749 202 785 241 785 299 c 0
 785 342 758 365 718 365 c 0
 682 365 658 352 631 321 c 1
 586 356 l 1
 621 399 666 423 723 423 c 0
EndSplineSet
EndChar

StartChar: uni00BE
Encoding: 190 190 125
Width: 928
Flags: W
LayerCount: 2
Fore
SplineSet
640 749 m 1
 695 723 l 1
 288 -76 l 1
 233 -50 l 1
 640 749 l 1
345 390 m 0
 345 319 287 263 191 263 c 0
 134 263 88 284 55 322 c 1
 96 361 l 1
 124 332 153 320 188 320 c 0
 239 320 271 348 271 394 c 0
 271 446 239 464 188 464 c 2
 155 464 l 1
 164 516 l 1
 186 516 l 2
 227 516 261 538 261 582 c 0
 261 619 234 640 192 640 c 0
 158 640 132 629 103 603 c 1
 66 644 l 1
 104 678 146 695 198 695 c 0
 284 695 332 648 332 591 c 0
 332 538 297 505 246 493 c 1
 301 488 345 456 345 390 c 0
883 153 m 1
 883 98 l 1
 829 98 l 1
 829 0 l 1
 759 0 l 1
 759 98 l 1
 572 98 l 1
 572 148 l 1
 701 423 l 1
 762 400 l 1
 647 153 l 1
 760 153 l 1
 766 261 l 1
 829 261 l 1
 829 153 l 1
 883 153 l 1
EndSplineSet
EndChar

StartChar: uni00BF
Encoding: 191 191 126
Width: 456
Flags: W
LayerCount: 2
Fore
SplineSet
253 362 m 0
 216 362 188 390 188 426 c 0
 188 462 216 490 253 490 c 0
 289 490 317 462 317 426 c 0
 317 390 289 362 253 362 c 0
219 -213 m 0
 97 -213 33 -139 33 -60 c 0
 33 98 214 78 214 205 c 2
 214 248 l 1
 297 248 l 1
 297 201 l 2
 297 39 120 56 120 -55 c 0
 120 -110 161 -143 224 -143 c 0
 277 -143 324 -121 366 -71 c 1
 424 -115 l 1
 367 -181 301 -213 219 -213 c 0
EndSplineSet
EndChar

StartChar: uni00C0
Encoding: 192 192 127
Width: 571
Flags: W
LayerCount: 2
Fore
SplineSet
196 906 m 1
 394 801 l 1
 372 756 l 1
 160 834 l 1
 196 906 l 1
471 0 m 1
 418 176 l 1
 150 176 l 1
 96 0 l 1
 8 0 l 1
 231 688 l 1
 341 688 l 1
 563 0 l 1
 471 0 l 1
172 247 m 1
 396 247 l 1
 284 616 l 1
 172 247 l 1
EndSplineSet
EndChar

StartChar: uni00C1
Encoding: 193 193 128
Width: 571
Flags: W
LayerCount: 2
Fore
SplineSet
403 834 m 1
 191 756 l 1
 169 801 l 1
 366 906 l 1
 403 834 l 1
471 0 m 1
 418 176 l 1
 150 176 l 1
 96 0 l 1
 8 0 l 1
 231 688 l 1
 341 688 l 1
 563 0 l 1
 471 0 l 1
171 247 m 1
 396 247 l 1
 284 616 l 1
 171 247 l 1
EndSplineSet
EndChar

StartChar: uni00C2
Encoding: 194 194 129
Width: 571
Flags: W
LayerCount: 2
Fore
SplineSet
160 760 m 1
 123 801 l 1
 258 909 l 1
 313 909 l 1
 446 801 l 1
 410 760 l 1
 285 841 l 1
 160 760 l 1
471 0 m 1
 418 176 l 1
 150 176 l 1
 96 0 l 1
 8 0 l 1
 231 688 l 1
 341 688 l 1
 563 0 l 1
 471 0 l 1
172 247 m 1
 396 247 l 1
 284 616 l 1
 172 247 l 1
EndSplineSet
EndChar

StartChar: uni00C3
Encoding: 195 195 130
Width: 571
Flags: W
LayerCount: 2
Fore
SplineSet
344 784 m 0
 316 784 294 797 276 810 c 0
 260 822 245 832 228 832 c 0
 205 832 191 817 174 787 c 1
 123 813 l 1
 146 860 180 896 228 896 c 0
 257 896 277 884 296 870 c 0
 312 859 327 849 344 849 c 0
 364 849 379 863 398 893 c 1
 449 867 l 1
 424 812 387 784 344 784 c 0
471 0 m 1
 418 176 l 1
 150 176 l 1
 96 0 l 1
 8 0 l 1
 231 688 l 1
 341 688 l 1
 563 0 l 1
 471 0 l 1
172 247 m 1
 396 247 l 1
 284 616 l 1
 172 247 l 1
EndSplineSet
EndChar

StartChar: uni00C4
Encoding: 196 196 131
Width: 571
Flags: W
LayerCount: 2
Fore
SplineSet
184 888 m 0
 214 888 237 865 237 835 c 0
 237 805 214 782 184 782 c 0
 153 782 130 805 130 835 c 0
 130 865 153 888 184 888 c 0
388 888 m 0
 419 888 442 865 442 835 c 0
 442 805 419 782 388 782 c 0
 358 782 335 805 335 835 c 0
 335 865 358 888 388 888 c 0
471 0 m 1
 418 176 l 1
 150 176 l 1
 96 0 l 1
 8 0 l 1
 231 688 l 1
 341 688 l 1
 563 0 l 1
 471 0 l 1
172 247 m 1
 396 247 l 1
 284 616 l 1
 172 247 l 1
EndSplineSet
EndChar

StartChar: uni00C5
Encoding: 197 197 132
Width: 571
Flags: W
LayerCount: 2
Fore
SplineSet
286 958 m 0
 351 958 397 913 397 855 c 0
 397 797 351 752 286 752 c 0
 221 752 176 797 176 855 c 0
 176 913 221 958 286 958 c 0
286 912 m 0
 253 912 233 891 233 855 c 0
 233 820 253 799 286 799 c 0
 319 799 340 820 340 855 c 0
 340 891 320 912 286 912 c 0
471 0 m 1
 418 176 l 1
 150 176 l 1
 96 0 l 1
 8 0 l 1
 231 688 l 1
 341 688 l 1
 563 0 l 1
 471 0 l 1
172 247 m 1
 396 247 l 1
 284 616 l 1
 172 247 l 1
EndSplineSet
EndChar

StartChar: uni00C6
Encoding: 198 198 133
Width: 808
Flags: W
LayerCount: 2
Fore
SplineSet
529 70 m 1
 756 70 l 1
 756 0 l 1
 459 0 l 1
 417 176 l 1
 146 176 l 1
 79 0 l 1
 -9 0 l 1
 263 688 l 1
 714 688 l 1
 704 618 l 1
 391 618 l 1
 450 385 l 1
 705 385 l 1
 705 315 l 1
 467 315 l 1
 529 70 l 1
172 246 m 1
 401 246 l 1
 313 619 l 1
 172 246 l 1
EndSplineSet
EndChar

StartChar: uni00C7
Encoding: 199 199 134
Width: 558
Flags: W
LayerCount: 2
Fore
SplineSet
372 -58 m 1
 440 -64 465 -100 465 -141 c 0
 465 -205 411 -238 345 -238 c 0
 308 -238 277 -229 257 -214 c 1
 280 -166 l 1
 299 -176 317 -182 343 -182 c 0
 371 -182 394 -170 394 -141 c 0
 394 -113 369 -98 305 -98 c 1
 315 -11 l 1
 165 3 58 126 58 344 c 0
 58 578 186 700 342 700 c 0
 427 700 475 676 529 633 c 1
 482 577 l 1
 438 612 397 628 347 628 c 0
 239 628 150 555 150 344 c 0
 150 143 236 62 346 62 c 0
 412 62 454 89 494 119 c 1
 537 64 l 1
 502 29 448 -4 372 -11 c 1
 372 -58 l 1
EndSplineSet
EndChar

StartChar: uni00C8
Encoding: 200 200 135
Width: 530
Flags: W
LayerCount: 2
Fore
SplineSet
200 906 m 1
 398 801 l 1
 376 756 l 1
 164 834 l 1
 200 906 l 1
470 688 m 1
 460 618 l 1
 189 618 l 1
 189 386 l 1
 424 386 l 1
 424 316 l 1
 189 316 l 1
 189 70 l 1
 477 70 l 1
 477 0 l 1
 103 0 l 1
 103 688 l 1
 470 688 l 1
EndSplineSet
EndChar

StartChar: uni00C9
Encoding: 201 201 136
Width: 530
Flags: W
LayerCount: 2
Fore
SplineSet
370 906 m 1
 407 834 l 1
 195 756 l 1
 173 801 l 1
 370 906 l 1
470 688 m 1
 460 618 l 1
 189 618 l 1
 189 386 l 1
 424 386 l 1
 424 316 l 1
 189 316 l 1
 189 70 l 1
 477 70 l 1
 477 0 l 1
 103 0 l 1
 103 688 l 1
 470 688 l 1
EndSplineSet
EndChar

StartChar: uni00CA
Encoding: 202 202 137
Width: 530
Flags: W
LayerCount: 2
Fore
SplineSet
164 760 m 1
 127 801 l 1
 262 909 l 1
 317 909 l 1
 450 801 l 1
 414 760 l 1
 289 841 l 1
 164 760 l 1
470 688 m 1
 460 618 l 1
 189 618 l 1
 189 386 l 1
 424 386 l 1
 424 316 l 1
 189 316 l 1
 189 70 l 1
 477 70 l 1
 477 0 l 1
 103 0 l 1
 103 688 l 1
 470 688 l 1
EndSplineSet
EndChar

StartChar: uni00CB
Encoding: 203 203 138
Width: 530
Flags: W
LayerCount: 2
Fore
SplineSet
187 888 m 0
 217 888 240 865 240 835 c 0
 240 805 217 782 187 782 c 0
 156 782 133 805 133 835 c 0
 133 865 156 888 187 888 c 0
391 888 m 0
 422 888 445 865 445 835 c 0
 445 805 422 782 391 782 c 0
 361 782 338 805 338 835 c 0
 338 865 361 888 391 888 c 0
470 688 m 1
 460 618 l 1
 189 618 l 1
 189 386 l 1
 424 386 l 1
 424 316 l 1
 189 316 l 1
 189 70 l 1
 477 70 l 1
 477 0 l 1
 103 0 l 1
 103 688 l 1
 470 688 l 1
EndSplineSet
EndChar

StartChar: uni00CC
Encoding: 204 204 139
Width: 292
Flags: W
LayerCount: 2
Fore
SplineSet
56 906 m 1
 254 801 l 1
 232 756 l 1
 20 834 l 1
 56 906 l 1
189 688 m 1
 189 0 l 1
 103 0 l 1
 103 688 l 1
 189 688 l 1
EndSplineSet
EndChar

StartChar: uni00CD
Encoding: 205 205 140
Width: 292
Flags: W
LayerCount: 2
Fore
SplineSet
225 906 m 1
 262 834 l 1
 50 756 l 1
 28 801 l 1
 225 906 l 1
189 688 m 1
 189 0 l 1
 103 0 l 1
 103 688 l 1
 189 688 l 1
EndSplineSet
EndChar

StartChar: uni00CE
Encoding: 206 206 141
Width: 292
Flags: W
LayerCount: 2
Fore
SplineSet
20 760 m 1
 -17 801 l 1
 118 909 l 1
 173 909 l 1
 306 801 l 1
 270 760 l 1
 145 841 l 1
 20 760 l 1
189 688 m 1
 189 0 l 1
 103 0 l 1
 103 688 l 1
 189 688 l 1
EndSplineSet
EndChar

StartChar: uni00CF
Encoding: 207 207 142
Width: 292
Flags: W
LayerCount: 2
Fore
SplineSet
43 888 m 0
 73 888 96 865 96 835 c 0
 96 805 73 782 43 782 c 0
 12 782 -11 805 -11 835 c 0
 -11 865 12 888 43 888 c 0
247 888 m 0
 278 888 301 865 301 835 c 0
 301 805 278 782 247 782 c 0
 217 782 194 805 194 835 c 0
 194 865 217 888 247 888 c 0
189 688 m 1
 189 0 l 1
 103 0 l 1
 103 688 l 1
 189 688 l 1
EndSplineSet
EndChar

StartChar: uni00D0
Encoding: 208 208 143
Width: 651
Flags: W
LayerCount: 2
Fore
SplineSet
255 688 m 2
 427 688 594 633 594 348 c 0
 594 66 421 0 274 0 c 2
 113 0 l 1
 113 320 l 1
 21 320 l 1
 21 385 l 1
 113 385 l 1
 113 688 l 1
 255 688 l 2
280 69 m 2
 390 69 502 117 502 348 c 0
 502 585 385 618 273 618 c 2
 200 618 l 1
 200 385 l 1
 361 385 l 1
 361 320 l 1
 200 320 l 1
 200 69 l 1
 280 69 l 2
EndSplineSet
EndChar

StartChar: uni00D1
Encoding: 209 209 144
Width: 681
Flags: W
LayerCount: 2
Fore
SplineSet
409 784 m 0
 381 784 359 797 341 810 c 0
 325 822 310 832 293 832 c 0
 270 832 256 817 239 787 c 1
 188 813 l 1
 211 860 245 896 293 896 c 0
 322 896 342 884 361 870 c 0
 377 859 392 849 409 849 c 0
 429 849 444 863 463 893 c 1
 514 867 l 1
 489 812 452 784 409 784 c 0
578 688 m 1
 578 0 l 1
 462 0 l 1
 172 593 l 1
 177 538 184 459 184 332 c 2
 184 0 l 1
 103 0 l 1
 103 688 l 1
 216 688 l 1
 508 94 l 1
 506 113 497 218 497 303 c 2
 497 688 l 1
 578 688 l 1
EndSplineSet
EndChar

StartChar: uni00D2
Encoding: 210 210 145
Width: 692
Flags: W
LayerCount: 2
Fore
SplineSet
256 906 m 1
 454 801 l 1
 432 756 l 1
 220 834 l 1
 256 906 l 1
346 700 m 0
 517 700 634 575 634 343 c 0
 634 116 518 -12 346 -12 c 0
 175 -12 58 112 58 342 c 0
 58 569 176 700 346 700 c 0
346 628 m 0
 228 628 150 544 150 342 c 0
 150 142 230 60 346 60 c 0
 466 60 542 142 542 343 c 0
 542 544 467 628 346 628 c 0
EndSplineSet
EndChar

StartChar: uni00D3
Encoding: 211 211 146
Width: 692
Flags: W
LayerCount: 2
Fore
SplineSet
426 906 m 1
 463 834 l 1
 251 756 l 1
 229 801 l 1
 426 906 l 1
346 700 m 0
 517 700 634 575 634 343 c 0
 634 116 518 -12 346 -12 c 0
 175 -12 58 112 58 342 c 0
 58 569 176 700 346 700 c 0
346 628 m 0
 228 628 150 544 150 342 c 0
 150 142 230 60 346 60 c 0
 466 60 542 142 542 343 c 0
 542 544 467 628 346 628 c 0
EndSplineSet
EndChar

StartChar: uni00D4
Encoding: 212 212 147
Width: 692
Flags: W
LayerCount: 2
Fore
SplineSet
220 760 m 1
 183 801 l 1
 318 909 l 1
 373 909 l 1
 506 801 l 1
 470 760 l 1
 345 841 l 1
 220 760 l 1
346 700 m 0
 517 700 634 575 634 343 c 0
 634 116 518 -12 346 -12 c 0
 175 -12 58 112 58 342 c 0
 58 569 176 700 346 700 c 0
346 628 m 0
 228 628 150 544 150 342 c 0
 150 142 230 60 346 60 c 0
 466 60 542 142 542 343 c 0
 542 544 467 628 346 628 c 0
EndSplineSet
EndChar

StartChar: uni00D5
Encoding: 213 213 148
Width: 692
Flags: W
LayerCount: 2
Fore
SplineSet
404 784 m 0
 376 784 354 797 336 810 c 0
 320 822 305 832 288 832 c 0
 265 832 251 817 234 787 c 1
 183 813 l 1
 206 860 240 896 288 896 c 0
 317 896 337 884 356 870 c 0
 372 859 387 849 404 849 c 0
 424 849 439 863 458 893 c 1
 509 867 l 1
 484 812 447 784 404 784 c 0
346 700 m 0
 517 700 634 575 634 343 c 0
 634 116 518 -12 346 -12 c 0
 175 -12 58 112 58 342 c 0
 58 569 176 700 346 700 c 0
346 628 m 0
 228 628 150 544 150 342 c 0
 150 142 230 60 346 60 c 0
 466 60 542 142 542 343 c 0
 542 544 467 628 346 628 c 0
EndSplineSet
EndChar

StartChar: uni00D6
Encoding: 214 214 149
Width: 692
Flags: W
LayerCount: 2
Fore
SplineSet
243 888 m 0
 273 888 296 865 296 835 c 0
 296 805 273 782 243 782 c 0
 212 782 189 805 189 835 c 0
 189 865 212 888 243 888 c 0
447 888 m 0
 478 888 501 865 501 835 c 0
 501 805 478 782 447 782 c 0
 417 782 394 805 394 835 c 0
 394 865 417 888 447 888 c 0
346 700 m 0
 517 700 634 575 634 343 c 0
 634 116 518 -12 346 -12 c 0
 175 -12 58 112 58 342 c 0
 58 569 176 700 346 700 c 0
346 628 m 0
 228 628 150 544 150 342 c 0
 150 142 230 60 346 60 c 0
 466 60 542 142 542 343 c 0
 542 544 467 628 346 628 c 0
EndSplineSet
EndChar

StartChar: uni00D7
Encoding: 215 215 150
Width: 498
Flags: W
LayerCount: 2
Fore
SplineSet
372 483 m 1
 423 430 l 1
 302 309 l 1
 423 184 l 1
 372 132 l 1
 251 258 l 1
 127 132 l 1
 75 184 l 1
 196 305 l 1
 75 430 l 1
 127 483 l 1
 247 356 l 1
 372 483 l 1
EndSplineSet
EndChar

StartChar: uni00D8
Encoding: 216 216 151
Width: 692
Flags: W
LayerCount: 2
Fore
SplineSet
482 668 m 1
 576 617 634 506 634 343 c 0
 634 116 518 -12 346 -12 c 0
 322 -12 299 -10 277 -5 c 1
 242 -125 l 1
 169 -106 l 1
 208 21 l 1
 115 72 58 181 58 342 c 0
 58 569 176 700 346 700 c 0
 370 700 392 698 413 693 c 1
 451 817 l 1
 523 797 l 1
 482 668 l 1
150 342 m 0
 150 206 184 128 239 90 c 1
 399 622 l 1
 382 626 365 628 346 628 c 0
 228 628 150 544 150 342 c 0
346 60 m 0
 466 60 542 142 542 343 c 0
 542 482 509 562 451 600 c 1
 291 66 l 1
 309 62 327 60 346 60 c 0
EndSplineSet
EndChar

StartChar: uni00D9
Encoding: 217 217 152
Width: 660
Flags: W
LayerCount: 2
Fore
SplineSet
240 906 m 1
 438 801 l 1
 416 756 l 1
 204 834 l 1
 240 906 l 1
567 688 m 1
 567 219 l 2
 567 84 483 -12 329 -12 c 0
 173 -12 93 84 93 219 c 2
 93 688 l 1
 179 688 l 1
 179 226 l 2
 179 118 227 62 329 62 c 0
 432 62 479 118 479 226 c 2
 479 688 l 1
 567 688 l 1
EndSplineSet
EndChar

StartChar: uni00DA
Encoding: 218 218 153
Width: 660
Flags: W
LayerCount: 2
Fore
SplineSet
410 906 m 1
 447 834 l 1
 235 756 l 1
 213 801 l 1
 410 906 l 1
567 688 m 1
 567 219 l 2
 567 84 483 -12 329 -12 c 0
 173 -12 93 84 93 219 c 2
 93 688 l 1
 179 688 l 1
 179 226 l 2
 179 118 227 62 329 62 c 0
 432 62 479 118 479 226 c 2
 479 688 l 1
 567 688 l 1
EndSplineSet
EndChar

StartChar: uni00DB
Encoding: 219 219 154
Width: 660
Flags: W
LayerCount: 2
Fore
SplineSet
204 760 m 1
 167 801 l 1
 302 909 l 1
 357 909 l 1
 490 801 l 1
 454 760 l 1
 329 841 l 1
 204 760 l 1
567 688 m 1
 567 219 l 2
 567 84 483 -12 329 -12 c 0
 173 -12 93 84 93 219 c 2
 93 688 l 1
 179 688 l 1
 179 226 l 2
 179 118 227 62 329 62 c 0
 432 62 479 118 479 226 c 2
 479 688 l 1
 567 688 l 1
EndSplineSet
EndChar

StartChar: uni00DC
Encoding: 220 220 155
Width: 660
Flags: W
LayerCount: 2
Fore
SplineSet
227 888 m 0
 257 888 280 865 280 835 c 0
 280 805 257 782 227 782 c 0
 196 782 173 805 173 835 c 0
 173 865 196 888 227 888 c 0
431 888 m 0
 462 888 485 865 485 835 c 0
 485 805 462 782 431 782 c 0
 401 782 378 805 378 835 c 0
 378 865 401 888 431 888 c 0
567 688 m 1
 567 219 l 2
 567 84 483 -12 329 -12 c 0
 173 -12 93 84 93 219 c 2
 93 688 l 1
 179 688 l 1
 179 226 l 2
 179 118 227 62 329 62 c 0
 432 62 479 118 479 226 c 2
 479 688 l 1
 567 688 l 1
EndSplineSet
EndChar

StartChar: uni00DD
Encoding: 221 221 156
Width: 544
Flags: W
LayerCount: 2
Fore
SplineSet
352 906 m 1
 389 834 l 1
 177 756 l 1
 155 801 l 1
 352 906 l 1
537 688 m 1
 316 266 l 1
 316 0 l 1
 228 0 l 1
 228 265 l 1
 7 688 l 1
 103 688 l 1
 275 342 l 1
 446 688 l 1
 537 688 l 1
EndSplineSet
EndChar

StartChar: uni00DE
Encoding: 222 222 157
Width: 578
Flags: W
LayerCount: 2
Fore
SplineSet
279 569 m 2
 443 569 543 502 543 354 c 0
 543 193 430 129 279 129 c 2
 189 129 l 1
 189 0 l 1
 103 0 l 1
 103 688 l 1
 189 688 l 1
 189 569 l 1
 279 569 l 2
276 198 m 2
 381 198 451 230 451 353 c 0
 451 463 384 501 278 501 c 2
 189 501 l 1
 189 198 l 1
 276 198 l 2
EndSplineSet
EndChar

StartChar: uni00DF
Encoding: 223 223 158
Width: 588
Flags: W
LayerCount: 2
Fore
SplineSet
293 748 m 0
 402 748 469 687 469 607 c 0
 469 499 357 491 357 426 c 0
 357 342 546 335 546 160 c 0
 546 54 465 -12 371 -12 c 0
 325 -12 296 -3 271 11 c 1
 296 70 l 1
 310 63 331 56 364 56 c 0
 420 56 460 91 460 161 c 0
 460 298 277 299 277 420 c 0
 277 514 388 513 388 603 c 0
 388 655 346 682 292 682 c 0
 221 682 179 637 179 539 c 2
 179 0 l 1
 95 0 l 1
 95 539 l 2
 95 672 168 748 293 748 c 0
EndSplineSet
EndChar

StartChar: uni00E0
Encoding: 224 224 159
Width: 537
Flags: W
LayerCount: 2
Fore
SplineSet
185 797 m 1
 381 685 l 1
 355 640 l 1
 147 725 l 1
 185 797 l 1
441 121 m 2
 441 72 457 57 485 47 c 1
 465 -12 l 1
 414 -5 381 17 367 69 c 1
 331 13 275 -12 209 -12 c 0
 105 -12 43 53 43 147 c 0
 43 259 127 319 271 319 c 2
 357 319 l 1
 357 361 l 2
 357 439 320 469 244 469 c 0
 204 469 156 459 102 440 c 1
 81 502 l 1
 144 526 201 538 259 538 c 0
 384 538 441 474 441 365 c 2
 441 121 l 2
228 52 m 0
 285 52 326 81 357 137 c 1
 357 263 l 1
 282 263 l 2
 184 263 132 226 132 151 c 0
 132 87 165 52 228 52 c 0
EndSplineSet
EndChar

StartChar: uni00E1
Encoding: 225 225 160
Width: 537
Flags: W
LayerCount: 2
Fore
SplineSet
371 725 m 1
 163 640 l 1
 137 685 l 1
 333 797 l 1
 371 725 l 1
441 121 m 2
 441 72 457 57 485 47 c 1
 465 -12 l 1
 414 -5 381 16 367 69 c 1
 330 13 274 -12 209 -12 c 0
 105 -12 43 53 43 147 c 0
 43 259 127 319 271 319 c 2
 357 319 l 1
 357 361 l 2
 357 439 320 469 244 469 c 0
 204 469 156 459 102 440 c 1
 81 502 l 1
 144 526 201 538 259 538 c 0
 384 538 441 474 441 365 c 2
 441 121 l 2
228 52 m 0
 285 52 327 81 357 138 c 1
 357 263 l 1
 282 263 l 2
 184 263 132 226 132 151 c 0
 132 87 165 52 228 52 c 0
EndSplineSet
EndChar

StartChar: uni00E2
Encoding: 226 226 161
Width: 537
Flags: W
LayerCount: 2
Fore
SplineSet
130 636 m 1
 94 678 l 1
 228 789 l 1
 283 789 l 1
 417 678 l 1
 381 636 l 1
 256 720 l 1
 130 636 l 1
441 121 m 2
 441 72 457 57 485 47 c 1
 465 -12 l 1
 414 -5 381 17 367 69 c 1
 331 13 275 -12 209 -12 c 0
 105 -12 43 53 43 147 c 0
 43 259 127 319 271 319 c 2
 357 319 l 1
 357 361 l 2
 357 439 320 469 244 469 c 0
 204 469 156 459 102 440 c 1
 81 502 l 1
 144 526 201 538 259 538 c 0
 384 538 441 474 441 365 c 2
 441 121 l 2
228 52 m 0
 285 52 326 81 357 137 c 1
 357 263 l 1
 282 263 l 2
 184 263 132 226 132 151 c 0
 132 87 165 52 228 52 c 0
EndSplineSet
EndChar

StartChar: uni00E3
Encoding: 227 227 162
Width: 537
Flags: W
LayerCount: 2
Fore
SplineSet
313 658 m 0
 285 658 263 671 245 684 c 0
 229 696 214 706 197 706 c 0
 174 706 160 691 143 661 c 1
 92 687 l 1
 115 734 149 770 197 770 c 0
 226 770 246 758 265 744 c 0
 281 733 296 723 313 723 c 0
 333 723 348 737 367 767 c 1
 418 741 l 1
 393 686 356 658 313 658 c 0
441 121 m 2
 441 72 457 57 485 47 c 1
 465 -12 l 1
 414 -5 381 17 367 69 c 1
 331 13 275 -12 209 -12 c 0
 105 -12 43 53 43 147 c 0
 43 259 127 319 271 319 c 2
 357 319 l 1
 357 361 l 2
 357 439 320 469 244 469 c 0
 204 469 156 459 102 440 c 1
 81 502 l 1
 144 526 201 538 259 538 c 0
 384 538 441 474 441 365 c 2
 441 121 l 2
228 52 m 0
 285 52 326 81 357 137 c 1
 357 263 l 1
 282 263 l 2
 184 263 132 226 132 151 c 0
 132 87 165 52 228 52 c 0
EndSplineSet
EndChar

StartChar: uni00E4
Encoding: 228 228 163
Width: 537
Flags: W
LayerCount: 2
Fore
SplineSet
153 762 m 0
 183 762 206 739 206 709 c 0
 206 679 183 656 153 656 c 0
 122 656 99 679 99 709 c 0
 99 739 122 762 153 762 c 0
357 762 m 0
 388 762 411 739 411 709 c 0
 411 679 388 656 357 656 c 0
 327 656 304 679 304 709 c 0
 304 739 327 762 357 762 c 0
441 121 m 2
 441 72 457 57 485 47 c 1
 465 -12 l 1
 414 -5 381 17 367 69 c 1
 331 13 275 -12 209 -12 c 0
 105 -12 43 53 43 147 c 0
 43 259 127 319 271 319 c 2
 357 319 l 1
 357 361 l 2
 357 439 320 469 244 469 c 0
 204 469 156 459 102 440 c 1
 81 502 l 1
 144 526 201 538 259 538 c 0
 384 538 441 474 441 365 c 2
 441 121 l 2
228 52 m 0
 285 52 326 81 357 137 c 1
 357 263 l 1
 282 263 l 2
 184 263 132 226 132 151 c 0
 132 87 165 52 228 52 c 0
EndSplineSet
EndChar

StartChar: uni00E5
Encoding: 229 229 164
Width: 537
Flags: W
LayerCount: 2
Fore
SplineSet
255 832 m 0
 320 832 366 787 366 729 c 0
 366 671 320 626 255 626 c 0
 190 626 145 671 145 729 c 0
 145 787 190 832 255 832 c 0
255 786 m 0
 222 786 202 765 202 729 c 0
 202 694 222 673 255 673 c 0
 288 673 309 694 309 729 c 0
 309 765 289 786 255 786 c 0
441 121 m 2
 441 72 457 57 485 47 c 1
 465 -12 l 1
 414 -5 381 17 367 69 c 1
 331 13 275 -12 209 -12 c 0
 105 -12 43 53 43 147 c 0
 43 259 127 319 271 319 c 2
 357 319 l 1
 357 361 l 2
 357 439 320 469 244 469 c 0
 204 469 156 459 102 440 c 1
 81 502 l 1
 144 526 201 538 259 538 c 0
 384 538 441 474 441 365 c 2
 441 121 l 2
228 52 m 0
 285 52 326 81 357 137 c 1
 357 263 l 1
 282 263 l 2
 184 263 132 226 132 151 c 0
 132 87 165 52 228 52 c 0
EndSplineSet
EndChar

StartChar: uni00E6
Encoding: 230 230 165
Width: 842
Flags: W
LayerCount: 2
Fore
SplineSet
790 280 m 0
 790 262 789 245 788 234 c 1
 449 234 l 1
 457 107 516 57 596 57 c 0
 649 57 688 72 734 104 c 1
 771 54 l 1
 719 13 662 -12 590 -12 c 0
 505 -12 440 23 401 87 c 1
 350 15 292 -12 212 -12 c 0
 107 -12 43 53 43 147 c 0
 43 259 130 320 274 320 c 2
 359 320 l 1
 359 361 l 2
 359 439 323 469 247 469 c 0
 207 469 158 459 105 440 c 1
 83 502 l 1
 147 526 203 538 261 538 c 0
 347 538 394 504 420 450 c 1
 455 506 507 538 580 538 c 0
 716 538 790 439 790 280 c 0
707 296 m 1
 707 304 l 2
 707 410 665 471 578 471 c 0
 505 471 456 419 449 296 c 1
 707 296 l 1
230 52 m 0
 289 52 333 81 374 147 c 1
 364 180 359 216 359 257 c 2
 359 263 l 1
 285 263 l 2
 186 263 135 226 135 151 c 0
 135 87 168 52 230 52 c 0
EndSplineSet
EndChar

StartChar: uni00E7
Encoding: 231 231 166
Width: 476
Flags: W
LayerCount: 2
Fore
SplineSet
445 46 m 1
 405 12 358 -8 306 -11 c 1
 306 -58 l 1
 374 -64 399 -100 399 -141 c 0
 399 -205 345 -238 279 -238 c 0
 242 -238 211 -229 191 -214 c 1
 214 -166 l 1
 233 -176 251 -182 277 -182 c 0
 305 -182 328 -170 328 -141 c 0
 328 -113 303 -98 239 -98 c 1
 249 -9 l 1
 131 7 59 105 59 259 c 0
 59 427 146 538 287 538 c 0
 348 538 397 522 445 482 c 1
 404 429 l 1
 369 455 335 468 290 468 c 0
 204 468 149 401 149 260 c 0
 149 120 204 60 290 60 c 0
 335 60 367 74 406 101 c 1
 445 46 l 1
EndSplineSet
EndChar

StartChar: uni00E8
Encoding: 232 232 167
Width: 542
Flags: W
LayerCount: 2
Fore
SplineSet
208 797 m 1
 404 685 l 1
 378 640 l 1
 170 725 l 1
 208 797 l 1
489 280 m 0
 489 262 488 245 487 234 c 1
 148 234 l 1
 156 107 216 57 295 57 c 0
 348 57 387 72 433 104 c 1
 470 54 l 1
 419 13 361 -12 289 -12 c 0
 144 -12 59 91 59 258 c 0
 59 423 141 538 275 538 c 0
 416 538 489 439 489 280 c 0
406 296 m 1
 406 304 l 2
 406 410 364 471 277 471 c 0
 204 471 155 419 148 296 c 1
 406 296 l 1
EndSplineSet
EndChar

StartChar: uni00E9
Encoding: 233 233 168
Width: 542
Flags: W
LayerCount: 2
Fore
SplineSet
394 725 m 1
 186 640 l 1
 160 685 l 1
 356 797 l 1
 394 725 l 1
489 280 m 0
 489 262 488 245 487 234 c 1
 148 234 l 1
 157 107 215 57 295 57 c 0
 348 57 387 72 433 104 c 1
 470 54 l 1
 419 13 361 -12 289 -12 c 0
 144 -12 59 91 59 258 c 0
 59 423 141 538 275 538 c 0
 416 538 489 439 489 280 c 0
406 296 m 1
 406 304 l 2
 406 410 364 471 277 471 c 0
 204 471 155 419 148 296 c 1
 406 296 l 1
EndSplineSet
EndChar

StartChar: uni00EA
Encoding: 234 234 169
Width: 542
Flags: W
LayerCount: 2
Fore
SplineSet
279 720 m 1
 153 636 l 1
 117 678 l 1
 251 789 l 1
 306 789 l 1
 440 678 l 1
 404 636 l 1
 279 720 l 1
489 280 m 0
 489 262 488 245 487 234 c 1
 148 234 l 1
 157 107 215 57 295 57 c 0
 348 57 387 72 433 104 c 1
 470 54 l 1
 419 13 361 -12 289 -12 c 0
 144 -12 59 91 59 258 c 0
 59 423 141 538 275 538 c 0
 416 538 489 439 489 280 c 0
406 296 m 1
 406 304 l 2
 406 410 364 471 277 471 c 0
 204 471 155 419 148 296 c 1
 406 296 l 1
EndSplineSet
EndChar

StartChar: uni00EB
Encoding: 235 235 170
Width: 542
Flags: W
LayerCount: 2
Fore
SplineSet
176 762 m 0
 206 762 229 739 229 709 c 0
 229 679 206 656 176 656 c 0
 145 656 122 679 122 709 c 0
 122 739 145 762 176 762 c 0
380 762 m 0
 411 762 434 739 434 709 c 0
 434 679 411 656 380 656 c 0
 350 656 327 679 327 709 c 0
 327 739 350 762 380 762 c 0
489 280 m 0
 489 262 488 245 487 234 c 1
 148 234 l 1
 156 107 216 57 295 57 c 0
 348 57 387 72 433 104 c 1
 470 54 l 1
 419 13 361 -12 289 -12 c 0
 144 -12 59 91 59 258 c 0
 59 423 141 538 275 538 c 0
 416 538 489 439 489 280 c 0
406 296 m 1
 406 304 l 2
 406 410 364 471 277 471 c 0
 204 471 155 419 148 296 c 1
 406 296 l 1
EndSplineSet
EndChar

StartChar: uni00EC
Encoding: 236 236 171
Width: 274
Flags: W
LayerCount: 2
Fore
SplineSet
67 797 m 1
 263 685 l 1
 237 640 l 1
 29 725 l 1
 67 797 l 1
179 526 m 1
 179 0 l 1
 95 0 l 1
 95 526 l 1
 179 526 l 1
EndSplineSet
EndChar

StartChar: uni00ED
Encoding: 237 237 172
Width: 274
Flags: W
LayerCount: 2
Fore
SplineSet
215 797 m 1
 253 725 l 1
 45 640 l 1
 19 685 l 1
 215 797 l 1
179 526 m 1
 179 0 l 1
 95 0 l 1
 95 526 l 1
 179 526 l 1
EndSplineSet
EndChar

StartChar: uni00EE
Encoding: 238 238 173
Width: 274
Flags: W
LayerCount: 2
Fore
SplineSet
11 636 m 1
 -25 678 l 1
 109 789 l 1
 164 789 l 1
 298 678 l 1
 262 636 l 1
 137 720 l 1
 11 636 l 1
179 526 m 1
 179 0 l 1
 95 0 l 1
 95 526 l 1
 179 526 l 1
EndSplineSet
EndChar

StartChar: uni00EF
Encoding: 239 239 174
Width: 274
Flags: W
LayerCount: 2
Fore
SplineSet
35 762 m 0
 65 762 88 739 88 709 c 0
 88 679 65 656 35 656 c 0
 4 656 -19 679 -19 709 c 0
 -19 739 4 762 35 762 c 0
239 762 m 0
 270 762 293 739 293 709 c 0
 293 679 270 656 239 656 c 0
 209 656 186 679 186 709 c 0
 186 739 209 762 239 762 c 0
179 526 m 1
 179 0 l 1
 95 0 l 1
 95 526 l 1
 179 526 l 1
EndSplineSet
EndChar

StartChar: uni00F0
Encoding: 240 240 175
Width: 567
Flags: W
LayerCount: 2
Fore
SplineSet
338 664 m 1
 459 572 503 450 503 268 c 0
 503 95 411 -12 277 -12 c 0
 153 -12 59 78 59 234 c 0
 59 353 123 473 258 473 c 0
 324 473 372 447 409 403 c 1
 393 490 356 557 287 612 c 1
 213 540 l 1
 155 569 l 1
 231 646 l 1
 193 665 158 676 116 684 c 1
 134 749 l 1
 189 738 235 723 282 699 c 1
 352 773 l 1
 402 730 l 1
 338 664 l 1
276 55 m 0
 360 55 418 129 418 270 c 0
 418 291 417 309 416 326 c 1
 380 379 334 407 271 407 c 0
 176 407 145 329 145 238 c 0
 145 119 197 55 276 55 c 0
EndSplineSet
EndChar

StartChar: uni00F1
Encoding: 241 241 176
Width: 579
Flags: W
LayerCount: 2
Fore
SplineSet
237 706 m 0
 214 706 200 691 183 661 c 1
 132 687 l 1
 155 734 189 770 237 770 c 0
 266 770 286 758 305 744 c 0
 321 733 336 723 353 723 c 0
 373 723 388 737 407 767 c 1
 458 741 l 1
 433 686 396 658 353 658 c 0
 325 658 303 671 285 684 c 0
 269 696 254 706 237 706 c 0
339 538 m 0
 436 538 490 477 490 377 c 2
 490 0 l 1
 406 0 l 1
 406 365 l 2
 406 446 374 472 320 472 c 0
 258 472 216 433 179 375 c 1
 179 0 l 1
 95 0 l 1
 95 526 l 1
 167 526 l 1
 174 446 l 1
 212 501 269 538 339 538 c 0
EndSplineSet
EndChar

StartChar: uni00F2
Encoding: 242 242 177
Width: 581
Flags: W
LayerCount: 2
Fore
SplineSet
220 797 m 1
 416 685 l 1
 390 640 l 1
 182 725 l 1
 220 797 l 1
291 538 m 0
 439 538 522 432 522 264 c 0
 522 99 437 -12 290 -12 c 0
 143 -12 59 95 59 262 c 0
 59 427 144 538 291 538 c 0
291 470 m 0
 201 470 149 403 149 262 c 0
 149 123 199 56 290 56 c 0
 381 56 432 123 432 264 c 0
 432 403 382 470 291 470 c 0
EndSplineSet
EndChar

StartChar: uni00F3
Encoding: 243 243 178
Width: 581
Flags: W
LayerCount: 2
Fore
SplineSet
368 797 m 1
 406 725 l 1
 198 640 l 1
 172 685 l 1
 368 797 l 1
291 538 m 0
 439 538 522 432 522 264 c 0
 522 99 437 -12 290 -12 c 0
 143 -12 59 95 59 262 c 0
 59 427 144 538 291 538 c 0
291 470 m 0
 201 470 149 403 149 262 c 0
 149 123 199 56 290 56 c 0
 381 56 432 123 432 264 c 0
 432 403 382 470 291 470 c 0
EndSplineSet
EndChar

StartChar: uni00F4
Encoding: 244 244 179
Width: 581
Flags: W
LayerCount: 2
Fore
SplineSet
165 636 m 1
 129 678 l 1
 263 789 l 1
 318 789 l 1
 452 678 l 1
 416 636 l 1
 291 720 l 1
 165 636 l 1
291 538 m 0
 439 538 522 432 522 264 c 0
 522 99 437 -12 290 -12 c 0
 143 -12 59 95 59 262 c 0
 59 427 144 538 291 538 c 0
291 470 m 0
 201 470 149 403 149 262 c 0
 149 123 199 56 290 56 c 0
 381 56 432 123 432 264 c 0
 432 403 382 470 291 470 c 0
EndSplineSet
EndChar

StartChar: uni00F5
Encoding: 245 245 180
Width: 581
Flags: W
LayerCount: 2
Fore
SplineSet
348 658 m 0
 320 658 298 671 280 684 c 0
 264 696 249 706 232 706 c 0
 209 706 195 691 178 661 c 1
 127 687 l 1
 150 734 184 770 232 770 c 0
 261 770 281 758 300 744 c 0
 316 733 331 723 348 723 c 0
 368 723 383 737 402 767 c 1
 453 741 l 1
 428 686 391 658 348 658 c 0
291 538 m 0
 439 538 522 432 522 264 c 0
 522 99 437 -12 290 -12 c 0
 143 -12 59 95 59 262 c 0
 59 427 144 538 291 538 c 0
291 470 m 0
 201 470 149 403 149 262 c 0
 149 123 199 56 290 56 c 0
 381 56 432 123 432 264 c 0
 432 403 382 470 291 470 c 0
EndSplineSet
EndChar

StartChar: uni00F6
Encoding: 246 246 181
Width: 581
Flags: W
LayerCount: 2
Fore
SplineSet
188 762 m 0
 218 762 241 739 241 709 c 0
 241 679 218 656 188 656 c 0
 157 656 134 679 134 709 c 0
 134 739 157 762 188 762 c 0
392 762 m 0
 423 762 446 739 446 709 c 0
 446 679 423 656 392 656 c 0
 362 656 339 679 339 709 c 0
 339 739 362 762 392 762 c 0
291 538 m 0
 439 538 522 432 522 264 c 0
 522 99 437 -12 290 -12 c 0
 143 -12 59 95 59 262 c 0
 59 427 144 538 291 538 c 0
291 470 m 0
 201 470 149 403 149 262 c 0
 149 123 199 56 290 56 c 0
 381 56 432 123 432 264 c 0
 432 403 382 470 291 470 c 0
EndSplineSet
EndChar

StartChar: uni00F7
Encoding: 247 247 182
Width: 498
Flags: W
LayerCount: 2
Fore
SplineSet
249 623 m 0
 287 623 314 595 314 559 c 0
 314 523 287 495 249 495 c 0
 213 495 185 523 185 559 c 0
 185 595 213 623 249 623 c 0
64 297 m 1
 64 368 l 1
 435 368 l 1
 435 297 l 1
 64 297 l 1
249 171 m 0
 287 171 314 142 314 107 c 0
 314 71 287 42 249 42 c 0
 213 42 185 71 185 107 c 0
 185 142 213 171 249 171 c 0
EndSplineSet
EndChar

StartChar: uni00F8
Encoding: 248 248 183
Width: 581
Flags: W
LayerCount: 2
Fore
SplineSet
411 508 m 1
 483 465 522 379 522 264 c 0
 522 99 437 -12 290 -12 c 0
 271 -12 253 -10 236 -7 c 1
 197 -129 l 1
 129 -109 l 1
 171 18 l 1
 99 61 59 147 59 262 c 0
 59 427 144 538 291 538 c 0
 310 538 328 536 345 533 c 1
 384 654 l 1
 453 634 l 1
 411 508 l 1
291 470 m 0
 201 470 149 403 149 262 c 0
 149 167 168 111 203 82 c 1
 330 466 l 1
 318 469 305 470 291 470 c 0
290 56 m 0
 381 56 432 123 432 264 c 0
 432 359 414 414 379 443 c 1
 252 59 l 1
 264 57 277 56 290 56 c 0
EndSplineSet
EndChar

StartChar: uni00F9
Encoding: 249 249 184
Width: 575
Flags: W
LayerCount: 2
Fore
SplineSet
215 797 m 1
 411 685 l 1
 385 640 l 1
 177 725 l 1
 215 797 l 1
480 526 m 1
 480 0 l 1
 408 0 l 1
 402 85 l 1
 363 21 313 -12 236 -12 c 0
 144 -12 89 46 89 149 c 2
 89 526 l 1
 173 526 l 1
 173 158 l 2
 173 83 200 55 259 55 c 0
 319 55 363 94 396 149 c 1
 396 526 l 1
 480 526 l 1
EndSplineSet
EndChar

StartChar: uni00FA
Encoding: 250 250 185
Width: 575
Flags: W
LayerCount: 2
Fore
SplineSet
363 797 m 1
 401 725 l 1
 193 640 l 1
 167 685 l 1
 363 797 l 1
480 526 m 1
 480 0 l 1
 408 0 l 1
 402 85 l 1
 363 21 313 -12 236 -12 c 0
 144 -12 89 46 89 149 c 2
 89 526 l 1
 173 526 l 1
 173 158 l 2
 173 83 200 55 259 55 c 0
 319 55 363 94 396 149 c 1
 396 526 l 1
 480 526 l 1
EndSplineSet
EndChar

StartChar: uni00FB
Encoding: 251 251 186
Width: 575
Flags: W
LayerCount: 2
Fore
SplineSet
159 636 m 1
 123 678 l 1
 257 789 l 1
 312 789 l 1
 446 678 l 1
 410 636 l 1
 285 720 l 1
 159 636 l 1
480 526 m 1
 480 0 l 1
 408 0 l 1
 402 85 l 1
 363 21 313 -12 236 -12 c 0
 144 -12 89 46 89 149 c 2
 89 526 l 1
 173 526 l 1
 173 158 l 2
 173 83 200 55 259 55 c 0
 319 55 363 94 396 149 c 1
 396 526 l 1
 480 526 l 1
EndSplineSet
EndChar

StartChar: uni00FC
Encoding: 252 252 187
Width: 575
Flags: W
LayerCount: 2
Fore
SplineSet
183 762 m 0
 213 762 236 739 236 709 c 0
 236 679 213 656 183 656 c 0
 152 656 129 679 129 709 c 0
 129 739 152 762 183 762 c 0
387 762 m 0
 418 762 441 739 441 709 c 0
 441 679 418 656 387 656 c 0
 357 656 334 679 334 709 c 0
 334 739 357 762 387 762 c 0
480 526 m 1
 480 0 l 1
 408 0 l 1
 402 85 l 1
 363 21 313 -12 236 -12 c 0
 144 -12 89 46 89 149 c 2
 89 526 l 1
 173 526 l 1
 173 158 l 2
 173 83 200 55 259 55 c 0
 319 55 363 94 396 149 c 1
 396 526 l 1
 480 526 l 1
EndSplineSet
EndChar

StartChar: uni00FD
Encoding: 253 253 188
Width: 486
Flags: W
LayerCount: 2
Fore
SplineSet
321 797 m 1
 359 725 l 1
 151 640 l 1
 125 685 l 1
 321 797 l 1
475 526 m 1
 298 -3 l 2
 261 -115 202 -193 61 -211 c 1
 51 -145 l 1
 158 -125 187 -84 218 0 c 1
 189 0 l 1
 11 526 l 1
 101 526 l 1
 246 61 l 1
 388 526 l 1
 475 526 l 1
EndSplineSet
EndChar

StartChar: uni00FE
Encoding: 254 254 189
Width: 583
Flags: W
LayerCount: 2
Fore
SplineSet
331 538 m 0
 468 538 525 431 525 264 c 0
 525 103 454 -12 320 -12 c 0
 260 -12 213 9 179 51 c 1
 179 -197 l 1
 95 -211 l 1
 95 738 l 1
 179 748 l 1
 179 461 l 1
 217 511 270 538 331 538 c 0
300 57 m 0
 387 57 434 123 434 264 c 0
 434 404 393 471 311 471 c 0
 252 471 209 431 179 386 c 1
 179 125 l 1
 208 82 249 57 300 57 c 0
EndSplineSet
EndChar

StartChar: uni00FF
Encoding: 255 255 190
Width: 486
Flags: W
LayerCount: 2
Fore
SplineSet
141 762 m 0
 171 762 194 739 194 709 c 0
 194 679 171 656 141 656 c 0
 110 656 87 679 87 709 c 0
 87 739 110 762 141 762 c 0
345 762 m 0
 376 762 399 739 399 709 c 0
 399 679 376 656 345 656 c 0
 315 656 292 679 292 709 c 0
 292 739 315 762 345 762 c 0
475 526 m 1
 298 -3 l 2
 261 -115 202 -193 61 -211 c 1
 51 -145 l 1
 158 -125 187 -84 218 0 c 1
 189 0 l 1
 11 526 l 1
 101 526 l 1
 246 61 l 1
 388 526 l 1
 475 526 l 1
EndSplineSet
EndChar

StartChar: uni0100
Encoding: 256 256 191
Width: 571
Flags: W
LayerCount: 2
Fore
SplineSet
418 795 m 1
 153 795 l 1
 153 859 l 1
 418 859 l 1
 418 795 l 1
471 0 m 1
 418 176 l 1
 150 176 l 1
 96 0 l 1
 8 0 l 1
 231 688 l 1
 341 688 l 1
 563 0 l 1
 471 0 l 1
172 247 m 1
 396 247 l 1
 284 616 l 1
 172 247 l 1
EndSplineSet
EndChar

StartChar: uni0101
Encoding: 257 257 192
Width: 537
Flags: W
LayerCount: 2
Fore
SplineSet
387 669 m 1
 122 669 l 1
 122 733 l 1
 387 733 l 1
 387 669 l 1
441 121 m 2
 441 72 457 57 485 47 c 1
 465 -12 l 1
 414 -5 381 17 367 69 c 1
 331 13 275 -12 209 -12 c 0
 105 -12 43 53 43 147 c 0
 43 259 127 319 271 319 c 2
 357 319 l 1
 357 361 l 2
 357 439 320 469 244 469 c 0
 204 469 156 459 102 440 c 1
 81 502 l 1
 144 526 201 538 259 538 c 0
 384 538 441 474 441 365 c 2
 441 121 l 2
228 52 m 0
 285 52 326 81 357 137 c 1
 357 263 l 1
 282 263 l 2
 184 263 132 226 132 151 c 0
 132 87 165 52 228 52 c 0
EndSplineSet
EndChar

StartChar: uni0102
Encoding: 258 258 193
Width: 571
Flags: W
LayerCount: 2
Fore
SplineSet
284 760 m 0
 207 760 147 807 139 877 c 1
 195 889 l 1
 209 850 237 824 284 824 c 0
 331 824 362 850 376 889 c 1
 432 877 l 1
 424 807 363 760 284 760 c 0
471 0 m 1
 418 176 l 1
 150 176 l 1
 96 0 l 1
 8 0 l 1
 231 688 l 1
 341 688 l 1
 563 0 l 1
 471 0 l 1
171 247 m 1
 396 247 l 1
 284 616 l 1
 171 247 l 1
EndSplineSet
EndChar

StartChar: uni0103
Encoding: 259 259 194
Width: 537
Flags: W
LayerCount: 2
Fore
SplineSet
253 645 m 0
 176 645 116 693 108 773 c 1
 164 785 l 1
 178 736 206 710 253 710 c 0
 300 710 331 736 345 785 c 1
 401 773 l 1
 393 693 332 645 253 645 c 0
441 121 m 2
 441 72 457 57 485 47 c 1
 465 -12 l 1
 414 -5 381 16 367 69 c 1
 330 13 274 -12 209 -12 c 0
 105 -12 43 53 43 147 c 0
 43 259 127 319 271 319 c 2
 357 319 l 1
 357 361 l 2
 357 439 320 469 244 469 c 0
 204 469 156 459 102 440 c 1
 81 502 l 1
 144 526 201 538 259 538 c 0
 384 538 441 474 441 365 c 2
 441 121 l 2
228 52 m 0
 285 52 327 81 357 138 c 1
 357 263 l 1
 282 263 l 2
 184 263 132 226 132 151 c 0
 132 87 165 52 228 52 c 0
EndSplineSet
EndChar

StartChar: uni0104
Encoding: 260 260 195
Width: 571
Flags: W
LayerCount: 2
Fore
SplineSet
528 0 m 1
 429 -43 405 -76 405 -115 c 0
 405 -145 421 -164 462 -164 c 0
 483 -164 499 -162 523 -157 c 1
 515 -222 l 1
 495 -226 478 -229 453 -229 c 0
 377 -229 331 -186 331 -130 c 0
 331 -68 375 -21 467 15 c 1
 418 176 l 1
 150 176 l 1
 96 0 l 1
 8 0 l 1
 231 688 l 1
 341 688 l 1
 563 0 l 1
 528 0 l 1
172 247 m 1
 396 247 l 1
 284 616 l 1
 172 247 l 1
EndSplineSet
EndChar

StartChar: uni0105
Encoding: 261 261 196
Width: 537
Flags: W
LayerCount: 2
Fore
SplineSet
466 -12 m 1
 367 -55 343 -88 343 -127 c 0
 343 -157 359 -176 400 -176 c 0
 421 -176 437 -174 461 -169 c 1
 453 -234 l 1
 433 -238 416 -241 391 -241 c 0
 315 -241 269 -198 269 -142 c 0
 269 -78 315 -31 411 5 c 1
 390 18 375 38 367 69 c 1
 331 13 275 -12 209 -12 c 0
 105 -12 43 53 43 147 c 0
 43 259 127 319 271 319 c 2
 357 319 l 1
 357 361 l 2
 357 439 320 469 244 469 c 0
 204 469 156 459 102 440 c 1
 81 502 l 1
 144 526 201 538 259 538 c 0
 384 538 441 474 441 365 c 2
 441 121 l 2
 441 72 457 57 485 47 c 1
 465 -11 l 1
 466 -12 l 1
357 137 m 1
 357 263 l 1
 282 263 l 2
 184 263 132 226 132 151 c 0
 132 87 165 52 228 52 c 0
 285 52 326 81 357 137 c 1
EndSplineSet
EndChar

StartChar: uni0106
Encoding: 262 262 197
Width: 558
Flags: W
LayerCount: 2
Fore
SplineSet
426 906 m 1
 463 834 l 1
 251 756 l 1
 229 801 l 1
 426 906 l 1
342 700 m 0
 427 700 475 676 529 633 c 1
 482 577 l 1
 438 612 397 628 347 628 c 0
 239 628 150 555 150 344 c 0
 150 143 236 62 346 62 c 0
 412 62 454 89 494 119 c 1
 537 64 l 1
 498 25 434 -12 343 -12 c 0
 178 -12 58 113 58 344 c 0
 58 578 186 700 342 700 c 0
EndSplineSet
EndChar

StartChar: uni0107
Encoding: 263 263 198
Width: 476
Flags: W
LayerCount: 2
Fore
SplineSet
366 797 m 1
 404 725 l 1
 196 640 l 1
 170 685 l 1
 366 797 l 1
287 538 m 0
 348 538 397 522 445 482 c 1
 404 429 l 1
 369 455 335 468 290 468 c 0
 204 468 149 401 149 260 c 0
 149 120 204 60 290 60 c 0
 335 60 367 74 406 101 c 1
 445 46 l 1
 400 8 347 -12 287 -12 c 0
 147 -12 59 89 59 259 c 0
 59 427 146 538 287 538 c 0
EndSplineSet
EndChar

StartChar: uni010C
Encoding: 268 268 199
Width: 558
Flags: W
LayerCount: 2
Fore
SplineSet
472 904 m 1
 508 862 l 1
 375 755 l 1
 320 755 l 1
 185 862 l 1
 222 904 l 1
 347 823 l 1
 472 904 l 1
342 700 m 0
 427 700 475 676 529 633 c 1
 482 577 l 1
 438 612 397 628 347 628 c 0
 239 628 150 555 150 344 c 0
 150 143 236 62 346 62 c 0
 412 62 454 89 494 119 c 1
 537 64 l 1
 498 25 434 -12 343 -12 c 0
 178 -12 58 113 58 344 c 0
 58 578 186 700 342 700 c 0
EndSplineSet
EndChar

StartChar: uni010D
Encoding: 269 269 200
Width: 476
Flags: W
LayerCount: 2
Fore
SplineSet
413 781 m 1
 449 740 l 1
 316 628 l 1
 261 628 l 1
 126 740 l 1
 163 781 l 1
 288 697 l 1
 413 781 l 1
287 538 m 0
 348 538 397 522 445 482 c 1
 404 429 l 1
 369 455 335 468 290 468 c 0
 204 468 149 401 149 260 c 0
 149 120 204 60 290 60 c 0
 335 60 367 74 406 101 c 1
 445 46 l 1
 400 8 347 -12 287 -12 c 0
 147 -12 59 89 59 259 c 0
 59 427 146 538 287 538 c 0
EndSplineSet
EndChar

StartChar: uni010E
Encoding: 270 270 201
Width: 641
Flags: W
LayerCount: 2
Fore
SplineSet
427 904 m 1
 463 862 l 1
 330 755 l 1
 275 755 l 1
 140 862 l 1
 177 904 l 1
 302 823 l 1
 427 904 l 1
245 688 m 2
 417 688 584 633 584 348 c 0
 584 66 410 0 263 0 c 2
 103 0 l 1
 103 688 l 1
 245 688 l 2
263 618 m 2
 189 618 l 1
 189 69 l 1
 270 69 l 2
 380 69 491 117 491 348 c 0
 491 585 375 618 263 618 c 2
EndSplineSet
EndChar

StartChar: uni010F
Encoding: 271 271 202
Width: 594
Flags: W
LayerCount: 2
Fore
SplineSet
408 472 m 1
 408 748 l 1
 492 738 l 1
 492 0 l 1
 419 0 l 1
 410 74 l 1
 377 22 324 -12 257 -12 c 0
 130 -12 59 96 59 261 c 0
 59 422 136 538 265 538 c 0
 329 538 374 508 408 472 c 1
565 747 m 1
 641 738 l 1
 594 559 l 1
 545 566 l 1
 565 747 l 1
274 55 m 0
 335 55 373 85 408 138 c 1
 408 400 l 1
 376 443 338 471 283 471 c 0
 201 471 149 402 149 262 c 0
 149 122 195 55 274 55 c 0
EndSplineSet
EndChar

StartChar: uni0110
Encoding: 272 272 203
Width: 651
Flags: W
LayerCount: 2
Fore
SplineSet
255 688 m 2
 427 688 594 633 594 348 c 0
 594 66 421 0 274 0 c 2
 113 0 l 1
 113 320 l 1
 21 320 l 1
 21 385 l 1
 113 385 l 1
 113 688 l 1
 255 688 l 2
280 69 m 2
 390 69 502 117 502 348 c 0
 502 585 385 618 273 618 c 2
 200 618 l 1
 200 385 l 1
 361 385 l 1
 361 320 l 1
 200 320 l 1
 200 69 l 1
 280 69 l 2
EndSplineSet
EndChar

StartChar: uni0111
Encoding: 273 273 204
Width: 601
Flags: W
LayerCount: 2
Fore
SplineSet
492 673 m 1
 576 673 l 1
 576 608 l 1
 492 608 l 1
 492 0 l 1
 419 0 l 1
 410 74 l 1
 377 22 324 -12 257 -12 c 0
 130 -12 59 96 59 261 c 0
 59 422 136 538 265 538 c 0
 329 538 374 508 408 472 c 1
 408 608 l 1
 254 608 l 1
 254 673 l 1
 408 673 l 1
 408 748 l 1
 492 738 l 1
 492 673 l 1
274 55 m 0
 335 55 373 85 408 138 c 1
 408 400 l 1
 376 443 338 471 283 471 c 0
 201 471 149 402 149 262 c 0
 149 122 195 55 274 55 c 0
EndSplineSet
EndChar

StartChar: uni0112
Encoding: 274 274 205
Width: 530
Flags: W
LayerCount: 2
Fore
SplineSet
422 795 m 1
 157 795 l 1
 157 859 l 1
 422 859 l 1
 422 795 l 1
470 688 m 1
 460 618 l 1
 189 618 l 1
 189 386 l 1
 424 386 l 1
 424 316 l 1
 189 316 l 1
 189 70 l 1
 477 70 l 1
 477 0 l 1
 103 0 l 1
 103 688 l 1
 470 688 l 1
EndSplineSet
EndChar

StartChar: uni0113
Encoding: 275 275 206
Width: 542
Flags: W
LayerCount: 2
Fore
SplineSet
410 669 m 1
 145 669 l 1
 145 733 l 1
 410 733 l 1
 410 669 l 1
489 280 m 0
 489 262 488 245 487 234 c 1
 148 234 l 1
 156 107 216 57 295 57 c 0
 348 57 387 72 433 104 c 1
 470 54 l 1
 419 13 361 -12 289 -12 c 0
 144 -12 59 91 59 258 c 0
 59 423 141 538 275 538 c 0
 416 538 489 439 489 280 c 0
406 296 m 1
 406 304 l 2
 406 410 364 471 277 471 c 0
 204 471 155 419 148 296 c 1
 406 296 l 1
EndSplineSet
EndChar

StartChar: uni0116
Encoding: 278 278 207
Width: 530
Flags: W
LayerCount: 2
Fore
SplineSet
289 900 m 0
 325 900 349 875 349 842 c 0
 349 809 325 784 289 784 c 0
 254 784 230 809 230 842 c 0
 230 875 254 900 289 900 c 0
470 688 m 1
 460 618 l 1
 189 618 l 1
 189 386 l 1
 424 386 l 1
 424 316 l 1
 189 316 l 1
 189 70 l 1
 477 70 l 1
 477 0 l 1
 103 0 l 1
 103 688 l 1
 470 688 l 1
EndSplineSet
EndChar

StartChar: uni0117
Encoding: 279 279 208
Width: 542
Flags: W
LayerCount: 2
Fore
SplineSet
277 774 m 0
 313 774 337 749 337 716 c 0
 337 683 313 658 277 658 c 0
 242 658 218 683 218 716 c 0
 218 749 242 774 277 774 c 0
489 280 m 0
 489 262 488 245 487 234 c 1
 148 234 l 1
 156 107 216 57 295 57 c 0
 348 57 387 72 433 104 c 1
 470 54 l 1
 419 13 361 -12 289 -12 c 0
 144 -12 59 91 59 258 c 0
 59 423 141 538 275 538 c 0
 416 538 489 439 489 280 c 0
406 296 m 1
 406 304 l 2
 406 410 364 471 277 471 c 0
 204 471 155 419 148 296 c 1
 406 296 l 1
EndSplineSet
EndChar

StartChar: uni0118
Encoding: 280 280 209
Width: 530
Flags: W
LayerCount: 2
Fore
SplineSet
189 70 m 1
 477 70 l 1
 477 0 l 1
 440 0 l 1
 341 -43 317 -76 317 -115 c 0
 317 -145 333 -164 374 -164 c 0
 395 -164 411 -162 435 -157 c 1
 427 -222 l 1
 407 -226 390 -229 365 -229 c 0
 289 -229 243 -186 243 -130 c 0
 243 -76 276 -34 345 0 c 1
 103 0 l 1
 103 688 l 1
 470 688 l 1
 460 618 l 1
 189 618 l 1
 189 386 l 1
 424 386 l 1
 424 316 l 1
 189 316 l 1
 189 70 l 1
EndSplineSet
EndChar

StartChar: uni0119
Encoding: 281 281 210
Width: 542
Flags: W
LayerCount: 2
Fore
SplineSet
489 280 m 0
 489 262 488 245 487 234 c 1
 148 234 l 1
 156 107 216 57 295 57 c 0
 348 57 387 72 433 104 c 1
 470 54 l 1
 441 31 410 13 376 2 c 0
 285 -39 263 -71 263 -109 c 0
 263 -139 279 -158 321 -158 c 0
 342 -158 358 -156 381 -151 c 1
 373 -216 l 1
 353 -220 336 -223 311 -223 c 0
 235 -223 189 -180 189 -124 c 0
 189 -78 217 -39 271 -11 c 1
 137 -3 59 98 59 258 c 0
 59 423 141 538 275 538 c 0
 416 538 489 439 489 280 c 0
406 296 m 1
 406 304 l 2
 406 410 364 471 277 471 c 0
 204 471 155 419 148 296 c 1
 406 296 l 1
EndSplineSet
EndChar

StartChar: uni011A
Encoding: 282 282 211
Width: 530
Flags: W
LayerCount: 2
Fore
SplineSet
415 904 m 1
 451 862 l 1
 318 755 l 1
 263 755 l 1
 128 862 l 1
 165 904 l 1
 290 823 l 1
 415 904 l 1
470 688 m 1
 460 618 l 1
 189 618 l 1
 189 386 l 1
 424 386 l 1
 424 316 l 1
 189 316 l 1
 189 70 l 1
 477 70 l 1
 477 0 l 1
 103 0 l 1
 103 688 l 1
 470 688 l 1
EndSplineSet
EndChar

StartChar: uni011B
Encoding: 283 283 212
Width: 542
Flags: W
LayerCount: 2
Fore
SplineSet
307 628 m 1
 252 628 l 1
 117 740 l 1
 154 781 l 1
 279 697 l 1
 404 781 l 1
 440 740 l 1
 307 628 l 1
489 280 m 0
 489 262 488 245 487 234 c 1
 148 234 l 1
 157 107 215 57 295 57 c 0
 348 57 387 72 433 104 c 1
 470 54 l 1
 419 13 361 -12 289 -12 c 0
 144 -12 59 91 59 258 c 0
 59 423 141 538 275 538 c 0
 416 538 489 439 489 280 c 0
406 296 m 1
 406 304 l 2
 406 410 364 471 277 471 c 0
 204 471 155 419 148 296 c 1
 406 296 l 1
EndSplineSet
EndChar

StartChar: uni011E
Encoding: 286 286 213
Width: 628
Flags: W
LayerCount: 2
Fore
SplineSet
352 760 m 0
 275 760 215 807 207 877 c 1
 263 889 l 1
 277 850 305 824 352 824 c 0
 399 824 430 850 444 889 c 1
 500 877 l 1
 492 807 431 760 352 760 c 0
353 700 m 0
 442 700 498 674 556 626 c 1
 505 572 l 1
 457 611 415 628 353 628 c 0
 252 628 150 551 150 345 c 0
 150 144 221 60 345 60 c 0
 393 60 439 70 479 92 c 1
 479 308 l 1
 354 308 l 1
 344 379 l 1
 565 379 l 1
 565 48 l 1
 501 11 430 -12 345 -12 c 0
 169 -12 58 107 58 345 c 0
 58 578 197 700 353 700 c 0
EndSplineSet
EndChar

StartChar: uni011F
Encoding: 287 287 214
Width: 517
Flags: W
LayerCount: 2
Fore
SplineSet
256 645 m 0
 179 645 119 693 111 773 c 1
 167 785 l 1
 181 736 209 710 256 710 c 0
 303 710 334 736 348 785 c 1
 404 773 l 1
 396 693 335 645 256 645 c 0
489 582 m 1
 514 505 l 1
 472 492 423 490 362 489 c 1
 423 462 454 418 454 354 c 0
 454 251 380 177 256 177 c 0
 232 177 210 180 189 187 c 1
 171 175 160 156 160 135 c 0
 160 110 176 90 232 90 c 2
 316 90 l 2
 423 90 493 29 493 -53 c 0
 493 -154 412 -211 251 -211 c 0
 82 -211 27 -160 27 -54 c 1
 103 -54 l 1
 103 -117 133 -145 251 -145 c 0
 367 -145 408 -114 408 -59 c 0
 408 -7 367 19 299 19 c 2
 216 19 l 2
 124 19 82 65 82 117 c 0
 82 152 102 185 139 209 c 1
 79 241 51 287 51 356 c 0
 51 463 135 538 251 538 c 0
 384 535 430 555 489 582 c 1
251 477 m 0
 176 477 137 426 137 356 c 0
 137 282 179 233 253 233 c 0
 328 233 368 278 368 356 c 0
 368 434 329 477 251 477 c 0
EndSplineSet
EndChar

StartChar: uni0122
Encoding: 290 290 215
Width: 628
Flags: W
LayerCount: 2
Fore
SplineSet
353 700 m 0
 442 700 498 674 556 626 c 1
 505 572 l 1
 457 611 415 628 353 628 c 0
 252 628 150 551 150 345 c 0
 150 144 221 60 345 60 c 0
 393 60 439 70 479 92 c 1
 479 308 l 1
 354 308 l 1
 344 379 l 1
 565 379 l 1
 565 48 l 1
 501 11 430 -12 345 -12 c 0
 169 -12 58 107 58 345 c 0
 58 578 197 700 353 700 c 0
345 -79 m 0
 376 -79 399 -102 399 -132 c 0
 399 -148 394 -164 374 -206 c 2
 333 -292 l 1
 284 -292 l 1
 314 -176 l 1
 300 -165 290 -150 290 -132 c 0
 290 -102 314 -79 345 -79 c 0
EndSplineSet
EndChar

StartChar: uni0123
Encoding: 291 291 216
Width: 517
Flags: W
LayerCount: 2
Fore
SplineSet
258 584 m 0
 227 584 204 607 204 637 c 0
 204 654 209 669 229 711 c 2
 270 797 l 1
 319 797 l 1
 289 682 l 1
 303 671 313 656 313 637 c 0
 313 607 288 584 258 584 c 0
489 582 m 1
 514 505 l 1
 472 492 423 490 362 489 c 1
 423 462 454 418 454 354 c 0
 454 251 380 177 256 177 c 0
 232 177 210 180 189 187 c 1
 171 175 160 156 160 135 c 0
 160 110 176 90 232 90 c 2
 316 90 l 2
 423 90 493 29 493 -53 c 0
 493 -154 412 -211 251 -211 c 0
 82 -211 27 -160 27 -54 c 1
 103 -54 l 1
 103 -117 133 -145 251 -145 c 0
 367 -145 408 -114 408 -59 c 0
 408 -7 367 19 299 19 c 2
 216 19 l 2
 124 19 82 65 82 117 c 0
 82 152 102 185 139 209 c 1
 79 241 51 287 51 356 c 0
 51 463 135 538 251 538 c 0
 384 535 430 555 489 582 c 1
251 477 m 0
 176 477 137 426 137 356 c 0
 137 282 179 233 253 233 c 0
 328 233 368 278 368 356 c 0
 368 434 329 477 251 477 c 0
EndSplineSet
EndChar

StartChar: uni012A
Encoding: 298 298 217
Width: 292
Flags: W
LayerCount: 2
Fore
SplineSet
277 795 m 1
 12 795 l 1
 12 859 l 1
 277 859 l 1
 277 795 l 1
189 688 m 1
 189 0 l 1
 103 0 l 1
 103 688 l 1
 189 688 l 1
EndSplineSet
EndChar

StartChar: uni012B
Encoding: 299 299 218
Width: 274
Flags: W
LayerCount: 2
Fore
SplineSet
269 669 m 1
 4 669 l 1
 4 733 l 1
 269 733 l 1
 269 669 l 1
179 526 m 1
 179 0 l 1
 95 0 l 1
 95 526 l 1
 179 526 l 1
EndSplineSet
EndChar

StartChar: uni012E
Encoding: 302 302 219
Width: 292
Flags: W
LayerCount: 2
Fore
SplineSet
67 -115 m 0
 67 -145 83 -164 124 -164 c 0
 145 -164 161 -162 185 -157 c 1
 177 -222 l 1
 157 -226 140 -229 115 -229 c 0
 39 -229 -7 -186 -7 -130 c 0
 -7 -74 29 -31 103 4 c 1
 103 688 l 1
 189 688 l 1
 189 2 l 1
 190 0 l 1
 91 -43 67 -76 67 -115 c 0
EndSplineSet
EndChar

StartChar: uni012F
Encoding: 303 303 220
Width: 274
Flags: W
LayerCount: 2
Fore
SplineSet
136 774 m 0
 172 774 196 749 196 716 c 0
 196 683 172 658 136 658 c 0
 101 658 77 683 77 716 c 0
 77 749 101 774 136 774 c 0
95 5 m 1
 95 526 l 1
 179 526 l 1
 179 0 l 1
 80 -43 56 -76 56 -115 c 0
 56 -145 72 -164 113 -164 c 0
 134 -164 150 -162 174 -157 c 1
 166 -222 l 1
 146 -226 129 -229 104 -229 c 0
 28 -229 -18 -186 -18 -130 c 0
 -18 -73 19 -30 95 5 c 1
EndSplineSet
EndChar

StartChar: uni0130
Encoding: 304 304 221
Width: 292
Flags: W
LayerCount: 2
Fore
SplineSet
144 900 m 0
 180 900 204 875 204 842 c 0
 204 809 180 784 144 784 c 0
 109 784 85 809 85 842 c 0
 85 875 109 900 144 900 c 0
189 688 m 1
 189 0 l 1
 103 0 l 1
 103 688 l 1
 189 688 l 1
EndSplineSet
EndChar

StartChar: uni0131
Encoding: 305 305 222
Width: 274
Flags: W
LayerCount: 2
Fore
SplineSet
179 526 m 1
 179 0 l 1
 95 0 l 1
 95 526 l 1
 179 526 l 1
EndSplineSet
EndChar

StartChar: uni0136
Encoding: 310 310 223
Width: 579
Flags: W
LayerCount: 2
Fore
SplineSet
189 688 m 1
 189 0 l 1
 103 0 l 1
 103 688 l 1
 189 688 l 1
561 688 m 1
 294 373 l 1
 579 0 l 1
 472 0 l 1
 194 368 l 1
 462 688 l 1
 561 688 l 1
315 -79 m 0
 346 -79 369 -102 369 -132 c 0
 369 -148 364 -164 344 -206 c 2
 303 -292 l 1
 254 -292 l 1
 284 -176 l 1
 270 -165 260 -150 260 -132 c 0
 260 -102 284 -79 315 -79 c 0
EndSplineSet
EndChar

StartChar: uni0137
Encoding: 311 311 224
Width: 504
Flags: W
LayerCount: 2
Fore
SplineSet
179 748 m 1
 179 0 l 1
 95 0 l 1
 95 738 l 1
 179 748 l 1
480 526 m 1
 280 293 l 1
 502 0 l 1
 401 0 l 1
 185 287 l 1
 385 526 l 1
 480 526 l 1
257 -79 m 0
 288 -79 311 -102 311 -132 c 0
 311 -148 306 -164 286 -206 c 2
 245 -292 l 1
 196 -292 l 1
 226 -176 l 1
 212 -165 202 -150 202 -132 c 0
 202 -102 226 -79 257 -79 c 0
EndSplineSet
EndChar

StartChar: uni0139
Encoding: 313 313 225
Width: 493
Flags: W
LayerCount: 2
Fore
SplineSet
226 906 m 1
 263 834 l 1
 51 756 l 1
 29 801 l 1
 226 906 l 1
189 688 m 1
 189 76 l 1
 473 76 l 1
 463 0 l 1
 103 0 l 1
 103 688 l 1
 189 688 l 1
EndSplineSet
EndChar

StartChar: uni013A
Encoding: 314 314 226
Width: 293
Flags: W
LayerCount: 2
Fore
SplineSet
211 956 m 1
 248 884 l 1
 36 806 l 1
 14 851 l 1
 211 956 l 1
195 -12 m 0
 131 -12 89 27 89 100 c 2
 89 738 l 1
 173 748 l 1
 173 102 l 2
 173 73 183 58 208 58 c 0
 221 58 233 60 243 64 c 1
 265 5 l 1
 246 -5 221 -12 195 -12 c 0
EndSplineSet
EndChar

StartChar: uni013B
Encoding: 315 315 227
Width: 493
Flags: W
LayerCount: 2
Fore
SplineSet
189 688 m 1
 189 76 l 1
 473 76 l 1
 463 0 l 1
 103 0 l 1
 103 688 l 1
 189 688 l 1
286 -79 m 0
 317 -79 340 -102 340 -132 c 0
 340 -148 335 -164 315 -206 c 2
 274 -292 l 1
 225 -292 l 1
 255 -176 l 1
 241 -165 231 -150 231 -132 c 0
 231 -102 255 -79 286 -79 c 0
EndSplineSet
EndChar

StartChar: uni013C
Encoding: 316 316 228
Width: 293
Flags: W
LayerCount: 2
Fore
SplineSet
195 -12 m 0
 131 -12 89 27 89 100 c 2
 89 738 l 1
 173 748 l 1
 173 102 l 2
 173 73 183 58 208 58 c 0
 221 58 233 60 243 64 c 1
 265 5 l 1
 246 -5 221 -12 195 -12 c 0
177 -79 m 0
 208 -79 231 -102 231 -132 c 0
 231 -148 226 -164 206 -206 c 2
 165 -292 l 1
 116 -292 l 1
 146 -176 l 1
 132 -165 122 -150 122 -132 c 0
 122 -102 146 -79 177 -79 c 0
EndSplineSet
EndChar

StartChar: uni013D
Encoding: 317 317 229
Width: 493
Flags: W
LayerCount: 2
Fore
SplineSet
295 509 m 1
 343 688 l 1
 266 697 l 1
 246 516 l 1
 295 509 l 1
189 688 m 1
 189 76 l 1
 473 76 l 1
 463 0 l 1
 103 0 l 1
 103 688 l 1
 189 688 l 1
EndSplineSet
EndChar

StartChar: uni013E
Encoding: 318 318 230
Width: 293
Flags: W
LayerCount: 2
Fore
SplineSet
195 -12 m 0
 131 -12 89 27 89 100 c 2
 89 738 l 1
 173 748 l 1
 173 102 l 2
 173 73 183 58 208 58 c 0
 221 58 233 60 243 64 c 1
 265 5 l 1
 246 -5 221 -12 195 -12 c 0
271 559 m 1
 318 738 l 1
 242 747 l 1
 222 566 l 1
 271 559 l 1
EndSplineSet
EndChar

StartChar: uni0141
Encoding: 321 321 231
Width: 508
Flags: W
LayerCount: 2
Fore
SplineSet
204 76 m 1
 488 76 l 1
 477 0 l 1
 117 0 l 1
 117 263 l 1
 59 227 l 1
 25 282 l 1
 117 339 l 1
 117 688 l 1
 204 688 l 1
 204 393 l 1
 369 495 l 1
 404 440 l 1
 204 317 l 1
 204 76 l 1
EndSplineSet
EndChar

StartChar: uni0142
Encoding: 322 322 232
Width: 309
Flags: W
LayerCount: 2
Fore
SplineSet
214 58 m 0
 227 58 239 60 249 64 c 1
 271 5 l 1
 252 -5 227 -12 201 -12 c 0
 137 -12 95 27 95 100 c 2
 95 303 l 1
 46 273 l 1
 14 327 l 1
 95 378 l 1
 95 738 l 1
 179 748 l 1
 179 429 l 1
 275 487 l 1
 306 432 l 1
 179 354 l 1
 179 102 l 2
 179 73 189 58 214 58 c 0
EndSplineSet
EndChar

StartChar: uni0143
Encoding: 323 323 233
Width: 681
Flags: W
LayerCount: 2
Fore
SplineSet
431 906 m 1
 468 834 l 1
 256 756 l 1
 234 801 l 1
 431 906 l 1
578 688 m 1
 578 0 l 1
 462 0 l 1
 172 593 l 1
 177 538 184 459 184 332 c 2
 184 0 l 1
 103 0 l 1
 103 688 l 1
 216 688 l 1
 508 94 l 1
 506 113 497 218 497 303 c 2
 497 688 l 1
 578 688 l 1
EndSplineSet
EndChar

StartChar: uni0144
Encoding: 324 324 234
Width: 579
Flags: W
LayerCount: 2
Fore
SplineSet
411 725 m 1
 203 640 l 1
 177 685 l 1
 373 797 l 1
 411 725 l 1
339 538 m 0
 436 538 490 477 490 377 c 2
 490 0 l 1
 406 0 l 1
 406 365 l 2
 406 446 374 472 320 472 c 0
 258 472 216 433 179 375 c 1
 179 0 l 1
 95 0 l 1
 95 526 l 1
 167 526 l 1
 174 446 l 1
 212 501 269 538 339 538 c 0
EndSplineSet
EndChar

StartChar: uni0145
Encoding: 325 325 235
Width: 681
Flags: W
LayerCount: 2
Fore
SplineSet
578 688 m 1
 578 0 l 1
 462 0 l 1
 172 593 l 1
 177 538 184 459 184 332 c 2
 184 0 l 1
 103 0 l 1
 103 688 l 1
 216 688 l 1
 508 94 l 1
 506 113 497 218 497 303 c 2
 497 688 l 1
 578 688 l 1
344 -79 m 0
 375 -79 398 -102 398 -132 c 0
 398 -148 393 -164 373 -206 c 2
 332 -292 l 1
 283 -292 l 1
 313 -176 l 1
 299 -165 289 -150 289 -132 c 0
 289 -102 313 -79 344 -79 c 0
EndSplineSet
EndChar

StartChar: uni0146
Encoding: 326 326 236
Width: 579
Flags: W
LayerCount: 2
Fore
SplineSet
339 538 m 0
 436 538 490 477 490 377 c 2
 490 0 l 1
 406 0 l 1
 406 365 l 2
 406 446 374 472 320 472 c 0
 258 472 216 433 179 375 c 1
 179 0 l 1
 95 0 l 1
 95 526 l 1
 167 526 l 1
 174 446 l 1
 212 501 269 538 339 538 c 0
293 -79 m 0
 324 -79 347 -102 347 -132 c 0
 347 -148 342 -164 322 -206 c 2
 281 -292 l 1
 232 -292 l 1
 262 -176 l 1
 248 -165 238 -150 238 -132 c 0
 238 -102 262 -79 293 -79 c 0
EndSplineSet
EndChar

StartChar: uni0147
Encoding: 327 327 237
Width: 681
Flags: W
LayerCount: 2
Fore
SplineSet
476 904 m 1
 512 862 l 1
 379 755 l 1
 324 755 l 1
 189 862 l 1
 226 904 l 1
 351 823 l 1
 476 904 l 1
578 688 m 1
 578 0 l 1
 462 0 l 1
 172 593 l 1
 177 538 184 459 184 332 c 2
 184 0 l 1
 103 0 l 1
 103 688 l 1
 216 688 l 1
 508 94 l 1
 506 113 497 218 497 303 c 2
 497 688 l 1
 578 688 l 1
EndSplineSet
EndChar

StartChar: uni0148
Encoding: 328 328 238
Width: 579
Flags: W
LayerCount: 2
Fore
SplineSet
324 628 m 1
 269 628 l 1
 134 740 l 1
 171 781 l 1
 296 697 l 1
 421 781 l 1
 457 740 l 1
 324 628 l 1
339 538 m 0
 436 538 490 477 490 377 c 2
 490 0 l 1
 406 0 l 1
 406 365 l 2
 406 446 374 472 320 472 c 0
 258 472 216 433 179 375 c 1
 179 0 l 1
 95 0 l 1
 95 526 l 1
 167 526 l 1
 174 446 l 1
 212 501 269 538 339 538 c 0
EndSplineSet
EndChar

StartChar: uni014C
Encoding: 332 332 239
Width: 692
Flags: W
LayerCount: 2
Fore
SplineSet
478 795 m 1
 213 795 l 1
 213 859 l 1
 478 859 l 1
 478 795 l 1
346 700 m 0
 517 700 634 575 634 343 c 0
 634 116 518 -12 346 -12 c 0
 175 -12 58 112 58 342 c 0
 58 569 176 700 346 700 c 0
346 628 m 0
 228 628 150 544 150 342 c 0
 150 142 230 60 346 60 c 0
 466 60 542 142 542 343 c 0
 542 544 467 628 346 628 c 0
EndSplineSet
EndChar

StartChar: uni014D
Encoding: 333 333 240
Width: 581
Flags: W
LayerCount: 2
Fore
SplineSet
422 669 m 1
 157 669 l 1
 157 733 l 1
 422 733 l 1
 422 669 l 1
291 538 m 0
 439 538 522 432 522 264 c 0
 522 99 437 -12 290 -12 c 0
 143 -12 59 95 59 262 c 0
 59 427 144 538 291 538 c 0
291 470 m 0
 201 470 149 403 149 262 c 0
 149 123 199 56 290 56 c 0
 381 56 432 123 432 264 c 0
 432 403 382 470 291 470 c 0
EndSplineSet
EndChar

StartChar: uni0150
Encoding: 336 336 241
Width: 692
Flags: W
LayerCount: 2
Fore
SplineSet
342 919 m 1
 401 878 l 1
 280 733 l 1
 238 759 l 1
 342 919 l 1
489 911 m 1
 547 866 l 1
 417 728 l 1
 378 756 l 1
 489 911 l 1
346 700 m 0
 517 700 634 575 634 343 c 0
 634 116 518 -12 346 -12 c 0
 175 -12 58 112 58 342 c 0
 58 569 176 700 346 700 c 0
346 628 m 0
 228 628 150 544 150 342 c 0
 150 142 230 60 346 60 c 0
 466 60 542 142 542 343 c 0
 542 544 467 628 346 628 c 0
EndSplineSet
EndChar

StartChar: uni0151
Encoding: 337 337 242
Width: 581
Flags: W
LayerCount: 2
Fore
SplineSet
303 794 m 1
 362 752 l 1
 241 597 l 1
 199 623 l 1
 303 794 l 1
450 786 m 1
 508 740 l 1
 378 592 l 1
 339 621 l 1
 450 786 l 1
291 538 m 0
 439 538 522 432 522 264 c 0
 522 99 437 -12 290 -12 c 0
 143 -12 59 95 59 262 c 0
 59 427 144 538 291 538 c 0
291 470 m 0
 201 470 149 403 149 262 c 0
 149 123 199 56 290 56 c 0
 381 56 432 123 432 264 c 0
 432 403 382 470 291 470 c 0
EndSplineSet
EndChar

StartChar: uni0152
Encoding: 338 338 243
Width: 891
Flags: W
LayerCount: 2
Fore
SplineSet
838 70 m 1
 838 0 l 1
 406 0 l 1
 383 -8 358 -12 333 -12 c 0
 175 -12 58 112 58 342 c 0
 58 569 176 700 333 700 c 0
 359 700 385 696 409 688 c 1
 831 688 l 1
 821 618 l 1
 518 618 l 1
 573 567 606 486 613 386 c 1
 785 386 l 1
 785 316 l 1
 613 316 l 1
 608 211 573 125 513 70 c 1
 838 70 l 1
150 342 m 0
 150 142 230 60 336 60 c 0
 446 60 522 142 522 345 c 0
 522 544 447 628 336 628 c 0
 228 628 150 544 150 342 c 0
EndSplineSet
EndChar

StartChar: uni0153
Encoding: 339 339 244
Width: 915
Flags: W
LayerCount: 2
Fore
SplineSet
863 280 m 0
 863 262 862 245 861 234 c 1
 522 234 l 1
 530 107 589 57 669 57 c 0
 722 57 761 72 806 104 c 1
 843 54 l 1
 792 13 735 -12 662 -12 c 0
 573 -12 513 30 475 101 c 1
 438 31 378 -12 290 -12 c 0
 143 -12 59 95 59 262 c 0
 59 427 144 538 291 538 c 0
 381 538 441 497 478 427 c 1
 514 496 571 538 653 538 c 0
 789 538 863 439 863 280 c 0
780 296 m 1
 780 304 l 2
 780 410 737 471 655 471 c 0
 578 471 529 419 522 296 c 1
 780 296 l 1
290 56 m 0
 381 56 432 123 432 264 c 0
 432 403 382 470 291 470 c 0
 201 470 149 403 149 262 c 0
 149 123 199 56 290 56 c 0
EndSplineSet
EndChar

StartChar: uni0154
Encoding: 340 340 245
Width: 601
Flags: W
LayerCount: 2
Fore
SplineSet
414 834 m 1
 202 756 l 1
 180 801 l 1
 377 906 l 1
 414 834 l 1
471 0 m 1
 303 296 l 1
 189 296 l 1
 189 0 l 1
 103 0 l 1
 103 688 l 1
 280 688 l 2
 450 688 538 622 538 495 c 0
 538 397 486 340 388 311 c 1
 574 0 l 1
 471 0 l 1
189 363 m 1
 290 363 l 2
 389 363 446 400 446 495 c 0
 446 582 396 620 279 620 c 2
 189 620 l 1
 189 363 l 1
EndSplineSet
EndChar

StartChar: uni0155
Encoding: 341 341 246
Width: 380
Flags: W
LayerCount: 2
Fore
SplineSet
350 725 m 1
 142 640 l 1
 116 685 l 1
 312 797 l 1
 350 725 l 1
318 538 m 0
 336 538 354 536 370 532 c 1
 354 450 l 1
 339 454 327 456 308 456 c 0
 241 456 202 408 179 305 c 1
 179 0 l 1
 95 0 l 1
 95 526 l 1
 167 526 l 1
 175 416 l 1
 203 497 252 538 318 538 c 0
EndSplineSet
EndChar

StartChar: uni0156
Encoding: 342 342 247
Width: 601
Flags: W
LayerCount: 2
Fore
SplineSet
388 311 m 1
 574 0 l 1
 471 0 l 1
 303 296 l 1
 189 296 l 1
 189 0 l 1
 103 0 l 1
 103 688 l 1
 280 688 l 2
 450 688 538 622 538 495 c 0
 538 397 486 340 388 311 c 1
189 363 m 1
 290 363 l 2
 389 363 446 400 446 495 c 0
 446 582 396 620 279 620 c 2
 189 620 l 1
 189 363 l 1
311 -79 m 0
 342 -79 365 -102 365 -132 c 0
 365 -148 360 -164 340 -206 c 2
 299 -292 l 1
 250 -292 l 1
 280 -176 l 1
 266 -165 256 -150 256 -132 c 0
 256 -102 280 -79 311 -79 c 0
EndSplineSet
EndChar

StartChar: uni0157
Encoding: 343 343 248
Width: 380
Flags: W
LayerCount: 2
Fore
SplineSet
318 538 m 0
 336 538 354 536 370 532 c 1
 354 450 l 1
 339 454 327 456 308 456 c 0
 241 456 202 408 179 305 c 1
 179 0 l 1
 95 0 l 1
 95 526 l 1
 167 526 l 1
 175 416 l 1
 203 497 252 538 318 538 c 0
140 -79 m 0
 171 -79 194 -102 194 -132 c 0
 194 -148 189 -164 169 -206 c 2
 128 -292 l 1
 79 -292 l 1
 109 -176 l 1
 95 -165 85 -150 85 -132 c 0
 85 -102 109 -79 140 -79 c 0
EndSplineSet
EndChar

StartChar: uni0158
Encoding: 344 344 249
Width: 601
Flags: W
LayerCount: 2
Fore
SplineSet
325 755 m 1
 270 755 l 1
 135 862 l 1
 172 904 l 1
 297 823 l 1
 422 904 l 1
 458 862 l 1
 325 755 l 1
471 0 m 1
 303 296 l 1
 189 296 l 1
 189 0 l 1
 103 0 l 1
 103 688 l 1
 280 688 l 2
 450 688 538 622 538 495 c 0
 538 397 486 340 388 311 c 1
 574 0 l 1
 471 0 l 1
189 363 m 1
 290 363 l 2
 389 363 446 400 446 495 c 0
 446 582 396 620 279 620 c 2
 189 620 l 1
 189 363 l 1
EndSplineSet
EndChar

StartChar: uni0159
Encoding: 345 345 250
Width: 380
Flags: W
LayerCount: 2
Fore
SplineSet
262 628 m 1
 207 628 l 1
 72 740 l 1
 109 781 l 1
 234 697 l 1
 359 781 l 1
 395 740 l 1
 262 628 l 1
175 416 m 1
 203 497 252 538 318 538 c 0
 336 538 354 536 370 532 c 1
 354 450 l 1
 339 454 327 456 308 456 c 0
 241 456 202 408 179 305 c 1
 179 0 l 1
 95 0 l 1
 95 526 l 1
 167 526 l 1
 175 416 l 1
EndSplineSet
EndChar

StartChar: uni015A
Encoding: 346 346 251
Width: 544
Flags: W
LayerCount: 2
Fore
SplineSet
355 906 m 1
 392 834 l 1
 180 756 l 1
 158 801 l 1
 355 906 l 1
269 700 m 0
 363 700 422 672 478 621 c 1
 431 568 l 1
 379 610 331 628 273 628 c 0
 200 628 145 593 145 526 c 0
 145 465 174 436 298 398 c 0
 411 364 500 320 500 191 c 0
 500 71 410 -12 259 -12 c 0
 161 -12 85 21 28 76 c 1
 76 130 l 1
 128 87 182 60 258 60 c 0
 342 60 410 103 410 188 c 0
 410 259 376 290 258 326 c 0
 123 367 56 418 56 523 c 0
 56 626 144 700 269 700 c 0
EndSplineSet
EndChar

StartChar: uni015B
Encoding: 347 347 252
Width: 465
Flags: W
LayerCount: 2
Fore
SplineSet
321 797 m 1
 359 725 l 1
 151 640 l 1
 125 685 l 1
 321 797 l 1
236 538 m 0
 309 538 363 516 413 478 c 1
 376 425 l 1
 330 456 289 471 239 471 c 0
 177 471 138 442 138 397 c 0
 138 352 167 332 254 309 c 0
 366 280 427 238 427 146 c 0
 427 39 330 -12 224 -12 c 0
 136 -12 73 17 28 57 c 1
 73 108 l 1
 115 76 163 56 222 56 c 0
 293 56 339 88 339 141 c 0
 339 196 312 216 209 244 c 0
 95 274 50 321 50 395 c 0
 50 478 130 538 236 538 c 0
EndSplineSet
EndChar

StartChar: uni015E
Encoding: 350 350 253
Width: 544
Flags: W
LayerCount: 2
Fore
SplineSet
500 191 m 0
 500 80 423 1 293 -11 c 1
 293 -58 l 1
 361 -64 386 -100 386 -141 c 0
 386 -205 332 -238 266 -238 c 0
 229 -238 198 -229 178 -214 c 1
 201 -166 l 1
 220 -176 238 -182 264 -182 c 0
 292 -182 315 -170 315 -141 c 0
 315 -113 290 -98 226 -98 c 1
 236 -11 l 1
 149 -7 80 25 28 76 c 1
 76 130 l 1
 128 87 182 60 258 60 c 0
 342 60 410 103 410 188 c 0
 410 259 376 290 258 326 c 0
 123 367 56 418 56 523 c 0
 56 626 144 700 269 700 c 0
 363 700 422 672 478 621 c 1
 431 568 l 1
 379 610 331 628 273 628 c 0
 200 628 145 593 145 526 c 0
 145 465 174 436 298 398 c 0
 411 364 500 320 500 191 c 0
EndSplineSet
EndChar

StartChar: uni015F
Encoding: 351 351 254
Width: 465
Flags: W
LayerCount: 2
Fore
SplineSet
427 146 m 0
 427 50 348 -1 255 -11 c 1
 255 -58 l 1
 323 -64 348 -100 348 -141 c 0
 348 -205 294 -238 228 -238 c 0
 191 -238 160 -229 140 -214 c 1
 163 -166 l 1
 182 -176 200 -182 226 -182 c 0
 254 -182 277 -170 277 -141 c 0
 277 -113 252 -98 188 -98 c 1
 198 -11 l 1
 123 -6 68 21 28 57 c 1
 73 108 l 1
 115 76 163 56 222 56 c 0
 293 56 339 88 339 141 c 0
 339 196 312 216 209 244 c 0
 95 274 50 321 50 395 c 0
 50 478 130 538 236 538 c 0
 309 538 363 516 413 478 c 1
 376 425 l 1
 330 456 289 471 239 471 c 0
 177 471 138 442 138 397 c 0
 138 352 167 332 254 309 c 0
 366 280 427 238 427 146 c 0
EndSplineSet
EndChar

StartChar: uni0160
Encoding: 352 352 255
Width: 544
Flags: W
LayerCount: 2
Fore
SplineSet
400 904 m 1
 436 862 l 1
 303 755 l 1
 248 755 l 1
 113 862 l 1
 150 904 l 1
 275 823 l 1
 400 904 l 1
269 700 m 0
 363 700 422 672 478 621 c 1
 431 568 l 1
 379 610 331 628 273 628 c 0
 200 628 145 593 145 526 c 0
 145 465 174 436 298 398 c 0
 411 364 500 320 500 191 c 0
 500 71 410 -12 259 -12 c 0
 161 -12 85 21 28 76 c 1
 76 130 l 1
 128 87 182 60 258 60 c 0
 342 60 410 103 410 188 c 0
 410 259 376 290 258 326 c 0
 123 367 56 418 56 523 c 0
 56 626 144 700 269 700 c 0
EndSplineSet
EndChar

StartChar: uni0161
Encoding: 353 353 256
Width: 465
Flags: W
LayerCount: 2
Fore
SplineSet
368 781 m 1
 404 740 l 1
 271 628 l 1
 216 628 l 1
 81 740 l 1
 118 781 l 1
 243 697 l 1
 368 781 l 1
236 538 m 0
 309 538 363 516 413 478 c 1
 376 425 l 1
 330 456 289 471 239 471 c 0
 177 471 138 442 138 397 c 0
 138 352 167 332 254 309 c 0
 366 280 427 238 427 146 c 0
 427 39 330 -12 224 -12 c 0
 136 -12 73 17 28 57 c 1
 73 108 l 1
 115 76 163 56 222 56 c 0
 293 56 339 88 339 141 c 0
 339 196 312 216 209 244 c 0
 95 274 50 321 50 395 c 0
 50 478 130 538 236 538 c 0
EndSplineSet
EndChar

StartChar: uni0162
Encoding: 354 354 257
Width: 512
Flags: W
LayerCount: 2
Fore
SplineSet
492 614 m 1
 299 614 l 1
 299 16 l 1
 300 16 l 1
 300 -58 l 1
 367 -64 395 -100 395 -141 c 0
 395 -205 339 -238 272 -238 c 0
 236 -238 207 -229 187 -214 c 1
 210 -166 l 1
 229 -176 245 -182 269 -182 c 0
 300 -182 324 -170 324 -141 c 0
 324 -113 299 -98 235 -98 c 1
 246 0 l 1
 213 0 l 1
 213 614 l 1
 15 614 l 1
 15 688 l 1
 502 688 l 1
 492 614 l 1
EndSplineSet
EndChar

StartChar: uni0163
Encoding: 355 355 258
Width: 357
Flags: W
LayerCount: 2
Fore
SplineSet
254 -58 m 1
 322 -64 347 -100 347 -141 c 0
 347 -205 293 -238 227 -238 c 0
 190 -238 159 -229 139 -214 c 1
 162 -166 l 1
 181 -176 199 -182 225 -182 c 0
 253 -182 276 -170 276 -141 c 0
 276 -113 251 -98 187 -98 c 1
 197 -7 l 1
 137 8 102 56 102 135 c 2
 102 461 l 1
 11 461 l 1
 11 526 l 1
 102 526 l 1
 102 647 l 1
 186 656 l 1
 186 526 l 1
 313 526 l 1
 304 461 l 1
 186 461 l 1
 186 139 l 2
 186 84 205 58 252 58 c 0
 277 58 299 65 325 80 c 1
 357 23 l 1
 326 2 293 -9 254 -12 c 1
 254 -58 l 1
EndSplineSet
EndChar

StartChar: uni0164
Encoding: 356 356 259
Width: 512
Flags: W
LayerCount: 2
Fore
SplineSet
382 904 m 1
 418 862 l 1
 285 755 l 1
 230 755 l 1
 95 862 l 1
 132 904 l 1
 257 823 l 1
 382 904 l 1
502 688 m 1
 492 614 l 1
 299 614 l 1
 299 0 l 1
 213 0 l 1
 213 614 l 1
 15 614 l 1
 15 688 l 1
 502 688 l 1
EndSplineSet
EndChar

StartChar: uni0165
Encoding: 357 357 260
Width: 357
Flags: W
LayerCount: 2
Fore
SplineSet
317 746 m 1
 270 567 l 1
 221 574 l 1
 241 755 l 1
 317 746 l 1
325 80 m 1
 357 23 l 1
 323 0 285 -12 241 -12 c 0
 154 -12 102 39 102 135 c 2
 102 461 l 1
 11 461 l 1
 11 526 l 1
 102 526 l 1
 102 647 l 1
 186 656 l 1
 186 526 l 1
 313 526 l 1
 304 461 l 1
 186 461 l 1
 186 139 l 2
 186 84 205 58 252 58 c 0
 277 58 299 65 325 80 c 1
EndSplineSet
EndChar

StartChar: uni016A
Encoding: 362 362 261
Width: 660
Flags: W
LayerCount: 2
Fore
SplineSet
462 795 m 1
 197 795 l 1
 197 859 l 1
 462 859 l 1
 462 795 l 1
567 688 m 1
 567 219 l 2
 567 84 483 -12 329 -12 c 0
 173 -12 93 84 93 219 c 2
 93 688 l 1
 179 688 l 1
 179 226 l 2
 179 118 227 62 329 62 c 0
 432 62 479 118 479 226 c 2
 479 688 l 1
 567 688 l 1
EndSplineSet
EndChar

StartChar: uni016B
Encoding: 363 363 262
Width: 575
Flags: W
LayerCount: 2
Fore
SplineSet
417 669 m 1
 152 669 l 1
 152 733 l 1
 417 733 l 1
 417 669 l 1
480 526 m 1
 480 0 l 1
 408 0 l 1
 402 85 l 1
 363 21 313 -12 236 -12 c 0
 144 -12 89 46 89 149 c 2
 89 526 l 1
 173 526 l 1
 173 158 l 2
 173 83 200 55 259 55 c 0
 319 55 363 94 396 149 c 1
 396 526 l 1
 480 526 l 1
EndSplineSet
EndChar

StartChar: uni016E
Encoding: 366 366 263
Width: 660
Flags: W
LayerCount: 2
Fore
SplineSet
329 958 m 0
 394 958 440 913 440 855 c 0
 440 797 394 752 329 752 c 0
 264 752 219 797 219 855 c 0
 219 913 264 958 329 958 c 0
329 912 m 0
 296 912 276 891 276 855 c 0
 276 820 296 799 329 799 c 0
 362 799 383 820 383 855 c 0
 383 891 363 912 329 912 c 0
567 688 m 1
 567 219 l 2
 567 84 483 -12 329 -12 c 0
 173 -12 93 84 93 219 c 2
 93 688 l 1
 179 688 l 1
 179 226 l 2
 179 118 227 62 329 62 c 0
 432 62 479 118 479 226 c 2
 479 688 l 1
 567 688 l 1
EndSplineSet
EndChar

StartChar: uni016F
Encoding: 367 367 264
Width: 575
Flags: W
LayerCount: 2
Fore
SplineSet
285 832 m 0
 350 832 396 787 396 729 c 0
 396 671 350 626 285 626 c 0
 220 626 175 671 175 729 c 0
 175 787 220 832 285 832 c 0
285 786 m 0
 252 786 232 765 232 729 c 0
 232 694 252 673 285 673 c 0
 318 673 339 694 339 729 c 0
 339 765 319 786 285 786 c 0
480 526 m 1
 480 0 l 1
 408 0 l 1
 402 85 l 1
 363 21 313 -12 236 -12 c 0
 144 -12 89 46 89 149 c 2
 89 526 l 1
 173 526 l 1
 173 158 l 2
 173 83 200 55 259 55 c 0
 319 55 363 94 396 149 c 1
 396 526 l 1
 480 526 l 1
EndSplineSet
EndChar

StartChar: uni0170
Encoding: 368 368 265
Width: 660
Flags: W
LayerCount: 2
Fore
SplineSet
326 919 m 1
 385 878 l 1
 264 733 l 1
 222 759 l 1
 326 919 l 1
473 911 m 1
 531 866 l 1
 401 728 l 1
 362 756 l 1
 473 911 l 1
567 688 m 1
 567 219 l 2
 567 84 483 -12 329 -12 c 0
 173 -12 93 84 93 219 c 2
 93 688 l 1
 179 688 l 1
 179 226 l 2
 179 118 227 62 329 62 c 0
 432 62 479 118 479 226 c 2
 479 688 l 1
 567 688 l 1
EndSplineSet
EndChar

StartChar: uni0171
Encoding: 369 369 266
Width: 575
Flags: W
LayerCount: 2
Fore
SplineSet
298 794 m 1
 357 752 l 1
 236 597 l 1
 194 623 l 1
 298 794 l 1
445 786 m 1
 503 740 l 1
 373 592 l 1
 334 621 l 1
 445 786 l 1
480 526 m 1
 480 0 l 1
 408 0 l 1
 402 85 l 1
 363 21 313 -12 236 -12 c 0
 144 -12 89 46 89 149 c 2
 89 526 l 1
 173 526 l 1
 173 158 l 2
 173 83 200 55 259 55 c 0
 319 55 363 94 396 149 c 1
 396 526 l 1
 480 526 l 1
EndSplineSet
EndChar

StartChar: uni0172
Encoding: 370 370 267
Width: 660
Flags: W
LayerCount: 2
Fore
SplineSet
479 688 m 1
 567 688 l 1
 567 219 l 2
 567 111 513 28 413 -1 c 1
 316 -43 292 -76 292 -115 c 0
 292 -145 308 -164 350 -164 c 0
 371 -164 387 -162 410 -157 c 1
 402 -222 l 1
 382 -226 365 -229 340 -229 c 0
 264 -229 218 -186 218 -130 c 0
 218 -80 250 -40 312 -12 c 1
 167 -5 93 89 93 219 c 2
 93 688 l 1
 179 688 l 1
 179 226 l 2
 179 118 227 62 329 62 c 0
 432 62 479 118 479 226 c 2
 479 688 l 1
EndSplineSet
EndChar

StartChar: uni0173
Encoding: 371 371 268
Width: 575
Flags: W
LayerCount: 2
Fore
SplineSet
358 -115 m 0
 358 -145 374 -164 415 -164 c 0
 436 -164 452 -162 476 -157 c 1
 468 -222 l 1
 448 -226 431 -229 406 -229 c 0
 330 -229 284 -186 284 -130 c 0
 284 -71 324 -26 407 10 c 1
 402 85 l 1
 363 21 313 -12 236 -12 c 0
 144 -12 89 46 89 149 c 2
 89 526 l 1
 173 526 l 1
 173 158 l 2
 173 83 200 55 259 55 c 0
 319 55 363 94 396 149 c 1
 396 526 l 1
 480 526 l 1
 480 2 l 1
 481 0 l 1
 382 -43 358 -76 358 -115 c 0
EndSplineSet
EndChar

StartChar: uni0178
Encoding: 376 376 269
Width: 544
Flags: W
LayerCount: 2
Fore
SplineSet
169 888 m 0
 199 888 222 865 222 835 c 0
 222 805 199 782 169 782 c 0
 138 782 115 805 115 835 c 0
 115 865 138 888 169 888 c 0
373 888 m 0
 404 888 427 865 427 835 c 0
 427 805 404 782 373 782 c 0
 343 782 320 805 320 835 c 0
 320 865 343 888 373 888 c 0
537 688 m 1
 316 266 l 1
 316 0 l 1
 228 0 l 1
 228 265 l 1
 7 688 l 1
 103 688 l 1
 275 342 l 1
 446 688 l 1
 537 688 l 1
EndSplineSet
EndChar

StartChar: uni0179
Encoding: 377 377 270
Width: 521
Flags: W
LayerCount: 2
Fore
SplineSet
350 906 m 1
 387 834 l 1
 175 756 l 1
 153 801 l 1
 350 906 l 1
475 688 m 1
 475 618 l 1
 128 74 l 1
 473 74 l 1
 463 0 l 1
 31 0 l 1
 31 70 l 1
 381 615 l 1
 68 615 l 1
 68 688 l 1
 475 688 l 1
EndSplineSet
EndChar

StartChar: uni017A
Encoding: 378 378 271
Width: 429
Flags: W
LayerCount: 2
Fore
SplineSet
296 797 m 1
 334 725 l 1
 126 640 l 1
 100 685 l 1
 296 797 l 1
400 526 m 1
 400 462 l 1
 121 71 l 1
 402 71 l 1
 392 0 l 1
 26 0 l 1
 26 63 l 1
 304 455 l 1
 49 455 l 1
 49 526 l 1
 400 526 l 1
EndSplineSet
EndChar

StartChar: uni017B
Encoding: 379 379 272
Width: 521
Flags: W
LayerCount: 2
Fore
SplineSet
269 900 m 0
 305 900 329 875 329 842 c 0
 329 809 305 784 269 784 c 0
 234 784 210 809 210 842 c 0
 210 875 234 900 269 900 c 0
475 688 m 1
 475 618 l 1
 128 74 l 1
 473 74 l 1
 463 0 l 1
 31 0 l 1
 31 70 l 1
 381 615 l 1
 68 615 l 1
 68 688 l 1
 475 688 l 1
EndSplineSet
EndChar

StartChar: uni017C
Encoding: 380 380 273
Width: 429
Flags: W
LayerCount: 2
Fore
SplineSet
217 774 m 0
 253 774 277 749 277 716 c 0
 277 683 253 658 217 658 c 0
 182 658 158 683 158 716 c 0
 158 749 182 774 217 774 c 0
400 526 m 1
 400 462 l 1
 121 71 l 1
 402 71 l 1
 392 0 l 1
 26 0 l 1
 26 63 l 1
 304 455 l 1
 49 455 l 1
 49 526 l 1
 400 526 l 1
EndSplineSet
EndChar

StartChar: uni017D
Encoding: 381 381 274
Width: 521
Flags: W
LayerCount: 2
Fore
SplineSet
395 904 m 1
 431 862 l 1
 298 755 l 1
 243 755 l 1
 108 862 l 1
 145 904 l 1
 270 823 l 1
 395 904 l 1
475 688 m 1
 475 618 l 1
 128 74 l 1
 473 74 l 1
 463 0 l 1
 31 0 l 1
 31 70 l 1
 381 615 l 1
 68 615 l 1
 68 688 l 1
 475 688 l 1
EndSplineSet
EndChar

StartChar: uni017E
Encoding: 382 382 275
Width: 429
Flags: W
LayerCount: 2
Fore
SplineSet
344 781 m 1
 380 740 l 1
 247 628 l 1
 192 628 l 1
 57 740 l 1
 94 781 l 1
 219 697 l 1
 344 781 l 1
400 526 m 1
 400 462 l 1
 121 71 l 1
 402 71 l 1
 392 0 l 1
 26 0 l 1
 26 63 l 1
 304 455 l 1
 49 455 l 1
 49 526 l 1
 400 526 l 1
EndSplineSet
EndChar

StartChar: uni0192
Encoding: 402 402 276
Width: 337
Flags: W
LayerCount: 2
Fore
SplineSet
276 680 m 0
 217 680 195 655 195 602 c 2
 195 526 l 1
 325 526 l 1
 316 461 l 1
 195 461 l 1
 195 29 l 2
 195 -118 142 -161 34 -210 c 1
 10 -149 l 1
 79 -116 111 -90 111 24 c 2
 111 461 l 1
 26 461 l 1
 26 526 l 1
 111 526 l 1
 111 601 l 2
 111 688 168 748 271 748 c 0
 320 748 355 739 396 721 c 1
 369 660 l 1
 335 675 304 680 276 680 c 0
EndSplineSet
EndChar

StartChar: uni0218
Encoding: 536 536 277
Width: 544
Flags: W
LayerCount: 2
Fore
SplineSet
269 700 m 0
 363 700 422 672 478 621 c 1
 431 568 l 1
 379 610 331 628 273 628 c 0
 200 628 145 593 145 526 c 0
 145 465 174 436 298 398 c 0
 411 364 500 320 500 191 c 0
 500 71 410 -12 259 -12 c 0
 161 -12 85 21 28 76 c 1
 76 130 l 1
 128 87 182 60 258 60 c 0
 342 60 410 103 410 188 c 0
 410 259 376 290 258 326 c 0
 123 367 56 418 56 523 c 0
 56 626 144 700 269 700 c 0
269 -79 m 0
 300 -79 323 -102 323 -132 c 0
 323 -148 318 -164 298 -206 c 2
 257 -292 l 1
 208 -292 l 1
 238 -176 l 1
 224 -165 214 -150 214 -132 c 0
 214 -102 238 -79 269 -79 c 0
EndSplineSet
EndChar

StartChar: uni0219
Encoding: 537 537 278
Width: 465
Flags: W
LayerCount: 2
Fore
SplineSet
236 538 m 0
 309 538 363 516 413 478 c 1
 376 425 l 1
 330 456 289 471 239 471 c 0
 177 471 138 442 138 397 c 0
 138 352 167 332 254 309 c 0
 366 280 427 238 427 146 c 0
 427 39 330 -12 224 -12 c 0
 136 -12 73 17 28 57 c 1
 73 108 l 1
 115 76 163 56 222 56 c 0
 293 56 339 88 339 141 c 0
 339 196 312 216 209 244 c 0
 95 274 50 321 50 395 c 0
 50 478 130 538 236 538 c 0
236 -79 m 0
 267 -79 290 -102 290 -132 c 0
 290 -148 285 -164 265 -206 c 2
 224 -292 l 1
 175 -292 l 1
 205 -176 l 1
 191 -165 181 -150 181 -132 c 0
 181 -102 205 -79 236 -79 c 0
EndSplineSet
EndChar

StartChar: uni021A
Encoding: 538 538 279
Width: 512
Flags: W
LayerCount: 2
Fore
SplineSet
502 688 m 1
 492 614 l 1
 299 614 l 1
 299 0 l 1
 213 0 l 1
 213 614 l 1
 15 614 l 1
 15 688 l 1
 502 688 l 1
259 -79 m 0
 290 -79 313 -102 313 -132 c 0
 313 -148 308 -164 288 -206 c 2
 247 -292 l 1
 198 -292 l 1
 228 -176 l 1
 214 -165 204 -150 204 -132 c 0
 204 -102 228 -79 259 -79 c 0
EndSplineSet
EndChar

StartChar: uni021B
Encoding: 539 539 280
Width: 357
Flags: W
LayerCount: 2
Fore
SplineSet
357 23 m 1
 323 0 285 -12 241 -12 c 0
 154 -12 102 39 102 135 c 2
 102 461 l 1
 11 461 l 1
 11 526 l 1
 102 526 l 1
 102 647 l 1
 186 656 l 1
 186 526 l 1
 313 526 l 1
 304 461 l 1
 186 461 l 1
 186 139 l 2
 186 84 205 58 252 58 c 0
 277 58 299 65 325 80 c 1
 357 23 l 1
235 -79 m 0
 266 -79 289 -102 289 -132 c 0
 289 -148 284 -164 264 -206 c 2
 223 -292 l 1
 174 -292 l 1
 204 -176 l 1
 190 -165 180 -150 180 -132 c 0
 180 -102 204 -79 235 -79 c 0
EndSplineSet
EndChar

StartChar: uni0237
Encoding: 567 567 281
Width: 275
Flags: W
LayerCount: 2
Fore
SplineSet
180 526 m 1
 180 29 l 2
 180 -118 127 -161 19 -210 c 1
 -5 -149 l 1
 64 -116 96 -90 96 24 c 2
 96 526 l 1
 180 526 l 1
EndSplineSet
EndChar

StartChar: uni0300
Encoding: 768 768 282
Width: 0
Flags: W
LayerCount: 2
Fore
SplineSet
-226 797 m 1
 -30 685 l 1
 -56 640 l 1
 -264 725 l 1
 -226 797 l 1
EndSplineSet
EndChar

StartChar: uni0301
Encoding: 769 769 283
Width: 0
Flags: W
LayerCount: 2
Fore
SplineSet
-68 797 m 1
 -30 725 l 1
 -238 640 l 1
 -264 685 l 1
 -68 797 l 1
EndSplineSet
EndChar

StartChar: uni0302
Encoding: 770 770 284
Width: 0
Flags: W
LayerCount: 2
Fore
SplineSet
-317 636 m 1
 -353 678 l 1
 -219 789 l 1
 -164 789 l 1
 -30 678 l 1
 -66 636 l 1
 -191 720 l 1
 -317 636 l 1
EndSplineSet
EndChar

StartChar: uni0303
Encoding: 771 771 285
Width: 0
Flags: W
LayerCount: 2
Fore
SplineSet
-135 658 m 0
 -163 658 -185 671 -203 684 c 0
 -219 696 -234 706 -251 706 c 0
 -274 706 -288 691 -305 661 c 1
 -356 687 l 1
 -333 734 -299 770 -251 770 c 0
 -222 770 -202 758 -183 744 c 0
 -167 733 -152 723 -135 723 c 0
 -115 723 -100 737 -81 767 c 1
 -30 741 l 1
 -55 686 -92 658 -135 658 c 0
EndSplineSet
EndChar

StartChar: uni0304
Encoding: 772 772 286
Width: 0
Flags: W
LayerCount: 2
Fore
SplineSet
-30 669 m 1
 -295 669 l 1
 -295 733 l 1
 -30 733 l 1
 -30 669 l 1
EndSplineSet
EndChar

StartChar: uni0305
Encoding: 773 773 287
Width: 0
Flags: W
LayerCount: 2
Fore
SplineSet
-30 669 m 1
 -448 669 l 1
 -448 721 l 1
 -30 721 l 1
 -30 669 l 1
EndSplineSet
EndChar

StartChar: uni0306
Encoding: 774 774 288
Width: 0
Flags: W
LayerCount: 2
Fore
SplineSet
-178 645 m 0
 -255 645 -315 693 -323 773 c 1
 -267 785 l 1
 -253 736 -225 710 -178 710 c 0
 -131 710 -100 736 -86 785 c 1
 -30 773 l 1
 -38 693 -99 645 -178 645 c 0
EndSplineSet
EndChar

StartChar: uni0307
Encoding: 775 775 289
Width: 0
Flags: W
LayerCount: 2
Fore
SplineSet
-90 774 m 0
 -54 774 -30 749 -30 716 c 0
 -30 683 -54 658 -90 658 c 0
 -125 658 -149 683 -149 716 c 0
 -149 749 -125 774 -90 774 c 0
EndSplineSet
EndChar

StartChar: uni0308
Encoding: 776 776 290
Width: 0
Flags: W
LayerCount: 2
Fore
SplineSet
-288 762 m 0
 -258 762 -235 739 -235 709 c 0
 -235 679 -258 656 -288 656 c 0
 -319 656 -342 679 -342 709 c 0
 -342 739 -319 762 -288 762 c 0
-84 762 m 0
 -53 762 -30 739 -30 709 c 0
 -30 679 -53 656 -84 656 c 0
 -114 656 -137 679 -137 709 c 0
 -137 739 -114 762 -84 762 c 0
EndSplineSet
EndChar

StartChar: uni0309
Encoding: 777 777 291
Width: 0
Flags: W
LayerCount: 2
Fore
SplineSet
-173 612 m 1
 -173 704 l 1
 -129 709 -103 716 -103 748 c 0
 -103 773 -121 785 -147 785 c 0
 -170 785 -186 780 -204 772 c 1
 -225 819 l 1
 -201 833 -173 842 -134 842 c 0
 -68 842 -30 808 -30 754 c 0
 -30 705 -60 678 -109 670 c 1
 -109 612 l 1
 -173 612 l 1
EndSplineSet
EndChar

StartChar: uni030A
Encoding: 778 778 292
Width: 0
Flags: W
LayerCount: 2
Fore
SplineSet
-141 832 m 0
 -76 832 -30 787 -30 729 c 0
 -30 671 -76 626 -141 626 c 0
 -206 626 -251 671 -251 729 c 0
 -251 787 -206 832 -141 832 c 0
-141 786 m 0
 -174 786 -194 765 -194 729 c 0
 -194 694 -174 673 -141 673 c 0
 -108 673 -87 694 -87 729 c 0
 -87 765 -107 786 -141 786 c 0
EndSplineSet
EndChar

StartChar: uni030B
Encoding: 779 779 293
Width: 0
Flags: W
LayerCount: 2
Fore
SplineSet
-235 794 m 1
 -176 752 l 1
 -297 597 l 1
 -339 623 l 1
 -235 794 l 1
-88 786 m 1
 -30 740 l 1
 -160 592 l 1
 -199 621 l 1
 -88 786 l 1
EndSplineSet
EndChar

StartChar: uni030C
Encoding: 780 780 294
Width: 0
Flags: W
LayerCount: 2
Fore
SplineSet
-66 781 m 1
 -30 740 l 1
 -163 628 l 1
 -218 628 l 1
 -353 740 l 1
 -316 781 l 1
 -191 697 l 1
 -66 781 l 1
EndSplineSet
EndChar

StartChar: uni030D
Encoding: 781 781 295
Width: 0
Flags: W
LayerCount: 2
Fore
SplineSet
-110 628 m 1
 -110 856 l 1
 -30 856 l 1
 -30 628 l 1
 -110 628 l 1
EndSplineSet
EndChar

StartChar: uni030F
Encoding: 783 783 296
Width: 0
Flags: W
LayerCount: 2
Fore
SplineSet
-251 827 m 1
 -167 659 l 1
 -220 636 l 1
 -323 789 l 1
 -251 827 l 1
-104 827 m 1
 -30 664 l 1
 -83 641 l 1
 -176 789 l 1
 -104 827 l 1
EndSplineSet
EndChar

StartChar: uni0311
Encoding: 785 785 297
Width: 0
Flags: W
LayerCount: 2
Fore
SplineSet
-178 756 m 0
 -99 756 -38 708 -30 628 c 1
 -86 616 l 1
 -100 665 -131 691 -178 691 c 0
 -225 691 -253 665 -267 616 c 1
 -323 628 l 1
 -315 708 -255 756 -178 756 c 0
EndSplineSet
EndChar

StartChar: uni0312
Encoding: 786 786 298
Width: 0
Flags: W
LayerCount: 2
Fore
SplineSet
-91 584 m 0
 -122 584 -145 607 -145 637 c 0
 -145 654 -140 669 -120 711 c 2
 -79 797 l 1
 -30 797 l 1
 -60 682 l 1
 -46 671 -36 656 -36 637 c 0
 -36 607 -61 584 -91 584 c 0
EndSplineSet
EndChar

StartChar: uni0313
Encoding: 787 787 299
Width: 0
Flags: W
LayerCount: 2
Fore
SplineSet
-84 797 m 0
 -53 797 -30 775 -30 745 c 0
 -30 728 -35 713 -55 670 c 2
 -96 584 l 1
 -145 584 l 1
 -115 700 l 1
 -129 711 -139 726 -139 745 c 0
 -139 775 -115 797 -84 797 c 0
EndSplineSet
EndChar

StartChar: uni0316
Encoding: 790 790 300
Width: 0
Flags: W
LayerCount: 2
Fore
SplineSet
-228 -51 m 1
 -30 -155 l 1
 -52 -200 l 1
 -264 -122 l 1
 -228 -51 l 1
EndSplineSet
EndChar

StartChar: uni0317
Encoding: 791 791 301
Width: 0
Flags: W
LayerCount: 2
Fore
SplineSet
-67 -51 m 1
 -30 -122 l 1
 -242 -200 l 1
 -264 -155 l 1
 -67 -51 l 1
EndSplineSet
EndChar

StartChar: uni0318
Encoding: 792 792 302
Width: 0
Flags: W
LayerCount: 2
Fore
SplineSet
-89 -64 m 1
 -30 -64 l 1
 -30 -350 l 1
 -89 -350 l 1
 -89 -234 l 1
 -228 -234 l 1
 -228 -181 l 1
 -89 -181 l 1
 -89 -64 l 1
EndSplineSet
EndChar

StartChar: uni0319
Encoding: 793 793 303
Width: 0
Flags: W
LayerCount: 2
Fore
SplineSet
-169 -64 m 1
 -169 -181 l 1
 -31 -181 l 1
 -31 -234 l 1
 -169 -234 l 1
 -169 -350 l 1
 -229 -350 l 1
 -229 -64 l 1
 -169 -64 l 1
EndSplineSet
EndChar

StartChar: uni031A
Encoding: 794 794 304
Width: 0
Flags: W
LayerCount: 2
Fore
SplineSet
-209 775 m 1
 -30 775 l 1
 -30 594 l 1
 -89 594 l 1
 -89 720 l 1
 -209 720 l 1
 -209 775 l 1
EndSplineSet
EndChar

StartChar: uni031B
Encoding: 795 795 305
Width: 0
Flags: W
LayerCount: 2
Fore
SplineSet
-149 420 m 1
 -159 470 l 1
 -119 475 -101 490 -101 520 c 0
 -101 554 -107 572 -115 592 c 1
 -49 607 l 1
 -38 588 -30 561 -30 525 c 0
 -30 458 -72 423 -149 420 c 1
EndSplineSet
EndChar

StartChar: uni031C
Encoding: 796 796 306
Width: 0
Flags: W
LayerCount: 2
Fore
SplineSet
-30 -271 m 1
 -30 -224 l 1
 -63 -224 -83 -203 -83 -168 c 0
 -83 -132 -63 -111 -30 -111 c 1
 -30 -64 l 1
 -95 -64 -140 -110 -140 -168 c 0
 -140 -226 -95 -271 -30 -271 c 1
EndSplineSet
EndChar

StartChar: uni031D
Encoding: 797 797 307
Width: 0
Flags: W
LayerCount: 2
Fore
SplineSet
-30 -251 m 1
 -30 -306 l 1
 -326 -306 l 1
 -326 -251 l 1
 -208 -251 l 1
 -208 -94 l 1
 -149 -94 l 1
 -149 -251 l 1
 -30 -251 l 1
EndSplineSet
EndChar

StartChar: uni031E
Encoding: 798 798 308
Width: 0
Flags: W
LayerCount: 2
Fore
SplineSet
-30 -149 m 1
 -149 -149 l 1
 -149 -306 l 1
 -208 -306 l 1
 -208 -149 l 1
 -326 -149 l 1
 -326 -94 l 1
 -30 -94 l 1
 -30 -149 l 1
EndSplineSet
EndChar

StartChar: uni031F
Encoding: 799 799 309
Width: 0
Flags: W
LayerCount: 2
Fore
SplineSet
-123 -83 m 1
 -123 -172 l 1
 -30 -172 l 1
 -30 -232 l 1
 -123 -232 l 1
 -123 -320 l 1
 -188 -320 l 1
 -188 -232 l 1
 -280 -232 l 1
 -280 -172 l 1
 -188 -172 l 1
 -188 -83 l 1
 -123 -83 l 1
EndSplineSet
EndChar

StartChar: uni0320
Encoding: 800 800 310
Width: 0
Flags: W
LayerCount: 2
Fore
SplineSet
-280 -232 m 1
 -280 -172 l 1
 -31 -172 l 1
 -31 -232 l 1
 -280 -232 l 1
EndSplineSet
EndChar

StartChar: uni0321
Encoding: 801 801 311
Width: 0
Flags: W
LayerCount: 2
Fore
SplineSet
-175 -211 m 0
 -227 -211 -263 -193 -287 -174 c 1
 -254 -121 l 1
 -231 -134 -213 -143 -179 -143 c 0
 -140 -143 -114 -122 -114 -67 c 2
 -114 1 l 1
 -30 1 l 1
 -30 -60 l 2
 -30 -160 -88 -211 -175 -211 c 0
EndSplineSet
EndChar

StartChar: uni0323
Encoding: 803 803 312
Width: 0
Flags: W
LayerCount: 2
Fore
SplineSet
-89 -192 m 0
 -125 -192 -149 -167 -149 -134 c 0
 -149 -102 -125 -77 -89 -77 c 0
 -54 -77 -30 -102 -30 -134 c 0
 -30 -167 -54 -192 -89 -192 c 0
EndSplineSet
EndChar

StartChar: uni0324
Encoding: 804 804 313
Width: 0
Flags: W
LayerCount: 2
Fore
SplineSet
-288 -80 m 0
 -258 -80 -235 -104 -235 -133 c 0
 -235 -163 -258 -186 -288 -186 c 0
 -319 -186 -342 -163 -342 -133 c 0
 -342 -104 -319 -80 -288 -80 c 0
-84 -80 m 0
 -53 -80 -30 -104 -30 -133 c 0
 -30 -163 -53 -186 -84 -186 c 0
 -114 -186 -137 -163 -137 -133 c 0
 -137 -104 -114 -80 -84 -80 c 0
EndSplineSet
EndChar

StartChar: uni0325
Encoding: 805 805 314
Width: 0
Flags: W
LayerCount: 2
Fore
SplineSet
-141 -64 m 0
 -76 -64 -30 -110 -30 -168 c 0
 -30 -226 -76 -271 -141 -271 c 0
 -206 -271 -251 -226 -251 -168 c 0
 -251 -110 -206 -64 -141 -64 c 0
-141 -111 m 0
 -174 -111 -194 -132 -194 -168 c 0
 -194 -203 -174 -224 -141 -224 c 0
 -108 -224 -87 -203 -87 -168 c 0
 -87 -132 -107 -111 -141 -111 c 0
EndSplineSet
EndChar

StartChar: uni0326
Encoding: 806 806 315
Width: 0
Flags: W
LayerCount: 2
Fore
SplineSet
-84 -79 m 0
 -53 -79 -30 -102 -30 -132 c 0
 -30 -148 -35 -164 -55 -206 c 2
 -96 -292 l 1
 -145 -292 l 1
 -115 -176 l 1
 -129 -165 -139 -150 -139 -132 c 0
 -139 -102 -115 -79 -84 -79 c 0
EndSplineSet
EndChar

StartChar: uni0327
Encoding: 807 807 316
Width: 0
Flags: W
LayerCount: 2
Fore
SplineSet
-123 16 m 1
 -123 -58 l 1
 -55 -64 -30 -100 -30 -141 c 0
 -30 -205 -84 -238 -150 -238 c 0
 -187 -238 -218 -229 -238 -214 c 1
 -215 -166 l 1
 -196 -176 -178 -182 -152 -182 c 0
 -124 -182 -101 -170 -101 -141 c 0
 -101 -113 -126 -98 -190 -98 c 1
 -177 16 l 1
 -123 16 l 1
EndSplineSet
EndChar

StartChar: uni0328
Encoding: 808 808 317
Width: 0
Flags: W
LayerCount: 2
Fore
SplineSet
-44 31 m 1
 -30 0 l 1
 -129 -43 -153 -76 -153 -115 c 0
 -153 -145 -137 -164 -96 -164 c 0
 -75 -164 -59 -162 -35 -157 c 1
 -43 -222 l 1
 -63 -226 -80 -229 -105 -229 c 0
 -181 -229 -227 -186 -227 -130 c 0
 -227 -58 -168 -7 -44 31 c 1
EndSplineSet
EndChar

StartChar: uni0329
Encoding: 809 809 318
Width: 0
Flags: W
LayerCount: 2
Fore
SplineSet
-120 -301 m 1
 -120 -73 l 1
 -40 -73 l 1
 -40 -301 l 1
 -120 -301 l 1
EndSplineSet
EndChar

StartChar: uni032A
Encoding: 810 810 319
Width: 0
Flags: W
LayerCount: 2
Fore
SplineSet
-306 -237 m 1
 -306 -92 l 1
 -30 -92 l 1
 -30 -237 l 1
 -88 -237 l 1
 -88 -147 l 1
 -247 -147 l 1
 -247 -237 l 1
 -306 -237 l 1
EndSplineSet
EndChar

StartChar: uni032B
Encoding: 811 811 320
Width: 0
Flags: W
LayerCount: 2
Fore
SplineSet
-72 -62 m 1
 -30 -65 l 1
 -36 -145 -76 -193 -128 -193 c 0
 -167 -193 -200 -166 -215 -117 c 1
 -231 -166 -264 -193 -303 -193 c 0
 -355 -193 -395 -145 -400 -65 c 1
 -359 -62 l 1
 -353 -102 -335 -127 -303 -127 c 0
 -272 -127 -251 -102 -246 -62 c 1
 -184 -62 l 1
 -178 -102 -160 -127 -128 -127 c 0
 -97 -127 -77 -102 -72 -62 c 1
EndSplineSet
EndChar

StartChar: uni032C
Encoding: 812 812 321
Width: 0
Flags: W
LayerCount: 2
Fore
SplineSet
-66 -72 m 1
 -30 -113 l 1
 -163 -221 l 1
 -218 -221 l 1
 -353 -113 l 1
 -316 -72 l 1
 -191 -152 l 1
 -66 -72 l 1
EndSplineSet
EndChar

StartChar: uni032D
Encoding: 813 813 322
Width: 0
Flags: W
LayerCount: 2
Fore
SplineSet
-317 -221 m 1
 -353 -180 l 1
 -219 -68 l 1
 -164 -68 l 1
 -30 -180 l 1
 -66 -221 l 1
 -191 -137 l 1
 -317 -221 l 1
EndSplineSet
EndChar

StartChar: uni032F
Encoding: 815 815 323
Width: 0
Flags: W
LayerCount: 2
Fore
SplineSet
-178 -52 m 0
 -99 -52 -38 -99 -30 -179 c 1
 -86 -191 l 1
 -100 -142 -131 -116 -178 -116 c 0
 -225 -116 -253 -142 -267 -191 c 1
 -323 -179 l 1
 -315 -99 -255 -52 -178 -52 c 0
EndSplineSet
EndChar

StartChar: uni0330
Encoding: 816 816 324
Width: 0
Flags: W
LayerCount: 2
Fore
SplineSet
-135 -180 m 0
 -163 -180 -185 -167 -203 -154 c 0
 -219 -142 -234 -133 -251 -133 c 0
 -274 -133 -288 -148 -305 -177 c 1
 -356 -152 l 1
 -333 -105 -299 -68 -251 -68 c 0
 -222 -68 -202 -81 -183 -95 c 0
 -167 -106 -152 -116 -135 -116 c 0
 -115 -116 -100 -102 -81 -72 c 1
 -30 -98 l 1
 -55 -153 -92 -180 -135 -180 c 0
EndSplineSet
EndChar

StartChar: uni0331
Encoding: 817 817 325
Width: 0
Flags: W
LayerCount: 2
Fore
SplineSet
-30 -170 m 1
 -295 -170 l 1
 -295 -106 l 1
 -30 -106 l 1
 -30 -170 l 1
EndSplineSet
EndChar

StartChar: uni0332
Encoding: 818 818 326
Width: 0
Flags: W
LayerCount: 2
Fore
SplineSet
-31 -170 m 1
 -429 -170 l 1
 -429 -106 l 1
 -31 -106 l 1
 -31 -170 l 1
EndSplineSet
EndChar

StartChar: uni0334
Encoding: 820 820 327
Width: 0
Flags: W
LayerCount: 2
Fore
SplineSet
-157 253 m 0
 -231 253 -270 314 -313 314 c 0
 -346 314 -368 288 -385 262 c 1
 -436 289 l 1
 -414 329 -376 381 -305 381 c 0
 -233 381 -195 321 -150 321 c 0
 -119 321 -97 342 -80 368 c 1
 -30 340 l 1
 -51 300 -89 253 -157 253 c 0
EndSplineSet
EndChar

StartChar: uni0335
Encoding: 821 821 328
Width: 0
Flags: W
LayerCount: 2
Fore
SplineSet
-340 277 m 1
 -340 349 l 1
 -61 349 l 1
 -61 277 l 1
 -340 277 l 1
EndSplineSet
EndChar

StartChar: uni0336
Encoding: 822 822 329
Width: 0
Flags: W
LayerCount: 2
Fore
SplineSet
-751 277 m 1
 -751 349 l 1
 -30 349 l 1
 -30 277 l 1
 -751 277 l 1
EndSplineSet
EndChar

StartChar: uni0339
Encoding: 825 825 330
Width: 0
Flags: W
LayerCount: 2
Fore
SplineSet
-139 -270 m 1
 -74 -270 -29 -225 -29 -167 c 0
 -29 -109 -74 -64 -139 -64 c 1
 -139 -110 l 1
 -106 -110 -86 -131 -86 -167 c 0
 -86 -202 -106 -223 -139 -223 c 1
 -139 -270 l 1
EndSplineSet
EndChar

StartChar: uni033A
Encoding: 826 826 331
Width: 0
Flags: W
LayerCount: 2
Fore
SplineSet
-306 -92 m 1
 -247 -92 l 1
 -247 -182 l 1
 -88 -182 l 1
 -88 -92 l 1
 -30 -92 l 1
 -30 -237 l 1
 -306 -237 l 1
 -306 -92 l 1
EndSplineSet
EndChar

StartChar: uni033B
Encoding: 827 827 332
Width: 0
Flags: W
LayerCount: 2
Fore
SplineSet
-305 -237 m 1
 -305 -70 l 1
 -30 -70 l 1
 -30 -237 l 1
 -305 -237 l 1
-249 -187 m 1
 -86 -187 l 1
 -86 -120 l 1
 -249 -120 l 1
 -249 -187 l 1
EndSplineSet
EndChar

StartChar: uni033C
Encoding: 828 828 333
Width: 0
Flags: W
LayerCount: 2
Fore
SplineSet
-128 -62 m 0
 -76 -62 -36 -109 -30 -190 c 1
 -72 -193 l 1
 -77 -153 -97 -127 -128 -127 c 0
 -160 -127 -178 -153 -184 -193 c 1
 -246 -193 l 1
 -251 -153 -272 -127 -303 -127 c 0
 -335 -127 -353 -153 -359 -193 c 1
 -400 -190 l 1
 -395 -109 -355 -62 -303 -62 c 0
 -264 -62 -231 -89 -215 -138 c 1
 -200 -89 -167 -62 -128 -62 c 0
EndSplineSet
EndChar

StartChar: uni033D
Encoding: 829 829 334
Width: 0
Flags: W
LayerCount: 2
Fore
SplineSet
-131 728 m 1
 -33 600 l 1
 -113 600 l 1
 -175 693 l 1
 -236 600 l 1
 -314 600 l 1
 -217 726 l 1
 -304 838 l 1
 -225 838 l 1
 -173 758 l 1
 -123 838 l 1
 -46 838 l 1
 -131 728 l 1
EndSplineSet
EndChar

StartChar: uni0342
Encoding: 834 834 335
Width: 0
Flags: W
LayerCount: 2
Fore
SplineSet
-135 658 m 0
 -163 658 -185 671 -203 684 c 0
 -219 696 -234 706 -251 706 c 0
 -274 706 -288 691 -305 661 c 1
 -356 687 l 1
 -333 734 -299 770 -251 770 c 0
 -222 770 -202 758 -183 744 c 0
 -167 733 -152 723 -135 723 c 0
 -115 723 -100 737 -81 767 c 1
 -30 741 l 1
 -55 686 -92 658 -135 658 c 0
EndSplineSet
EndChar

StartChar: uni0345
Encoding: 837 837 336
Width: 0
Flags: W
LayerCount: 2
Fore
SplineSet
-125 -186 m 0
 -193 -186 -232 -145 -232 -85 c 2
 -232 -40 l 1
 -159 -40 l 1
 -159 -83 l 2
 -159 -112 -145 -126 -117 -126 c 0
 -94 -126 -80 -120 -62 -109 c 1
 -30 -152 l 1
 -51 -168 -81 -186 -125 -186 c 0
EndSplineSet
EndChar

StartChar: uni035C
Encoding: 860 860 337
Width: 0
Flags: W
LayerCount: 2
Fore
SplineSet
333 -79 m 1
 247 -150 139 -210 0 -210 c 0
 -140 -210 -247 -150 -334 -78 c 1
 -298 -30 l 1
 -208 -89 -119 -123 0 -123 c 0
 119 -123 208 -89 297 -30 c 1
 333 -79 l 1
EndSplineSet
EndChar

StartChar: uni0361
Encoding: 865 865 338
Width: 0
Flags: W
LayerCount: 2
Fore
SplineSet
333 661 m 1
 297 612 l 1
 208 671 119 705 0 705 c 0
 -119 705 -208 671 -298 612 c 1
 -334 660 l 1
 -247 732 -140 792 0 792 c 0
 139 792 247 732 333 661 c 1
EndSplineSet
EndChar

StartChar: uni037E
Encoding: 894 894 339
Width: 232
Flags: W
LayerCount: 2
Fore
SplineSet
115 490 m 0
 153 490 180 462 180 426 c 0
 180 390 153 362 115 362 c 0
 79 362 51 390 51 426 c 0
 51 462 79 490 115 490 c 0
115 117 m 0
 153 117 180 88 180 53 c 0
 180 32 175 13 163 -14 c 2
 98 -163 l 1
 38 -163 l 1
 78 -1 l 1
 62 11 51 31 51 53 c 0
 51 88 79 117 115 117 c 0
EndSplineSet
EndChar

StartChar: uni0384
Encoding: 900 900 340
Width: 153
Flags: W
LayerCount: 2
Fore
SplineSet
33 799 m 1
 123 791 l 1
 90 597 l 1
 30 597 l 1
 33 799 l 1
EndSplineSet
EndChar

StartChar: uni0385
Encoding: 901 901 341
Width: 372
Flags: W
LayerCount: 2
Fore
SplineSet
164 902 m 1
 242 896 l 1
 214 727 l 1
 162 727 l 1
 164 902 l 1
84 732 m 0
 114 732 137 709 137 679 c 0
 137 649 114 626 84 626 c 0
 53 626 30 649 30 679 c 0
 30 709 53 732 84 732 c 0
288 732 m 0
 319 732 342 709 342 679 c 0
 342 649 319 626 288 626 c 0
 258 626 235 649 235 679 c 0
 235 709 258 732 288 732 c 0
EndSplineSet
EndChar

StartChar: uni0386
Encoding: 902 902 342
Width: 592
Flags: W
LayerCount: 2
Fore
SplineSet
74 695 m 1
 165 688 l 1
 132 492 l 1
 72 492 l 1
 74 695 l 1
492 0 m 1
 439 176 l 1
 171 176 l 1
 117 0 l 1
 29 0 l 1
 252 688 l 1
 362 688 l 1
 584 0 l 1
 492 0 l 1
192 247 m 1
 417 247 l 1
 305 616 l 1
 192 247 l 1
EndSplineSet
EndChar

StartChar: uni0387
Encoding: 903 903 343
Width: 232
Flags: W
LayerCount: 2
Fore
SplineSet
115 377 m 0
 153 377 180 348 180 313 c 0
 180 277 153 248 115 248 c 0
 79 248 51 277 51 313 c 0
 51 348 79 377 115 377 c 0
EndSplineSet
EndChar

StartChar: uni0388
Encoding: 904 904 344
Width: 612
Flags: W
LayerCount: 2
Fore
SplineSet
56 695 m 1
 146 688 l 1
 114 492 l 1
 54 492 l 1
 56 695 l 1
552 688 m 1
 542 618 l 1
 272 618 l 1
 272 386 l 1
 507 386 l 1
 507 316 l 1
 272 316 l 1
 272 70 l 1
 560 70 l 1
 560 0 l 1
 185 0 l 1
 185 688 l 1
 552 688 l 1
EndSplineSet
EndChar

StartChar: uni0389
Encoding: 905 905 345
Width: 760
Flags: W
LayerCount: 2
Fore
SplineSet
56 695 m 1
 146 688 l 1
 114 492 l 1
 54 492 l 1
 56 695 l 1
571 0 m 1
 571 326 l 1
 272 326 l 1
 272 0 l 1
 185 0 l 1
 185 688 l 1
 272 688 l 1
 272 398 l 1
 571 398 l 1
 571 688 l 1
 658 688 l 1
 658 0 l 1
 571 0 l 1
EndSplineSet
EndChar

StartChar: uni038A
Encoding: 906 906 346
Width: 375
Flags: W
LayerCount: 2
Fore
SplineSet
56 695 m 1
 146 688 l 1
 114 492 l 1
 54 492 l 1
 56 695 l 1
272 688 m 1
 272 0 l 1
 185 0 l 1
 185 688 l 1
 272 688 l 1
EndSplineSet
EndChar

StartChar: uni038C
Encoding: 908 908 347
Width: 753
Flags: W
LayerCount: 2
Fore
SplineSet
407 700 m 0
 578 700 695 575 695 343 c 0
 695 116 579 -12 407 -12 c 0
 236 -12 119 112 119 342 c 0
 119 569 237 700 407 700 c 0
47 695 m 1
 138 688 l 1
 105 492 l 1
 45 492 l 1
 47 695 l 1
407 628 m 0
 289 628 211 544 211 342 c 0
 211 142 291 60 407 60 c 0
 527 60 603 142 603 343 c 0
 603 544 528 628 407 628 c 0
EndSplineSet
EndChar

StartChar: uni038E
Encoding: 910 910 348
Width: 710
Flags: W
LayerCount: 2
Fore
SplineSet
55 695 m 1
 146 688 l 1
 113 492 l 1
 53 492 l 1
 55 695 l 1
703 688 m 1
 482 266 l 1
 482 0 l 1
 395 0 l 1
 395 265 l 1
 173 688 l 1
 269 688 l 1
 441 342 l 1
 612 688 l 1
 703 688 l 1
EndSplineSet
EndChar

StartChar: uni038F
Encoding: 911 911 349
Width: 753
Flags: W
LayerCount: 2
Fore
SplineSet
408 700 m 0
 583 700 696 575 696 352 c 0
 696 208 661 128 561 74 c 1
 674 74 l 1
 674 0 l 1
 463 0 l 1
 463 73 l 1
 559 107 604 192 604 352 c 0
 604 544 529 628 408 628 c 0
 289 628 211 544 211 351 c 0
 211 181 262 107 352 73 c 1
 352 0 l 1
 140 0 l 1
 140 74 l 1
 248 74 l 1
 156 122 119 203 119 351 c 0
 119 569 237 700 408 700 c 0
47 695 m 1
 138 688 l 1
 105 492 l 1
 45 492 l 1
 47 695 l 1
EndSplineSet
EndChar

StartChar: uni0390
Encoding: 912 912 350
Width: 276
Flags: W
LayerCount: 2
Fore
SplineSet
109 902 m 1
 187 896 l 1
 159 727 l 1
 107 727 l 1
 109 902 l 1
29 732 m 0
 59 732 82 709 82 679 c 0
 82 649 59 626 29 626 c 0
 -2 626 -25 649 -25 679 c 0
 -25 709 -2 732 29 732 c 0
233 732 m 0
 264 732 287 709 287 679 c 0
 287 649 264 626 233 626 c 0
 203 626 180 649 180 679 c 0
 180 709 203 732 233 732 c 0
173 526 m 1
 173 137 l 2
 173 84 186 67 219 52 c 1
 193 -11 l 1
 118 10 89 46 89 127 c 2
 89 526 l 1
 173 526 l 1
EndSplineSet
EndChar

StartChar: uni0391
Encoding: 913 913 351
Width: 571
Flags: W
LayerCount: 2
Fore
SplineSet
471 0 m 1
 418 176 l 1
 150 176 l 1
 96 0 l 1
 8 0 l 1
 231 688 l 1
 341 688 l 1
 563 0 l 1
 471 0 l 1
172 247 m 1
 396 247 l 1
 284 616 l 1
 172 247 l 1
EndSplineSet
EndChar

StartChar: uni0392
Encoding: 914 914 352
Width: 606
Flags: W
LayerCount: 2
Fore
SplineSet
400 364 m 1
 481 351 559 312 559 195 c 0
 559 52 450 0 292 0 c 2
 103 0 l 1
 103 688 l 1
 263 688 l 2
 430 688 528 634 528 515 c 0
 528 429 468 378 400 364 c 1
272 619 m 2
 189 619 l 1
 189 394 l 1
 301 394 l 2
 380 394 439 434 439 509 c 0
 439 595 377 619 272 619 c 2
292 70 m 2
 395 70 467 94 467 195 c 0
 467 293 395 327 310 327 c 2
 189 327 l 1
 189 70 l 1
 292 70 l 2
EndSplineSet
EndChar

StartChar: uni0393
Encoding: 915 915 353
Width: 508
Flags: W
LayerCount: 2
Fore
SplineSet
498 688 m 1
 485 613 l 1
 189 613 l 1
 189 0 l 1
 103 0 l 1
 103 688 l 1
 498 688 l 1
EndSplineSet
EndChar

StartChar: uni0394
Encoding: 916 916 354
Width: 581
Flags: W
LayerCount: 2
Fore
SplineSet
346 688 m 1
 573 0 l 1
 8 0 l 1
 236 688 l 1
 346 688 l 1
289 615 m 1
 117 72 l 1
 460 72 l 1
 289 615 l 1
EndSplineSet
EndChar

StartChar: uni0395
Encoding: 917 917 355
Width: 530
Flags: W
LayerCount: 2
Fore
SplineSet
470 688 m 1
 460 618 l 1
 189 618 l 1
 189 386 l 1
 424 386 l 1
 424 316 l 1
 189 316 l 1
 189 70 l 1
 477 70 l 1
 477 0 l 1
 103 0 l 1
 103 688 l 1
 470 688 l 1
EndSplineSet
EndChar

StartChar: uni0396
Encoding: 918 918 356
Width: 521
Flags: W
LayerCount: 2
Fore
SplineSet
475 688 m 1
 475 618 l 1
 128 74 l 1
 473 74 l 1
 463 0 l 1
 31 0 l 1
 31 70 l 1
 381 615 l 1
 68 615 l 1
 68 688 l 1
 475 688 l 1
EndSplineSet
EndChar

StartChar: uni0397
Encoding: 919 919 357
Width: 678
Flags: W
LayerCount: 2
Fore
SplineSet
488 0 m 1
 488 326 l 1
 189 326 l 1
 189 0 l 1
 103 0 l 1
 103 688 l 1
 189 688 l 1
 189 398 l 1
 488 398 l 1
 488 688 l 1
 575 688 l 1
 575 0 l 1
 488 0 l 1
EndSplineSet
EndChar

StartChar: uni0398
Encoding: 920 920 358
Width: 692
Flags: W
LayerCount: 2
Fore
SplineSet
346 700 m 0
 517 700 634 575 634 343 c 0
 634 116 518 -12 346 -12 c 0
 175 -12 58 112 58 342 c 0
 58 569 176 700 346 700 c 0
346 628 m 0
 228 628 150 544 150 342 c 0
 150 142 230 60 346 60 c 0
 466 60 542 142 542 343 c 0
 542 544 467 628 346 628 c 0
467 386 m 1
 467 318 l 1
 224 318 l 1
 224 386 l 1
 467 386 l 1
EndSplineSet
EndChar

StartChar: uni0399
Encoding: 921 921 359
Width: 292
Flags: W
LayerCount: 2
Fore
SplineSet
189 688 m 1
 189 0 l 1
 103 0 l 1
 103 688 l 1
 189 688 l 1
EndSplineSet
EndChar

StartChar: uni039A
Encoding: 922 922 360
Width: 579
Flags: W
LayerCount: 2
Fore
SplineSet
189 688 m 1
 189 0 l 1
 103 0 l 1
 103 688 l 1
 189 688 l 1
561 688 m 1
 294 373 l 1
 579 0 l 1
 472 0 l 1
 194 368 l 1
 462 688 l 1
 561 688 l 1
EndSplineSet
EndChar

StartChar: uni039B
Encoding: 923 923 361
Width: 571
Flags: W
LayerCount: 2
Fore
SplineSet
341 688 m 1
 563 0 l 1
 471 0 l 1
 284 616 l 1
 96 0 l 1
 8 0 l 1
 231 688 l 1
 341 688 l 1
EndSplineSet
EndChar

StartChar: uni039C
Encoding: 924 924 362
Width: 776
Flags: W
LayerCount: 2
Fore
SplineSet
653 688 m 1
 713 0 l 1
 629 0 l 1
 603 315 l 2
 593 424 585 542 584 600 c 1
 429 79 l 1
 348 79 l 1
 186 601 l 1
 185 523 179 412 170 310 c 2
 146 0 l 1
 64 0 l 1
 122 688 l 1
 240 688 l 1
 391 179 l 1
 535 688 l 1
 653 688 l 1
EndSplineSet
EndChar

StartChar: uni039D
Encoding: 925 925 363
Width: 681
Flags: W
LayerCount: 2
Fore
SplineSet
578 688 m 1
 578 0 l 1
 462 0 l 1
 172 593 l 1
 177 538 184 459 184 332 c 2
 184 0 l 1
 103 0 l 1
 103 688 l 1
 216 688 l 1
 508 94 l 1
 506 113 497 218 497 303 c 2
 497 688 l 1
 578 688 l 1
EndSplineSet
EndChar

StartChar: uni039E
Encoding: 926 926 364
Width: 508
Flags: W
LayerCount: 2
Fore
SplineSet
453 688 m 1
 441 609 l 1
 46 609 l 1
 46 688 l 1
 453 688 l 1
394 390 m 1
 394 312 l 1
 107 312 l 1
 107 390 l 1
 394 390 l 1
461 80 m 1
 461 0 l 1
 46 0 l 1
 46 80 l 1
 461 80 l 1
EndSplineSet
EndChar

StartChar: uni039F
Encoding: 927 927 365
Width: 692
Flags: W
LayerCount: 2
Fore
SplineSet
346 700 m 0
 517 700 634 575 634 343 c 0
 634 116 518 -12 346 -12 c 0
 175 -12 58 112 58 342 c 0
 58 569 176 700 346 700 c 0
346 628 m 0
 228 628 150 544 150 342 c 0
 150 142 230 60 346 60 c 0
 466 60 542 142 542 343 c 0
 542 544 467 628 346 628 c 0
EndSplineSet
EndChar

StartChar: uni03A0
Encoding: 928 928 366
Width: 673
Flags: W
LayerCount: 2
Fore
SplineSet
570 688 m 1
 570 0 l 1
 483 0 l 1
 483 614 l 1
 189 614 l 1
 189 0 l 1
 103 0 l 1
 103 688 l 1
 570 688 l 1
EndSplineSet
EndChar

StartChar: uni03A1
Encoding: 929 929 367
Width: 578
Flags: W
LayerCount: 2
Fore
SplineSet
279 688 m 2
 443 688 543 621 543 477 c 0
 543 320 430 256 279 256 c 2
 189 256 l 1
 189 0 l 1
 103 0 l 1
 103 688 l 1
 279 688 l 2
276 325 m 2
 381 325 451 357 451 476 c 0
 451 582 384 620 278 620 c 2
 189 620 l 1
 189 325 l 1
 276 325 l 2
EndSplineSet
EndChar

StartChar: uni03A3
Encoding: 931 931 368
Width: 501
Flags: W
LayerCount: 2
Fore
SplineSet
460 688 m 1
 460 616 l 1
 140 616 l 1
 344 369 l 1
 344 313 l 1
 140 72 l 1
 460 72 l 1
 460 0 l 1
 41 0 l 1
 41 70 l 1
 265 339 l 1
 41 618 l 1
 41 688 l 1
 460 688 l 1
EndSplineSet
EndChar

StartChar: uni03A4
Encoding: 932 932 369
Width: 512
Flags: W
LayerCount: 2
Fore
SplineSet
502 688 m 1
 492 614 l 1
 299 614 l 1
 299 0 l 1
 213 0 l 1
 213 614 l 1
 15 614 l 1
 15 688 l 1
 502 688 l 1
EndSplineSet
EndChar

StartChar: uni03A5
Encoding: 933 933 370
Width: 544
Flags: W
LayerCount: 2
Fore
SplineSet
537 688 m 1
 316 266 l 1
 316 0 l 1
 228 0 l 1
 228 265 l 1
 7 688 l 1
 103 688 l 1
 275 342 l 1
 446 688 l 1
 537 688 l 1
EndSplineSet
EndChar

StartChar: uni03A6
Encoding: 934 934 371
Width: 805
Flags: W
LayerCount: 2
Fore
SplineSet
769 346 m 0
 769 170 646 74 445 69 c 1
 445 0 l 1
 361 0 l 1
 361 69 l 1
 147 77 36 183 36 344 c 0
 36 517 159 613 361 618 c 1
 361 688 l 1
 445 688 l 1
 445 618 l 1
 658 609 769 504 769 346 c 0
126 344 m 0
 126 211 206 140 363 134 c 1
 363 553 l 1
 205 544 126 478 126 344 c 0
443 133 m 1
 601 142 680 208 680 346 c 0
 680 475 600 547 443 553 c 1
 443 133 l 1
EndSplineSet
EndChar

StartChar: uni03A7
Encoding: 935 935 372
Width: 534
Flags: W
LayerCount: 2
Fore
SplineSet
317 372 m 1
 528 0 l 1
 429 0 l 1
 265 311 l 1
 100 0 l 1
 6 0 l 1
 214 367 l 1
 25 688 l 1
 123 688 l 1
 267 425 l 1
 410 688 l 1
 503 688 l 1
 317 372 l 1
EndSplineSet
EndChar

StartChar: uni03A8
Encoding: 936 936 373
Width: 688
Flags: W
LayerCount: 2
Fore
SplineSet
566 688 m 1
 652 688 l 1
 652 429 l 2
 652 281 555 206 387 194 c 1
 387 0 l 1
 300 0 l 1
 300 194 l 1
 125 207 36 286 36 426 c 2
 36 688 l 1
 122 688 l 1
 122 432 l 2
 122 325 177 272 302 265 c 1
 302 688 l 1
 385 688 l 1
 385 265 l 1
 507 273 566 324 566 432 c 2
 566 688 l 1
EndSplineSet
EndChar

StartChar: uni03A9
Encoding: 937 937 374
Width: 692
Flags: W
LayerCount: 2
Fore
SplineSet
346 700 m 0
 521 700 634 575 634 352 c 0
 634 208 600 128 499 74 c 1
 612 74 l 1
 612 0 l 1
 401 0 l 1
 401 73 l 1
 497 107 542 192 542 352 c 0
 542 544 467 628 346 628 c 0
 228 628 150 544 150 351 c 0
 150 181 200 107 290 73 c 1
 290 0 l 1
 79 0 l 1
 79 74 l 1
 186 74 l 1
 95 122 58 203 58 351 c 0
 58 569 176 700 346 700 c 0
EndSplineSet
EndChar

StartChar: uni03AA
Encoding: 938 938 375
Width: 292
Flags: W
LayerCount: 2
Fore
SplineSet
43 888 m 0
 73 888 96 865 96 835 c 0
 96 805 73 782 43 782 c 0
 12 782 -11 805 -11 835 c 0
 -11 865 12 888 43 888 c 0
247 888 m 0
 278 888 301 865 301 835 c 0
 301 805 278 782 247 782 c 0
 217 782 194 805 194 835 c 0
 194 865 217 888 247 888 c 0
189 688 m 1
 189 0 l 1
 103 0 l 1
 103 688 l 1
 189 688 l 1
EndSplineSet
EndChar

StartChar: uni03AB
Encoding: 939 939 376
Width: 544
Flags: W
LayerCount: 2
Fore
SplineSet
169 888 m 0
 199 888 222 865 222 835 c 0
 222 805 199 782 169 782 c 0
 138 782 115 805 115 835 c 0
 115 865 138 888 169 888 c 0
373 888 m 0
 404 888 427 865 427 835 c 0
 427 805 404 782 373 782 c 0
 343 782 320 805 320 835 c 0
 320 865 343 888 373 888 c 0
537 688 m 1
 316 266 l 1
 316 0 l 1
 228 0 l 1
 228 265 l 1
 7 688 l 1
 103 688 l 1
 275 342 l 1
 446 688 l 1
 537 688 l 1
EndSplineSet
EndChar

StartChar: uni03AC
Encoding: 940 940 377
Width: 594
Flags: W
LayerCount: 2
Fore
SplineSet
249 799 m 1
 339 791 l 1
 306 597 l 1
 246 597 l 1
 249 799 l 1
258 538 m 0
 346 538 401 495 423 368 c 1
 453 526 l 1
 530 526 l 1
 473 253 l 1
 501 110 l 2
 506 82 518 68 546 58 c 1
 517 -12 l 1
 475 -5 437 24 428 79 c 2
 416 147 l 1
 388 55 339 -12 249 -12 c 0
 130 -12 59 78 59 260 c 0
 59 422 127 538 258 538 c 0
262 471 m 0
 191 471 148 397 148 260 c 0
 148 118 187 55 257 55 c 0
 309 55 366 91 399 267 c 1
 371 428 329 471 262 471 c 0
EndSplineSet
EndChar

StartChar: uni03AD
Encoding: 941 941 378
Width: 460
Flags: W
LayerCount: 2
Fore
SplineSet
224 799 m 1
 314 791 l 1
 281 597 l 1
 221 597 l 1
 224 799 l 1
256 538 m 0
 330 538 381 519 425 489 c 1
 384 439 l 1
 348 460 314 472 264 472 c 0
 197 472 160 442 160 389 c 0
 160 340 202 308 269 308 c 2
 329 308 l 1
 319 242 l 1
 263 242 l 2
 177 242 143 214 143 149 c 0
 143 94 186 56 261 56 c 0
 319 56 361 74 403 104 c 1
 443 50 l 1
 395 12 330 -12 256 -12 c 0
 136 -12 53 45 53 146 c 0
 53 232 106 270 184 280 c 1
 113 294 74 331 74 395 c 0
 74 483 146 538 256 538 c 0
EndSplineSet
EndChar

StartChar: uni03AE
Encoding: 942 942 379
Width: 587
Flags: W
LayerCount: 2
Fore
SplineSet
355 791 m 1
 322 597 l 1
 262 597 l 1
 265 799 l 1
 355 791 l 1
347 538 m 0
 443 538 498 477 498 373 c 2
 498 -211 l 1
 414 -201 l 1
 414 365 l 2
 414 445 382 472 328 472 c 0
 266 472 224 433 187 375 c 1
 187 0 l 1
 103 0 l 1
 103 357 l 2
 103 434 91 483 78 526 c 1
 154 537 l 1
 164 515 174 485 180 442 c 1
 217 499 274 538 347 538 c 0
EndSplineSet
EndChar

StartChar: uni03AF
Encoding: 943 943 380
Width: 276
Flags: W
LayerCount: 2
Fore
SplineSet
104 799 m 1
 194 791 l 1
 161 597 l 1
 101 597 l 1
 104 799 l 1
173 526 m 1
 173 137 l 2
 173 84 186 67 219 52 c 1
 193 -11 l 1
 118 10 89 46 89 127 c 2
 89 526 l 1
 173 526 l 1
EndSplineSet
EndChar

StartChar: uni03B0
Encoding: 944 944 381
Width: 566
Flags: W
LayerCount: 2
Fore
SplineSet
261 902 m 1
 339 896 l 1
 311 727 l 1
 259 727 l 1
 261 902 l 1
181 732 m 0
 211 732 234 709 234 679 c 0
 234 649 211 626 181 626 c 0
 150 626 127 649 127 679 c 0
 127 709 150 732 181 732 c 0
385 732 m 0
 416 732 439 709 439 679 c 0
 439 649 416 626 385 626 c 0
 355 626 332 649 332 679 c 0
 332 709 355 732 385 732 c 0
467 526 m 1
 483 441 493 358 493 256 c 0
 493 67 377 -12 266 -12 c 0
 169 -12 89 48 89 162 c 2
 89 526 l 1
 173 526 l 1
 173 169 l 2
 173 92 209 56 269 56 c 0
 331 56 408 102 408 263 c 0
 408 340 400 430 382 526 c 1
 467 526 l 1
EndSplineSet
EndChar

StartChar: uni03B1
Encoding: 945 945 382
Width: 594
Flags: W
LayerCount: 2
Fore
SplineSet
258 538 m 0
 346 538 401 495 423 368 c 1
 453 526 l 1
 530 526 l 1
 473 253 l 1
 501 110 l 2
 506 82 518 68 546 58 c 1
 517 -12 l 1
 475 -5 437 24 428 79 c 2
 416 147 l 1
 388 55 339 -12 249 -12 c 0
 130 -12 59 78 59 260 c 0
 59 422 127 538 258 538 c 0
262 471 m 0
 191 471 148 397 148 260 c 0
 148 118 187 55 257 55 c 0
 309 55 366 91 399 267 c 1
 371 428 329 471 262 471 c 0
EndSplineSet
EndChar

StartChar: uni03B2
Encoding: 946 946 383
Width: 597
Flags: W
LayerCount: 2
Fore
SplineSet
346 403 m 1
 443 395 550 351 550 202 c 0
 550 70 447 -12 331 -12 c 0
 275 -12 224 6 179 43 c 1
 179 -200 l 1
 95 -212 l 1
 95 541 l 2
 95 671 173 748 298 748 c 0
 410 748 497 680 497 567 c 0
 497 468 432 415 346 403 c 1
324 56 m 0
 401 56 464 107 464 203 c 0
 464 310 403 366 284 366 c 2
 233 366 l 1
 242 430 l 1
 290 430 l 2
 356 430 417 467 417 563 c 0
 417 645 367 682 299 682 c 0
 221 682 179 637 179 541 c 2
 179 108 l 1
 217 72 262 56 324 56 c 0
EndSplineSet
EndChar

StartChar: uni03B3
Encoding: 947 947 384
Width: 477
Flags: W
LayerCount: 2
Fore
SplineSet
77 536 m 1
 125 473 193 333 238 98 c 1
 381 536 l 1
 466 519 l 1
 277 21 l 2
 248 -54 245 -113 262 -201 c 1
 195 -214 l 1
 157 -135 156 -76 192 10 c 1
 119 276 65 429 -2 506 c 1
 77 536 l 1
EndSplineSet
EndChar

StartChar: uni03B4
Encoding: 948 948 385
Width: 576
Flags: W
LayerCount: 2
Fore
SplineSet
324 499 m 0
 452 446 518 381 518 242 c 0
 518 103 434 -12 288 -12 c 0
 150 -12 59 81 59 239 c 0
 59 356 122 430 211 472 c 1
 137 509 114 553 114 609 c 0
 114 683 175 748 287 748 c 0
 363 748 414 728 462 696 c 1
 419 643 l 1
 377 671 343 682 297 682 c 0
 228 682 200 649 200 609 c 0
 200 562 223 541 324 499 c 0
288 56 m 0
 378 56 427 120 427 242 c 0
 427 351 388 400 265 449 c 1
 193 407 149 346 149 239 c 0
 149 122 195 56 288 56 c 0
EndSplineSet
EndChar

StartChar: uni03B5
Encoding: 949 949 386
Width: 460
Flags: W
LayerCount: 2
Fore
SplineSet
256 538 m 0
 330 538 381 519 425 489 c 1
 384 439 l 1
 348 460 314 472 264 472 c 0
 197 472 160 442 160 389 c 0
 160 340 202 308 269 308 c 2
 329 308 l 1
 319 242 l 1
 263 242 l 2
 177 242 143 214 143 149 c 0
 143 94 186 56 261 56 c 0
 319 56 361 74 403 104 c 1
 443 50 l 1
 395 12 330 -12 256 -12 c 0
 136 -12 53 45 53 146 c 0
 53 232 106 270 184 280 c 1
 113 294 74 331 74 395 c 0
 74 483 146 538 256 538 c 0
EndSplineSet
EndChar

StartChar: uni03B6
Encoding: 950 950 387
Width: 385
Flags: W
LayerCount: 2
Fore
SplineSet
406 738 m 1
 417 682 l 1
 213 512 131 381 131 253 c 0
 131 156 168 125 259 91 c 0
 344 59 402 29 402 -47 c 0
 402 -120 354 -167 249 -213 c 1
 213 -154 l 1
 271 -131 312 -105 312 -56 c 0
 312 -16 289 -1 204 32 c 0
 100 72 41 126 41 253 c 0
 41 393 159 571 335 682 c 1
 307 676 252 670 189 670 c 2
 39 670 l 1
 49 738 l 1
 406 738 l 1
EndSplineSet
EndChar

StartChar: uni03B7
Encoding: 951 951 388
Width: 587
Flags: W
LayerCount: 2
Fore
SplineSet
347 538 m 0
 443 538 498 477 498 373 c 2
 498 -211 l 1
 414 -201 l 1
 414 365 l 2
 414 445 382 472 328 472 c 0
 266 472 224 433 187 375 c 1
 187 0 l 1
 103 0 l 1
 103 357 l 2
 103 434 91 483 78 526 c 1
 154 537 l 1
 164 515 174 485 180 442 c 1
 217 499 274 538 347 538 c 0
EndSplineSet
EndChar

StartChar: uni03B8
Encoding: 952 952 389
Width: 571
Flags: W
LayerCount: 2
Fore
SplineSet
287 748 m 0
 436 748 513 610 513 372 c 0
 513 129 434 -12 285 -12 c 0
 136 -12 59 125 59 370 c 0
 59 606 138 748 287 748 c 0
287 680 m 0
 195 680 151 599 145 404 c 1
 426 404 l 1
 421 599 377 680 287 680 c 0
285 57 m 0
 379 57 420 136 425 339 c 1
 145 339 l 1
 151 135 196 57 285 57 c 0
EndSplineSet
EndChar

StartChar: uni03B9
Encoding: 953 953 390
Width: 276
Flags: W
LayerCount: 2
Fore
SplineSet
173 526 m 1
 173 137 l 2
 173 84 186 67 219 52 c 1
 193 -11 l 1
 118 10 89 46 89 127 c 2
 89 526 l 1
 173 526 l 1
EndSplineSet
EndChar

StartChar: uni03BA
Encoding: 954 954 391
Width: 519
Flags: W
LayerCount: 2
Fore
SplineSet
489 501 m 1
 288 283 l 1
 443 105 l 2
 469 76 490 61 517 51 c 1
 491 -11 l 1
 443 -6 419 15 381 61 c 2
 192 280 l 1
 426 538 l 1
 489 501 l 1
154 537 m 1
 171 501 187 451 187 340 c 2
 187 0 l 1
 103 0 l 1
 103 357 l 2
 103 434 91 483 78 526 c 1
 154 537 l 1
EndSplineSet
EndChar

StartChar: uni03BB
Encoding: 955 955 392
Width: 486
Flags: W
LayerCount: 2
Fore
SplineSet
83 750 m 1
 228 722 277 660 314 501 c 0
 386 188 428 106 499 20 c 1
 421 -11 l 1
 351 84 303 170 247 461 c 1
 104 -11 l 1
 23 9 l 1
 193 526 l 1
 230 526 l 1
 208 621 174 666 70 685 c 1
 83 750 l 1
EndSplineSet
EndChar

StartChar: uni03BC
Encoding: 956 956 393
Width: 585
Flags: W
LayerCount: 2
Fore
SplineSet
507 -1 m 1
 429 -11 l 1
 412 28 408 53 404 90 c 1
 375 40 327 -12 262 -12 c 0
 213 -12 184 4 163 41 c 1
 174 3 178 -31 178 -92 c 2
 178 -201 l 1
 95 -211 l 1
 95 526 l 1
 179 526 l 1
 179 155 l 2
 179 85 214 61 262 61 c 0
 314 61 361 89 397 162 c 1
 397 526 l 1
 481 526 l 1
 481 179 l 2
 481 100 493 44 507 -1 c 1
EndSplineSet
EndChar

StartChar: uni03BD
Encoding: 957 957 394
Width: 477
Flags: W
LayerCount: 2
Fore
SplineSet
78 536 m 1
 128 471 181 329 236 71 c 1
 384 536 l 1
 466 519 l 1
 284 0 l 1
 183 0 l 1
 114 274 65 429 -2 506 c 1
 78 536 l 1
EndSplineSet
EndChar

StartChar: uni03BE
Encoding: 958 958 395
Width: 434
Flags: W
LayerCount: 2
Fore
SplineSet
273 748 m 0
 345 748 397 730 443 695 c 1
 401 643 l 1
 363 669 331 682 284 682 c 0
 207 682 176 640 176 581 c 0
 176 514 218 475 286 475 c 2
 354 475 l 1
 343 405 l 1
 278 405 l 2
 193 405 142 348 142 263 c 0
 142 173 174 145 285 100 c 0
 391 56 441 27 441 -48 c 0
 441 -120 392 -167 288 -213 c 1
 252 -154 l 1
 310 -131 351 -105 351 -57 c 0
 351 -15 328 0 235 39 c 0
 126 84 51 125 51 262 c 0
 51 377 129 433 210 443 c 1
 138 463 90 507 90 586 c 0
 90 679 161 748 273 748 c 0
EndSplineSet
EndChar

StartChar: uni03BF
Encoding: 959 959 396
Width: 581
Flags: W
LayerCount: 2
Fore
SplineSet
291 538 m 0
 439 538 522 432 522 264 c 0
 522 99 437 -12 290 -12 c 0
 143 -12 59 95 59 262 c 0
 59 427 144 538 291 538 c 0
291 470 m 0
 201 470 149 403 149 262 c 0
 149 123 199 56 290 56 c 0
 381 56 432 123 432 264 c 0
 432 403 382 470 291 470 c 0
EndSplineSet
EndChar

StartChar: uni03C0
Encoding: 960 960 397
Width: 593
Flags: W
LayerCount: 2
Fore
SplineSet
560 457 m 1
 480 457 l 1
 480 136 l 2
 480 84 493 67 526 52 c 1
 500 -11 l 1
 422 9 396 45 396 127 c 2
 396 457 l 1
 206 456 l 1
 206 0 l 1
 122 0 l 1
 122 456 l 1
 119 456 l 2
 77 456 64 454 32 445 c 1
 17 511 l 1
 52 524 74 526 120 526 c 2
 560 526 l 1
 560 457 l 1
EndSplineSet
EndChar

StartChar: uni03C1
Encoding: 961 961 398
Width: 577
Flags: W
LayerCount: 2
Fore
SplineSet
296 538 m 0
 439 538 514 438 514 264 c 0
 514 111 442 -12 309 -12 c 0
 251 -12 202 9 168 57 c 1
 168 -201 l 1
 84 -211 l 1
 84 274 l 2
 84 446 156 538 296 538 c 0
290 57 m 0
 375 57 423 128 423 264 c 0
 423 407 380 472 297 472 c 0
 202 472 168 396 168 261 c 2
 168 132 l 1
 195 82 238 57 290 57 c 0
EndSplineSet
EndChar

StartChar: uni03C2
Encoding: 962 962 399
Width: 466
Flags: W
LayerCount: 2
Fore
SplineSet
287 538 m 0
 348 538 397 522 445 482 c 1
 403 427 l 1
 368 455 335 468 290 468 c 0
 204 468 148 402 148 271 c 0
 148 163 181 133 286 91 c 0
 368 59 426 30 426 -47 c 0
 426 -120 377 -167 273 -213 c 1
 238 -156 l 1
 294 -131 336 -105 336 -56 c 0
 336 -15 312 -2 231 29 c 0
 125 69 59 126 59 271 c 0
 59 438 146 538 287 538 c 0
EndSplineSet
EndChar

StartChar: uni03C3
Encoding: 963 963 400
Width: 585
Flags: W
LayerCount: 2
Fore
SplineSet
554 526 m 1
 554 458 l 1
 427 467 l 1
 479 437 522 366 522 264 c 0
 522 99 437 -12 290 -12 c 0
 143 -12 59 95 59 262 c 0
 59 422 140 532 317 532 c 0
 394 532 486 529 554 526 c 1
290 56 m 0
 381 56 432 123 432 264 c 0
 432 369 395 437 354 469 c 1
 349 469 l 2
 197 469 149 409 149 262 c 0
 149 123 199 56 290 56 c 0
EndSplineSet
EndChar

StartChar: uni03C4
Encoding: 964 964 401
Width: 456
Flags: W
LayerCount: 2
Fore
SplineSet
451 457 m 1
 265 457 l 1
 265 137 l 2
 265 84 278 67 312 52 c 1
 285 -11 l 1
 207 9 181 45 181 127 c 2
 181 457 l 1
 107 457 l 2
 56 456 43 454 11 445 c 1
 -4 511 l 1
 31 524 53 526 99 526 c 2
 451 526 l 1
 451 457 l 1
EndSplineSet
EndChar

StartChar: uni03C5
Encoding: 965 965 402
Width: 566
Flags: W
LayerCount: 2
Fore
SplineSet
467 526 m 1
 483 441 493 358 493 256 c 0
 493 67 377 -12 266 -12 c 0
 169 -12 89 48 89 162 c 2
 89 526 l 1
 173 526 l 1
 173 169 l 2
 173 92 209 56 269 56 c 0
 331 56 408 102 408 263 c 0
 408 340 400 430 382 526 c 1
 467 526 l 1
EndSplineSet
EndChar

StartChar: uni03C6
Encoding: 966 966 403
Width: 731
Flags: W
LayerCount: 2
Fore
SplineSet
667 267 m 0
 667 85 583 -1 400 -11 c 1
 400 -201 l 1
 319 -211 l 1
 319 -11 l 1
 142 0 68 86 68 243 c 0
 68 355 98 449 127 526 c 1
 211 526 l 1
 183 453 152 360 152 249 c 0
 152 114 207 63 319 53 c 1
 319 340 l 2
 319 471 384 538 486 538 c 0
 597 538 667 463 667 267 c 0
400 53 m 1
 536 63 581 119 581 266 c 0
 581 423 552 472 487 472 c 0
 439 472 400 451 400 336 c 2
 400 53 l 1
EndSplineSet
EndChar

StartChar: uni03C7
Encoding: 967 967 404
Width: 461
Flags: W
LayerCount: 2
Fore
SplineSet
276 185 m 1
 453 -198 l 1
 368 -209 l 1
 229 113 l 1
 84 -208 l 1
 1 -198 l 1
 186 186 l 1
 103 370 60 438 -3 506 c 1
 78 537 l 1
 131 477 172 409 232 251 c 1
 349 536 l 1
 436 526 l 1
 276 185 l 1
EndSplineSet
EndChar

StartChar: uni03C8
Encoding: 968 968 405
Width: 752
Flags: W
LayerCount: 2
Fore
SplineSet
679 257 m 0
 679 72 576 -2 417 -11 c 1
 417 -201 l 1
 336 -211 l 1
 336 -11 l 1
 160 -4 83 73 83 202 c 2
 83 526 l 1
 167 526 l 1
 167 208 l 2
 167 113 212 64 336 56 c 1
 336 526 l 1
 417 526 l 1
 417 56 l 1
 540 65 594 130 594 263 c 0
 594 340 587 428 568 526 c 1
 653 526 l 1
 669 439 679 359 679 257 c 0
EndSplineSet
EndChar

StartChar: uni03C9
Encoding: 969 969 406
Width: 777
Flags: W
LayerCount: 2
Fore
SplineSet
649 526 m 1
 678 455 709 361 709 238 c 0
 709 59 624 -12 526 -12 c 0
 454 -12 402 25 389 106 c 1
 372 24 325 -12 245 -12 c 0
 149 -12 68 58 68 239 c 0
 68 361 98 452 128 526 c 1
 211 526 l 1
 170 418 153 336 153 238 c 0
 153 108 192 56 257 56 c 0
 308 56 348 78 348 181 c 2
 348 354 l 1
 429 366 l 1
 429 180 l 2
 429 89 465 56 517 56 c 0
 570 56 624 89 624 239 c 0
 624 336 605 418 564 526 c 1
 649 526 l 1
EndSplineSet
EndChar

StartChar: uni03CA
Encoding: 970 970 407
Width: 276
Flags: W
LayerCount: 2
Fore
SplineSet
29 762 m 0
 59 762 82 739 82 709 c 0
 82 679 59 656 29 656 c 0
 -2 656 -25 679 -25 709 c 0
 -25 739 -2 762 29 762 c 0
233 762 m 0
 264 762 287 739 287 709 c 0
 287 679 264 656 233 656 c 0
 203 656 180 679 180 709 c 0
 180 739 203 762 233 762 c 0
173 526 m 1
 173 137 l 2
 173 84 186 67 219 52 c 1
 193 -11 l 1
 118 10 89 46 89 127 c 2
 89 526 l 1
 173 526 l 1
EndSplineSet
EndChar

StartChar: uni03CB
Encoding: 971 971 408
Width: 566
Flags: W
LayerCount: 2
Fore
SplineSet
181 762 m 0
 211 762 234 739 234 709 c 0
 234 679 211 656 181 656 c 0
 150 656 127 679 127 709 c 0
 127 739 150 762 181 762 c 0
385 762 m 0
 416 762 439 739 439 709 c 0
 439 679 416 656 385 656 c 0
 355 656 332 679 332 709 c 0
 332 739 355 762 385 762 c 0
467 526 m 1
 483 441 493 358 493 256 c 0
 493 67 377 -12 266 -12 c 0
 169 -12 89 48 89 162 c 2
 89 526 l 1
 173 526 l 1
 173 169 l 2
 173 92 209 56 269 56 c 0
 331 56 408 102 408 263 c 0
 408 340 400 430 382 526 c 1
 467 526 l 1
EndSplineSet
EndChar

StartChar: uni03CC
Encoding: 972 972 409
Width: 581
Flags: W
LayerCount: 2
Fore
SplineSet
263 799 m 1
 353 791 l 1
 320 597 l 1
 260 597 l 1
 263 799 l 1
291 538 m 0
 439 538 522 432 522 264 c 0
 522 99 437 -12 290 -12 c 0
 143 -12 59 95 59 262 c 0
 59 427 144 538 291 538 c 0
291 470 m 0
 201 470 149 403 149 262 c 0
 149 123 199 56 290 56 c 0
 381 56 432 123 432 264 c 0
 432 403 382 470 291 470 c 0
EndSplineSet
EndChar

StartChar: uni03CD
Encoding: 973 973 410
Width: 566
Flags: W
LayerCount: 2
Fore
SplineSet
257 799 m 1
 347 791 l 1
 314 597 l 1
 254 597 l 1
 257 799 l 1
467 526 m 1
 483 441 493 358 493 256 c 0
 493 67 377 -12 266 -12 c 0
 169 -12 89 48 89 162 c 2
 89 526 l 1
 173 526 l 1
 173 169 l 2
 173 92 209 56 269 56 c 0
 331 56 408 102 408 263 c 0
 408 340 400 430 382 526 c 1
 467 526 l 1
EndSplineSet
EndChar

StartChar: uni03CE
Encoding: 974 974 411
Width: 777
Flags: W
LayerCount: 2
Fore
SplineSet
362 799 m 1
 452 791 l 1
 419 597 l 1
 359 597 l 1
 362 799 l 1
649 526 m 1
 678 455 709 361 709 238 c 0
 709 59 624 -12 526 -12 c 0
 454 -12 402 25 389 106 c 1
 372 24 325 -12 245 -12 c 0
 149 -12 68 58 68 239 c 0
 68 361 98 452 128 526 c 1
 211 526 l 1
 170 418 153 336 153 238 c 0
 153 108 192 56 257 56 c 0
 308 56 348 78 348 181 c 2
 348 354 l 1
 429 366 l 1
 429 180 l 2
 429 89 465 56 517 56 c 0
 570 56 624 89 624 239 c 0
 624 336 605 418 564 526 c 1
 649 526 l 1
EndSplineSet
EndChar

StartChar: uni03D0
Encoding: 976 976 412
Width: 568
Flags: W
LayerCount: 2
Fore
SplineSet
342 435 m 0
 477 435 516 334 516 224 c 0
 516 101 436 -12 290 -12 c 0
 123 -12 61 119 61 346 c 0
 61 613 194 748 331 748 c 0
 444 748 478 682 478 627 c 0
 478 538 417 465 288 426 c 1
 313 433 328 435 342 435 c 0
328 684 m 0
 249 684 169 614 154 408 c 1
 194 425 l 2
 334 484 392 533 392 620 c 0
 392 664 367 684 328 684 c 0
289 56 m 0
 375 56 424 123 424 220 c 0
 424 319 398 385 297 385 c 0
 263 385 230 375 191 357 c 2
 152 339 l 1
 149 160 181 56 289 56 c 0
EndSplineSet
EndChar

StartChar: uni03D1
Encoding: 977 977 413
Width: 537
Flags: W
LayerCount: 2
Fore
SplineSet
520 473 m 1
 519 405 l 1
 483 405 l 1
 483 402 l 2
 483 129 408 -12 238 -12 c 0
 141 -12 62 48 62 162 c 2
 62 348 l 1
 146 348 l 1
 146 169 l 2
 146 92 181 55 242 56 c 0
 343 57 391 150 391 402 c 2
 391 405 l 1
 267 405 l 2
 109 405 43 477 43 575 c 0
 43 671 121 748 235 748 c 0
 387 748 464 640 480 473 c 1
 520 473 l 1
267 472 m 2
 388 472 l 1
 377 612 327 680 237 680 c 0
 168 680 127 636 127 577 c 0
 127 504 178 471 267 472 c 2
EndSplineSet
EndChar

StartChar: uni03D2
Encoding: 978 978 414
Width: 577
Flags: W
LayerCount: 2
Fore
SplineSet
228 0 m 1
 228 265 l 1
 7 688 l 1
 103 688 l 1
 275 341 l 1
 389 590 l 2
 425 668 463 700 531 700 c 0
 574 700 605 683 633 660 c 1
 599 611 l 1
 583 624 563 634 536 634 c 0
 505 634 487 619 461 566 c 2
 316 266 l 1
 316 0 l 1
 228 0 l 1
EndSplineSet
EndChar

StartChar: uni03D5
Encoding: 981 981 415
Width: 627
Flags: W
LayerCount: 2
Fore
SplineSet
580 265 m 0
 580 103 492 11 355 4 c 1
 355 -201 l 1
 271 -211 l 1
 271 5 l 1
 127 13 47 111 47 263 c 0
 47 423 135 515 271 523 c 1
 271 737 l 1
 355 747 l 1
 355 522 l 1
 500 514 580 415 580 265 c 0
138 263 m 0
 138 146 182 78 274 71 c 1
 274 457 l 1
 181 448 138 381 138 263 c 0
353 70 m 1
 445 79 489 146 489 265 c 0
 489 380 443 449 353 455 c 1
 353 70 l 1
EndSplineSet
EndChar

StartChar: uni03D6
Encoding: 982 982 416
Width: 728
Flags: W
LayerCount: 2
Fore
SplineSet
694 526 m 1
 694 457 l 1
 593 457 l 1
 633 396 665 319 665 218 c 0
 665 59 585 -12 492 -12 c 0
 429 -12 377 25 365 106 c 1
 348 24 301 -12 230 -12 c 0
 139 -12 63 58 63 219 c 0
 63 320 95 395 135 456 c 1
 127 456 l 2
 86 456 72 454 41 446 c 1
 26 511 l 1
 60 524 95 526 177 526 c 2
 694 526 l 1
580 219 m 0
 580 310 556 380 512 457 c 1
 214 456 l 1
 171 379 148 309 148 218 c 0
 148 108 182 56 240 56 c 0
 284 56 324 78 324 181 c 2
 324 323 l 1
 404 334 l 1
 404 180 l 2
 404 89 440 56 483 56 c 0
 531 56 580 89 580 219 c 0
EndSplineSet
EndChar

StartChar: uni03D7
Encoding: 983 983 417
Width: 598
Flags: W
LayerCount: 2
Fore
SplineSet
495 137 m 2
 495 84 508 64 541 51 c 1
 541 -60 l 2
 541 -160 484 -211 396 -211 c 0
 345 -211 309 -193 285 -174 c 1
 318 -121 l 1
 340 -134 359 -143 392 -143 c 0
 431 -143 457 -122 457 -67 c 2
 457 24 l 1
 423 46 410 82 410 139 c 0
 410 208 426 394 430 431 c 1
 194 -8 l 1
 103 19 l 1
 103 389 l 2
 103 442 90 459 57 474 c 1
 85 537 l 1
 160 517 189 472 189 386 c 0
 189 318 172 132 169 95 c 1
 405 534 l 1
 495 507 l 1
 495 137 l 2
EndSplineSet
EndChar

StartChar: uni03F0
Encoding: 1008 1008 418
Width: 598
Flags: W
LayerCount: 2
Fore
SplineSet
495 137 m 2
 495 84 508 67 542 52 c 1
 513 -11 l 1
 438 9 410 54 410 139 c 0
 410 208 426 394 430 431 c 1
 194 -8 l 1
 103 19 l 1
 103 389 l 2
 103 442 90 459 57 474 c 1
 85 537 l 1
 160 517 189 472 189 386 c 0
 189 318 172 132 169 95 c 1
 405 534 l 1
 495 507 l 1
 495 137 l 2
EndSplineSet
EndChar

StartChar: uni03F1
Encoding: 1009 1009 419
Width: 577
Flags: W
LayerCount: 2
Fore
SplineSet
307 -102 m 0
 401 -116 438 -141 453 -185 c 1
 376 -214 l 1
 361 -185 346 -178 254 -163 c 0
 139 -145 84 -103 84 13 c 2
 84 274 l 2
 84 446 156 538 296 538 c 0
 439 538 514 438 514 288 c 0
 514 147 442 22 309 22 c 0
 251 22 202 45 168 93 c 1
 168 13 l 2
 168 -67 196 -85 307 -102 c 0
297 472 m 0
 202 472 168 396 168 261 c 2
 168 169 l 1
 195 118 238 90 290 90 c 0
 375 90 423 165 423 288 c 0
 423 407 380 472 297 472 c 0
EndSplineSet
EndChar

StartChar: uni03F2
Encoding: 1010 1010 420
Width: 510
Flags: W
LayerCount: 2
Fore
SplineSet
307 538 m 0
 375 538 424 522 478 482 c 1
 438 429 l 1
 396 455 363 468 310 468 c 0
 214 468 149 401 149 260 c 0
 149 120 214 60 310 60 c 0
 365 60 397 74 441 100 c 1
 479 46 l 1
 430 8 377 -12 307 -12 c 0
 157 -12 59 89 59 259 c 0
 59 427 156 538 307 538 c 0
EndSplineSet
EndChar

StartChar: uni03F4
Encoding: 1012 1012 421
Width: 692
Flags: W
LayerCount: 2
Fore
SplineSet
346 700 m 0
 517 700 634 575 634 343 c 0
 634 116 518 -12 346 -12 c 0
 175 -12 58 112 58 342 c 0
 58 569 176 700 346 700 c 0
346 628 m 0
 236 628 158 555 147 383 c 1
 545 383 l 1
 535 555 459 628 346 628 c 0
346 60 m 0
 461 60 539 135 546 318 c 1
 146 318 l 1
 153 135 235 60 346 60 c 0
EndSplineSet
EndChar

StartChar: uni03F5
Encoding: 1013 1013 422
Width: 481
Flags: W
LayerCount: 2
Fore
SplineSet
292 57 m 0
 333 57 367 69 409 100 c 1
 449 45 l 1
 401 7 347 -12 291 -12 c 0
 147 -12 59 89 59 261 c 0
 59 430 149 538 289 538 c 0
 348 538 400 522 449 482 c 1
 409 430 l 1
 366 461 332 471 293 471 c 0
 211 471 154 413 147 302 c 1
 371 302 l 1
 371 238 l 1
 146 238 l 1
 152 113 208 57 292 57 c 0
EndSplineSet
EndChar

StartChar: uni03F6
Encoding: 1014 1014 423
Width: 482
Flags: W
LayerCount: 2
Fore
SplineSet
216 538 m 0
 342 538 423 452 423 266 c 0
 423 95 346 -12 198 -12 c 0
 130 -12 75 11 32 46 c 1
 72 100 l 1
 109 72 143 57 197 57 c 0
 276 57 329 110 335 238 c 1
 115 238 l 1
 115 302 l 1
 335 302 l 1
 327 420 285 471 213 471 c 0
 164 471 126 458 86 430 c 1
 47 481 l 1
 95 518 147 538 216 538 c 0
EndSplineSet
EndChar

StartChar: uni0400
Encoding: 1024 1024 424
Width: 530
Flags: W
LayerCount: 2
Fore
SplineSet
200 906 m 1
 398 801 l 1
 376 756 l 1
 164 834 l 1
 200 906 l 1
470 688 m 1
 460 618 l 1
 189 618 l 1
 189 386 l 1
 424 386 l 1
 424 316 l 1
 189 316 l 1
 189 70 l 1
 477 70 l 1
 477 0 l 1
 103 0 l 1
 103 688 l 1
 470 688 l 1
EndSplineSet
EndChar

StartChar: uni0401
Encoding: 1025 1025 425
Width: 530
Flags: W
LayerCount: 2
Fore
SplineSet
187 888 m 0
 217 888 240 865 240 835 c 0
 240 805 217 782 187 782 c 0
 156 782 133 805 133 835 c 0
 133 865 156 888 187 888 c 0
391 888 m 0
 422 888 445 865 445 835 c 0
 445 805 422 782 391 782 c 0
 361 782 338 805 338 835 c 0
 338 865 361 888 391 888 c 0
470 688 m 1
 460 618 l 1
 189 618 l 1
 189 386 l 1
 424 386 l 1
 424 316 l 1
 189 316 l 1
 189 70 l 1
 477 70 l 1
 477 0 l 1
 103 0 l 1
 103 688 l 1
 470 688 l 1
EndSplineSet
EndChar

StartChar: uni0402
Encoding: 1026 1026 426
Width: 713
Flags: W
LayerCount: 2
Fore
SplineSet
474 448 m 0
 603 448 676 369 676 236 c 2
 676 95 l 2
 676 -44 612 -96 501 -133 c 1
 478 -70 l 1
 569 -33 589 7 589 99 c 2
 589 235 l 2
 589 324 548 374 455 374 c 0
 384 374 338 346 299 296 c 1
 299 0 l 1
 213 0 l 1
 213 614 l 1
 15 614 l 1
 15 688 l 1
 502 688 l 1
 492 614 l 1
 299 614 l 1
 299 376 l 1
 340 421 395 448 474 448 c 0
EndSplineSet
EndChar

StartChar: uni0403
Encoding: 1027 1027 427
Width: 508
Flags: W
LayerCount: 2
Fore
SplineSet
435 834 m 1
 223 756 l 1
 201 801 l 1
 398 906 l 1
 435 834 l 1
498 688 m 1
 485 613 l 1
 189 613 l 1
 189 0 l 1
 103 0 l 1
 103 688 l 1
 498 688 l 1
EndSplineSet
EndChar

StartChar: uni0404
Encoding: 1028 1028 428
Width: 558
Flags: W
LayerCount: 2
Fore
SplineSet
494 119 m 1
 537 64 l 1
 499 25 434 -12 343 -12 c 0
 178 -12 58 113 58 345 c 0
 58 578 186 700 342 700 c 0
 427 700 475 676 529 633 c 1
 482 577 l 1
 438 612 397 628 347 628 c 0
 246 628 161 564 151 391 c 1
 414 391 l 1
 414 319 l 1
 150 319 l 1
 155 138 239 62 346 62 c 0
 412 62 454 89 494 119 c 1
EndSplineSet
EndChar

StartChar: uni0405
Encoding: 1029 1029 429
Width: 544
Flags: W
LayerCount: 2
Fore
SplineSet
269 700 m 0
 363 700 422 672 478 621 c 1
 431 568 l 1
 379 610 331 628 273 628 c 0
 200 628 145 593 145 526 c 0
 145 465 174 436 298 398 c 0
 411 364 500 320 500 191 c 0
 500 71 410 -12 259 -12 c 0
 161 -12 85 21 28 76 c 1
 76 130 l 1
 128 87 182 60 258 60 c 0
 342 60 410 103 410 188 c 0
 410 259 376 290 258 326 c 0
 123 367 56 418 56 523 c 0
 56 626 144 700 269 700 c 0
EndSplineSet
EndChar

StartChar: uni0406
Encoding: 1030 1030 430
Width: 292
Flags: W
LayerCount: 2
Fore
SplineSet
189 688 m 1
 189 0 l 1
 103 0 l 1
 103 688 l 1
 189 688 l 1
EndSplineSet
EndChar

StartChar: uni0407
Encoding: 1031 1031 431
Width: 292
Flags: W
LayerCount: 2
Fore
SplineSet
43 888 m 0
 73 888 96 865 96 835 c 0
 96 805 73 782 43 782 c 0
 12 782 -11 805 -11 835 c 0
 -11 865 12 888 43 888 c 0
247 888 m 0
 278 888 301 865 301 835 c 0
 301 805 278 782 247 782 c 0
 217 782 194 805 194 835 c 0
 194 865 217 888 247 888 c 0
189 688 m 1
 189 0 l 1
 103 0 l 1
 103 688 l 1
 189 688 l 1
EndSplineSet
EndChar

StartChar: uni0408
Encoding: 1032 1032 432
Width: 302
Flags: W
LayerCount: 2
Fore
SplineSet
204 688 m 1
 204 95 l 2
 204 -44 141 -96 30 -133 c 1
 7 -70 l 1
 98 -33 117 7 117 99 c 2
 117 688 l 1
 204 688 l 1
EndSplineSet
EndChar

StartChar: uni0409
Encoding: 1033 1033 433
Width: 897
Flags: W
LayerCount: 2
Fore
SplineSet
608 432 m 2
 769 432 869 364 869 221 c 0
 869 61 760 0 607 0 c 2
 438 0 l 1
 438 615 l 1
 243 615 l 1
 208 309 l 2
 181 67 150 25 39 -11 c 1
 17 57 l 1
 91 84 100 121 121 303 c 2
 167 688 l 1
 525 688 l 1
 525 432 l 1
 608 432 l 2
615 70 m 2
 709 70 777 100 777 220 c 0
 777 326 715 364 609 364 c 2
 525 364 l 1
 525 70 l 1
 615 70 l 2
EndSplineSet
EndChar

StartChar: uni040A
Encoding: 1034 1034 434
Width: 941
Flags: W
LayerCount: 2
Fore
SplineSet
667 412 m 2
 818 412 914 345 914 211 c 0
 914 61 805 0 661 0 c 2
 483 0 l 1
 483 344 l 1
 189 344 l 1
 189 0 l 1
 103 0 l 1
 103 688 l 1
 189 688 l 1
 189 412 l 1
 483 412 l 1
 483 688 l 1
 570 688 l 1
 570 412 l 1
 667 412 l 2
669 70 m 2
 754 70 822 100 822 210 c 0
 822 306 760 344 668 344 c 2
 570 344 l 1
 570 70 l 1
 669 70 l 2
EndSplineSet
EndChar

StartChar: uni040B
Encoding: 1035 1035 435
Width: 713
Flags: W
LayerCount: 2
Fore
SplineSet
472 448 m 0
 601 448 676 369 676 236 c 2
 676 0 l 1
 589 0 l 1
 589 235 l 2
 589 324 548 374 457 374 c 0
 387 374 338 346 299 296 c 1
 299 0 l 1
 213 0 l 1
 213 614 l 1
 15 614 l 1
 15 688 l 1
 502 688 l 1
 492 614 l 1
 299 614 l 1
 299 376 l 1
 340 421 395 448 472 448 c 0
EndSplineSet
EndChar

StartChar: uni040C
Encoding: 1036 1036 436
Width: 582
Flags: W
LayerCount: 2
Fore
SplineSet
374 906 m 1
 411 834 l 1
 199 756 l 1
 177 801 l 1
 374 906 l 1
553 688 m 1
 360 365 l 1
 572 0 l 1
 471 0 l 1
 287 326 l 1
 189 326 l 1
 189 0 l 1
 103 0 l 1
 103 688 l 1
 189 688 l 1
 189 398 l 1
 288 398 l 1
 462 688 l 1
 553 688 l 1
EndSplineSet
EndChar

StartChar: uni040D
Encoding: 1037 1037 437
Width: 681
Flags: W
LayerCount: 2
Fore
SplineSet
251 906 m 1
 449 801 l 1
 427 756 l 1
 215 834 l 1
 251 906 l 1
578 688 m 1
 578 0 l 1
 491 0 l 1
 491 343 l 2
 491 450 498 539 503 591 c 1
 214 0 l 1
 103 0 l 1
 103 688 l 1
 189 688 l 1
 189 345 l 2
 189 226 184 153 177 94 c 1
 470 688 l 1
 578 688 l 1
EndSplineSet
EndChar

StartChar: uni040E
Encoding: 1038 1038 438
Width: 535
Flags: W
LayerCount: 2
Fore
SplineSet
267 760 m 0
 190 760 130 801 122 871 c 1
 178 883 l 1
 192 841 220 824 267 824 c 0
 314 824 345 841 359 883 c 1
 415 871 l 1
 407 801 346 760 267 760 c 0
538 688 m 1
 338 187 l 2
 284 52 233 9 109 -12 c 1
 96 52 l 1
 187 70 223 98 256 190 c 1
 225 190 l 1
 2 688 l 1
 93 688 l 1
 282 243 l 1
 450 688 l 1
 538 688 l 1
EndSplineSet
EndChar

StartChar: uni040F
Encoding: 1039 1039 439
Width: 664
Flags: W
LayerCount: 2
Fore
SplineSet
561 688 m 1
 561 0 l 1
 369 0 l 1
 369 -149 l 1
 300 -149 l 1
 286 0 l 1
 103 0 l 1
 103 688 l 1
 189 688 l 1
 189 72 l 1
 474 72 l 1
 474 688 l 1
 561 688 l 1
EndSplineSet
EndChar

StartChar: uni0410
Encoding: 1040 1040 440
Width: 571
Flags: W
LayerCount: 2
Fore
SplineSet
471 0 m 1
 418 176 l 1
 150 176 l 1
 96 0 l 1
 8 0 l 1
 231 688 l 1
 341 688 l 1
 563 0 l 1
 471 0 l 1
172 247 m 1
 396 247 l 1
 284 616 l 1
 172 247 l 1
EndSplineSet
EndChar

StartChar: uni0411
Encoding: 1041 1041 441
Width: 577
Flags: W
LayerCount: 2
Fore
SplineSet
285 427 m 2
 444 427 543 360 543 219 c 0
 543 61 435 0 281 0 c 2
 103 0 l 1
 103 688 l 1
 471 688 l 1
 460 616 l 1
 189 616 l 1
 189 427 l 1
 285 427 l 2
289 70 m 2
 383 70 451 100 451 217 c 0
 451 321 390 359 286 359 c 2
 189 359 l 1
 189 70 l 1
 289 70 l 2
EndSplineSet
EndChar

StartChar: uni0412
Encoding: 1042 1042 442
Width: 606
Flags: W
LayerCount: 2
Fore
SplineSet
400 364 m 1
 481 351 559 312 559 195 c 0
 559 52 450 0 292 0 c 2
 103 0 l 1
 103 688 l 1
 263 688 l 2
 430 688 528 634 528 515 c 0
 528 429 468 378 400 364 c 1
272 619 m 2
 189 619 l 1
 189 394 l 1
 301 394 l 2
 380 394 439 434 439 509 c 0
 439 595 377 619 272 619 c 2
292 70 m 2
 395 70 467 94 467 195 c 0
 467 293 395 327 310 327 c 2
 189 327 l 1
 189 70 l 1
 292 70 l 2
EndSplineSet
EndChar

StartChar: uni0413
Encoding: 1043 1043 443
Width: 508
Flags: W
LayerCount: 2
Fore
SplineSet
498 688 m 1
 485 613 l 1
 189 613 l 1
 189 0 l 1
 103 0 l 1
 103 688 l 1
 498 688 l 1
EndSplineSet
EndChar

StartChar: uni0414
Encoding: 1044 1044 444
Width: 609
Flags: W
LayerCount: 2
Fore
SplineSet
506 72 m 1
 561 72 l 1
 561 -149 l 1
 493 -149 l 1
 478 0 l 1
 73 0 l 1
 59 -149 l 1
 -9 -149 l 1
 -9 72 l 1
 37 72 l 1
 89 123 100 191 137 475 c 2
 163 688 l 1
 506 688 l 1
 506 72 l 1
419 72 m 1
 419 616 l 1
 239 616 l 1
 223 472 l 2
 192 203 177 125 111 72 c 1
 419 72 l 1
EndSplineSet
EndChar

StartChar: uni0415
Encoding: 1045 1045 445
Width: 530
Flags: W
LayerCount: 2
Fore
SplineSet
470 688 m 1
 460 618 l 1
 189 618 l 1
 189 386 l 1
 424 386 l 1
 424 316 l 1
 189 316 l 1
 189 70 l 1
 477 70 l 1
 477 0 l 1
 103 0 l 1
 103 688 l 1
 470 688 l 1
EndSplineSet
EndChar

StartChar: uni0416
Encoding: 1046 1046 446
Width: 810
Flags: W
LayerCount: 2
Fore
SplineSet
785 688 m 1
 602 365 l 1
 803 0 l 1
 706 0 l 1
 531 326 l 1
 446 326 l 1
 446 0 l 1
 363 0 l 1
 363 326 l 1
 278 326 l 1
 102 0 l 1
 6 0 l 1
 208 365 l 1
 25 688 l 1
 118 688 l 1
 279 398 l 1
 363 398 l 1
 363 688 l 1
 446 688 l 1
 446 398 l 1
 531 398 l 1
 694 688 l 1
 785 688 l 1
EndSplineSet
EndChar

StartChar: uni0417
Encoding: 1047 1047 447
Width: 521
Flags: W
LayerCount: 2
Fore
SplineSet
231 -12 m 0
 147 -12 69 18 13 81 c 1
 64 131 l 1
 105 88 157 62 227 62 c 0
 324 62 381 113 381 198 c 0
 381 281 328 329 224 329 c 2
 159 329 l 1
 171 400 l 1
 225 400 l 2
 307 400 361 444 361 518 c 0
 361 579 325 628 240 628 c 0
 181 628 128 605 77 563 c 1
 31 615 l 1
 94 671 163 700 246 700 c 0
 382 700 451 623 451 525 c 0
 451 438 396 387 317 369 c 1
 401 360 474 305 474 198 c 0
 474 71 371 -12 231 -12 c 0
EndSplineSet
EndChar

StartChar: uni0418
Encoding: 1048 1048 448
Width: 681
Flags: W
LayerCount: 2
Fore
SplineSet
578 688 m 1
 578 0 l 1
 491 0 l 1
 491 343 l 2
 491 450 498 539 503 591 c 1
 214 0 l 1
 103 0 l 1
 103 688 l 1
 189 688 l 1
 189 345 l 2
 189 226 184 153 177 94 c 1
 470 688 l 1
 578 688 l 1
EndSplineSet
EndChar

StartChar: uni0419
Encoding: 1049 1049 449
Width: 681
Flags: W
LayerCount: 2
Fore
SplineSet
339 760 m 0
 262 760 202 801 194 871 c 1
 250 883 l 1
 264 841 292 824 339 824 c 0
 386 824 417 841 431 883 c 1
 487 871 l 1
 479 801 418 760 339 760 c 0
578 688 m 1
 578 0 l 1
 491 0 l 1
 491 343 l 2
 491 450 498 539 503 591 c 1
 214 0 l 1
 103 0 l 1
 103 688 l 1
 189 688 l 1
 189 345 l 2
 189 226 184 153 177 94 c 1
 470 688 l 1
 578 688 l 1
EndSplineSet
EndChar

StartChar: uni041A
Encoding: 1050 1050 450
Width: 582
Flags: W
LayerCount: 2
Fore
SplineSet
553 688 m 1
 360 365 l 1
 572 0 l 1
 471 0 l 1
 287 326 l 1
 189 326 l 1
 189 0 l 1
 103 0 l 1
 103 688 l 1
 189 688 l 1
 189 398 l 1
 288 398 l 1
 462 688 l 1
 553 688 l 1
EndSplineSet
EndChar

StartChar: uni041B
Encoding: 1051 1051 451
Width: 656
Flags: W
LayerCount: 2
Fore
SplineSet
167 688 m 1
 554 688 l 1
 554 0 l 1
 467 0 l 1
 467 615 l 1
 243 615 l 1
 208 309 l 2
 181 67 150 25 39 -11 c 1
 17 57 l 1
 91 84 100 121 121 303 c 2
 167 688 l 1
EndSplineSet
EndChar

StartChar: uni041C
Encoding: 1052 1052 452
Width: 776
Flags: W
LayerCount: 2
Fore
SplineSet
653 688 m 1
 713 0 l 1
 629 0 l 1
 603 315 l 2
 593 424 585 542 584 600 c 1
 429 79 l 1
 348 79 l 1
 186 601 l 1
 185 523 179 412 170 310 c 2
 146 0 l 1
 64 0 l 1
 122 688 l 1
 240 688 l 1
 391 179 l 1
 535 688 l 1
 653 688 l 1
EndSplineSet
EndChar

StartChar: uni041D
Encoding: 1053 1053 453
Width: 678
Flags: W
LayerCount: 2
Fore
SplineSet
488 0 m 1
 488 326 l 1
 189 326 l 1
 189 0 l 1
 103 0 l 1
 103 688 l 1
 189 688 l 1
 189 398 l 1
 488 398 l 1
 488 688 l 1
 575 688 l 1
 575 0 l 1
 488 0 l 1
EndSplineSet
EndChar

StartChar: uni041E
Encoding: 1054 1054 454
Width: 692
Flags: W
LayerCount: 2
Fore
SplineSet
346 700 m 0
 517 700 634 575 634 343 c 0
 634 116 518 -12 346 -12 c 0
 175 -12 58 112 58 342 c 0
 58 569 176 700 346 700 c 0
346 628 m 0
 228 628 150 544 150 342 c 0
 150 142 230 60 346 60 c 0
 466 60 542 142 542 343 c 0
 542 544 467 628 346 628 c 0
EndSplineSet
EndChar

StartChar: uni041F
Encoding: 1055 1055 455
Width: 673
Flags: W
LayerCount: 2
Fore
SplineSet
570 688 m 1
 570 0 l 1
 483 0 l 1
 483 614 l 1
 189 614 l 1
 189 0 l 1
 103 0 l 1
 103 688 l 1
 570 688 l 1
EndSplineSet
EndChar

StartChar: uni0420
Encoding: 1056 1056 456
Width: 578
Flags: W
LayerCount: 2
Fore
SplineSet
279 688 m 2
 443 688 543 621 543 477 c 0
 543 320 430 256 279 256 c 2
 189 256 l 1
 189 0 l 1
 103 0 l 1
 103 688 l 1
 279 688 l 2
276 325 m 2
 381 325 451 357 451 476 c 0
 451 582 384 620 278 620 c 2
 189 620 l 1
 189 325 l 1
 276 325 l 2
EndSplineSet
EndChar

StartChar: uni0421
Encoding: 1057 1057 457
Width: 558
Flags: W
LayerCount: 2
Fore
SplineSet
342 700 m 0
 427 700 475 676 529 633 c 1
 482 577 l 1
 438 612 397 628 347 628 c 0
 239 628 150 555 150 344 c 0
 150 143 236 62 346 62 c 0
 412 62 454 89 494 119 c 1
 537 64 l 1
 498 25 434 -12 343 -12 c 0
 178 -12 58 113 58 344 c 0
 58 578 186 700 342 700 c 0
EndSplineSet
EndChar

StartChar: uni0422
Encoding: 1058 1058 458
Width: 512
Flags: W
LayerCount: 2
Fore
SplineSet
502 688 m 1
 492 614 l 1
 299 614 l 1
 299 0 l 1
 213 0 l 1
 213 614 l 1
 15 614 l 1
 15 688 l 1
 502 688 l 1
EndSplineSet
EndChar

StartChar: uni0423
Encoding: 1059 1059 459
Width: 535
Flags: W
LayerCount: 2
Fore
SplineSet
538 688 m 1
 338 187 l 2
 284 52 233 9 109 -12 c 1
 96 52 l 1
 187 70 223 98 256 190 c 1
 225 190 l 1
 2 688 l 1
 93 688 l 1
 282 243 l 1
 450 688 l 1
 538 688 l 1
EndSplineSet
EndChar

StartChar: uni0424
Encoding: 1060 1060 460
Width: 815
Flags: W
LayerCount: 2
Fore
SplineSet
774 350 m 0
 774 148 651 50 450 45 c 1
 450 -31 l 1
 366 -31 l 1
 366 45 l 1
 152 54 41 160 41 348 c 0
 41 550 165 648 366 652 c 1
 366 722 l 1
 450 722 l 1
 450 652 l 1
 663 644 774 538 774 350 c 0
131 348 m 0
 131 189 211 117 368 111 c 1
 368 588 l 1
 210 579 131 512 131 348 c 0
448 110 m 1
 605 119 685 186 685 350 c 0
 685 509 605 581 448 587 c 1
 448 110 l 1
EndSplineSet
EndChar

StartChar: uni0425
Encoding: 1061 1061 461
Width: 534
Flags: W
LayerCount: 2
Fore
SplineSet
317 372 m 1
 528 0 l 1
 429 0 l 1
 265 311 l 1
 100 0 l 1
 6 0 l 1
 214 367 l 1
 25 688 l 1
 123 688 l 1
 267 425 l 1
 410 688 l 1
 503 688 l 1
 317 372 l 1
EndSplineSet
EndChar

StartChar: uni0426
Encoding: 1062 1062 462
Width: 664
Flags: W
LayerCount: 2
Fore
SplineSet
561 72 m 1
 639 72 l 1
 639 -149 l 1
 571 -149 l 1
 556 0 l 1
 103 0 l 1
 103 688 l 1
 189 688 l 1
 189 72 l 1
 474 72 l 1
 474 688 l 1
 561 688 l 1
 561 72 l 1
EndSplineSet
EndChar

StartChar: uni0427
Encoding: 1063 1063 463
Width: 608
Flags: W
LayerCount: 2
Fore
SplineSet
418 688 m 1
 505 688 l 1
 505 0 l 1
 418 0 l 1
 418 281 l 1
 362 238 314 218 242 218 c 0
 121 218 41 297 41 423 c 2
 41 688 l 1
 128 688 l 1
 128 429 l 2
 128 336 177 293 263 293 c 0
 334 293 384 320 418 354 c 1
 418 688 l 1
EndSplineSet
EndChar

StartChar: uni0428
Encoding: 1064 1064 464
Width: 922
Flags: W
LayerCount: 2
Fore
SplineSet
819 688 m 1
 819 0 l 1
 103 0 l 1
 103 688 l 1
 188 688 l 1
 188 72 l 1
 420 72 l 1
 420 688 l 1
 502 688 l 1
 502 72 l 1
 734 72 l 1
 734 688 l 1
 819 688 l 1
EndSplineSet
EndChar

StartChar: uni0429
Encoding: 1065 1065 465
Width: 922
Flags: W
LayerCount: 2
Fore
SplineSet
819 72 m 1
 897 72 l 1
 897 -149 l 1
 829 -149 l 1
 814 0 l 1
 103 0 l 1
 103 688 l 1
 188 688 l 1
 188 72 l 1
 420 72 l 1
 420 688 l 1
 502 688 l 1
 502 72 l 1
 734 72 l 1
 734 688 l 1
 819 688 l 1
 819 72 l 1
EndSplineSet
EndChar

StartChar: uni042A
Encoding: 1066 1066 466
Width: 681
Flags: W
LayerCount: 2
Fore
SplineSet
395 433 m 2
 553 433 653 365 653 222 c 0
 653 61 544 0 391 0 c 2
 213 0 l 1
 213 614 l 1
 15 614 l 1
 15 688 l 1
 299 688 l 1
 299 433 l 1
 395 433 l 2
399 70 m 2
 493 70 561 100 561 220 c 0
 561 327 500 365 396 365 c 2
 299 365 l 1
 299 70 l 1
 399 70 l 2
EndSplineSet
EndChar

StartChar: uni042B
Encoding: 1067 1067 467
Width: 814
Flags: W
LayerCount: 2
Fore
SplineSet
272 433 m 2
 434 433 533 365 533 222 c 0
 533 61 425 0 271 0 c 2
 103 0 l 1
 103 688 l 1
 189 688 l 1
 189 433 l 1
 272 433 l 2
625 688 m 1
 711 688 l 1
 711 0 l 1
 625 0 l 1
 625 688 l 1
279 70 m 2
 373 70 441 100 441 220 c 0
 441 327 380 365 273 365 c 2
 189 365 l 1
 189 70 l 1
 279 70 l 2
EndSplineSet
EndChar

StartChar: uni042C
Encoding: 1068 1068 468
Width: 571
Flags: W
LayerCount: 2
Fore
SplineSet
285 433 m 2
 444 433 543 365 543 222 c 0
 543 61 435 0 281 0 c 2
 103 0 l 1
 103 688 l 1
 189 688 l 1
 189 433 l 1
 285 433 l 2
289 70 m 2
 383 70 451 100 451 220 c 0
 451 327 390 365 286 365 c 2
 189 365 l 1
 189 70 l 1
 289 70 l 2
EndSplineSet
EndChar

StartChar: uni042D
Encoding: 1069 1069 469
Width: 535
Flags: W
LayerCount: 2
Fore
SplineSet
228 700 m 0
 369 700 477 605 477 344 c 0
 477 113 379 -12 213 -12 c 0
 122 -12 64 22 21 62 c 1
 65 116 l 1
 105 85 143 62 210 62 c 0
 318 62 381 139 385 319 c 1
 115 319 l 1
 115 391 l 1
 384 391 l 1
 378 570 311 628 227 628 c 0
 164 628 124 612 74 576 c 1
 29 630 l 1
 83 674 144 700 228 700 c 0
EndSplineSet
EndChar

StartChar: uni042E
Encoding: 1070 1070 470
Width: 894
Flags: W
LayerCount: 2
Fore
SplineSet
558 700 m 0
 727 700 837 575 837 343 c 0
 837 116 727 -12 558 -12 c 0
 396 -12 290 106 281 321 c 1
 189 321 l 1
 189 0 l 1
 103 0 l 1
 103 688 l 1
 189 688 l 1
 189 393 l 1
 282 393 l 1
 300 589 404 700 558 700 c 0
558 60 m 0
 673 60 744 142 744 343 c 0
 744 544 674 628 558 628 c 0
 446 628 372 543 372 339 c 0
 372 142 448 60 558 60 c 0
EndSplineSet
EndChar

StartChar: uni042F
Encoding: 1071 1071 471
Width: 603
Flags: W
LayerCount: 2
Fore
SplineSet
311 688 m 2
 501 688 l 1
 501 0 l 1
 414 0 l 1
 414 274 l 1
 268 274 l 1
 131 0 l 1
 33 0 l 1
 184 290 l 1
 96 322 50 389 50 478 c 0
 50 609 136 688 311 688 c 2
285 343 m 2
 414 343 l 1
 414 620 l 1
 317 620 l 2
 192 620 142 573 142 478 c 0
 142 387 200 343 285 343 c 2
EndSplineSet
EndChar

StartChar: uni0430
Encoding: 1072 1072 472
Width: 537
Flags: W
LayerCount: 2
Fore
SplineSet
441 121 m 2
 441 72 457 57 485 47 c 1
 465 -12 l 1
 414 -5 381 17 367 69 c 1
 331 13 275 -12 209 -12 c 0
 105 -12 43 53 43 147 c 0
 43 259 127 319 271 319 c 2
 357 319 l 1
 357 361 l 2
 357 439 320 469 244 469 c 0
 204 469 156 459 102 440 c 1
 81 502 l 1
 144 526 201 538 259 538 c 0
 384 538 441 474 441 365 c 2
 441 121 l 2
228 52 m 0
 285 52 326 81 357 137 c 1
 357 263 l 1
 282 263 l 2
 184 263 132 226 132 151 c 0
 132 87 165 52 228 52 c 0
EndSplineSet
EndChar

StartChar: uni0431
Encoding: 1073 1073 473
Width: 582
Flags: W
LayerCount: 2
Fore
SplineSet
333 493 m 0
 452 493 528 402 528 251 c 0
 528 80 436 -12 300 -12 c 0
 167 -12 70 80 70 289 c 0
 70 508 109 617 269 672 c 0
 345 699 385 716 435 749 c 1
 470 686 l 1
 433 662 385 636 309 610 c 0
 216 578 170 540 157 390 c 1
 192 450 253 493 333 493 c 0
300 56 m 0
 375 56 438 96 438 248 c 0
 438 376 392 425 318 425 c 0
 255 425 196 391 160 319 c 1
 160 259 l 2
 160 128 213 56 300 56 c 0
EndSplineSet
EndChar

StartChar: uni0432
Encoding: 1074 1074 474
Width: 558
Flags: W
LayerCount: 2
Fore
SplineSet
366 285 m 1
 454 277 499 235 499 161 c 0
 499 47 407 0 280 0 c 2
 95 0 l 1
 95 519 l 1
 148 530 208 538 265 538 c 0
 391 538 472 488 472 396 c 0
 472 336 435 297 366 285 c 1
266 473 m 0
 233 473 207 470 179 466 c 1
 179 310 l 1
 284 310 l 2
 345 310 386 332 386 392 c 0
 386 448 346 473 266 473 c 0
280 66 m 2
 353 66 411 86 411 162 c 0
 411 221 376 248 286 248 c 2
 179 248 l 1
 179 66 l 1
 280 66 l 2
EndSplineSet
EndChar

StartChar: uni0433
Encoding: 1075 1075 475
Width: 425
Flags: W
LayerCount: 2
Fore
SplineSet
179 0 m 1
 95 0 l 1
 95 526 l 1
 419 526 l 1
 408 456 l 1
 179 456 l 1
 179 0 l 1
EndSplineSet
EndChar

StartChar: uni0434
Encoding: 1076 1076 476
Width: 556
Flags: W
LayerCount: 2
Fore
SplineSet
459 68 m 1
 513 68 l 1
 513 -149 l 1
 444 -149 l 1
 430 0 l 1
 84 0 l 1
 69 -149 l 1
 1 -149 l 1
 1 68 l 1
 37 68 l 1
 78 95 106 121 121 329 c 2
 135 526 l 1
 459 526 l 1
 459 68 l 1
375 68 m 1
 375 459 l 1
 211 459 l 1
 202 340 l 2
 189 152 171 108 113 68 c 1
 375 68 l 1
EndSplineSet
EndChar

StartChar: uni0435
Encoding: 1077 1077 477
Width: 542
Flags: W
LayerCount: 2
Fore
SplineSet
489 280 m 0
 489 262 488 245 487 234 c 1
 148 234 l 1
 156 107 216 57 295 57 c 0
 348 57 387 72 433 104 c 1
 470 54 l 1
 419 13 361 -12 289 -12 c 0
 144 -12 59 91 59 258 c 0
 59 423 141 538 275 538 c 0
 416 538 489 439 489 280 c 0
406 296 m 1
 406 304 l 2
 406 410 364 471 277 471 c 0
 204 471 155 419 148 296 c 1
 406 296 l 1
EndSplineSet
EndChar

StartChar: uni0436
Encoding: 1078 1078 478
Width: 724
Flags: W
LayerCount: 2
Fore
SplineSet
677 526 m 1
 545 280 l 1
 697 0 l 1
 605 0 l 1
 476 242 l 1
 402 242 l 1
 402 0 l 1
 322 0 l 1
 322 242 l 1
 248 242 l 1
 119 0 l 1
 28 0 l 1
 180 280 l 1
 47 526 l 1
 135 526 l 1
 247 308 l 1
 322 308 l 1
 322 526 l 1
 402 526 l 1
 402 308 l 1
 477 308 l 1
 590 526 l 1
 677 526 l 1
EndSplineSet
EndChar

StartChar: uni0437
Encoding: 1079 1079 479
Width: 490
Flags: W
LayerCount: 2
Fore
SplineSet
224 538 m 0
 321 538 409 489 409 397 c 0
 409 336 376 300 303 281 c 1
 388 268 437 232 437 154 c 0
 437 41 339 -12 218 -12 c 0
 130 -12 67 15 17 55 c 1
 61 107 l 1
 106 74 149 56 215 56 c 0
 286 56 347 79 347 155 c 0
 347 223 286 242 205 242 c 2
 137 242 l 1
 143 308 l 1
 196 308 l 2
 268 308 323 333 323 393 c 0
 323 450 275 472 215 472 c 0
 155 472 117 455 77 428 c 1
 36 479 l 1
 88 517 145 538 224 538 c 0
EndSplineSet
EndChar

StartChar: uni0438
Encoding: 1080 1080 480
Width: 593
Flags: W
LayerCount: 2
Fore
SplineSet
498 526 m 1
 498 0 l 1
 415 0 l 1
 415 258 l 2
 415 344 423 416 425 431 c 1
 194 0 l 1
 95 0 l 1
 95 526 l 1
 178 526 l 1
 178 272 l 2
 178 196 171 116 169 98 c 1
 397 526 l 1
 498 526 l 1
EndSplineSet
EndChar

StartChar: uni0439
Encoding: 1081 1081 481
Width: 593
Flags: W
LayerCount: 2
Fore
SplineSet
295 645 m 0
 218 645 158 687 150 757 c 1
 206 769 l 1
 220 727 248 710 295 710 c 0
 342 710 373 727 387 769 c 1
 443 757 l 1
 435 687 374 645 295 645 c 0
498 526 m 1
 498 0 l 1
 415 0 l 1
 415 258 l 2
 415 344 423 416 425 431 c 1
 194 0 l 1
 95 0 l 1
 95 526 l 1
 178 526 l 1
 178 272 l 2
 178 196 171 116 169 98 c 1
 397 526 l 1
 498 526 l 1
EndSplineSet
EndChar

StartChar: uni043A
Encoding: 1082 1082 482
Width: 517
Flags: W
LayerCount: 2
Fore
SplineSet
479 526 m 1
 318 282 l 1
 500 0 l 1
 400 0 l 1
 249 246 l 1
 179 246 l 1
 179 0 l 1
 95 0 l 1
 95 526 l 1
 179 526 l 1
 179 312 l 1
 250 312 l 1
 387 526 l 1
 479 526 l 1
EndSplineSet
EndChar

StartChar: uni043B
Encoding: 1083 1083 483
Width: 572
Flags: W
LayerCount: 2
Fore
SplineSet
144 526 m 1
 477 526 l 1
 477 0 l 1
 393 0 l 1
 393 457 l 1
 220 457 l 1
 205 277 l 2
 188 74 170 23 60 -11 c 1
 39 56 l 1
 104 79 108 108 123 286 c 2
 144 526 l 1
EndSplineSet
EndChar

StartChar: uni043C
Encoding: 1084 1084 484
Width: 668
Flags: W
LayerCount: 2
Fore
SplineSet
559 526 m 1
 606 0 l 1
 524 0 l 1
 499 262 l 2
 494 320 493 371 493 444 c 1
 367 60 l 1
 287 60 l 1
 168 443 l 1
 168 381 168 318 163 263 c 2
 143 0 l 1
 62 0 l 1
 109 526 l 1
 217 526 l 1
 328 144 l 1
 448 526 l 1
 559 526 l 1
EndSplineSet
EndChar

StartChar: uni043D
Encoding: 1085 1085 485
Width: 587
Flags: W
LayerCount: 2
Fore
SplineSet
408 0 m 1
 408 235 l 1
 179 235 l 1
 179 0 l 1
 95 0 l 1
 95 526 l 1
 179 526 l 1
 179 303 l 1
 408 303 l 1
 408 526 l 1
 492 526 l 1
 492 0 l 1
 408 0 l 1
EndSplineSet
EndChar

StartChar: uni043E
Encoding: 1086 1086 486
Width: 581
Flags: W
LayerCount: 2
Fore
SplineSet
291 538 m 0
 439 538 522 432 522 264 c 0
 522 99 437 -12 290 -12 c 0
 143 -12 59 95 59 262 c 0
 59 427 144 538 291 538 c 0
291 470 m 0
 201 470 149 403 149 262 c 0
 149 123 199 56 290 56 c 0
 381 56 432 123 432 264 c 0
 432 403 382 470 291 470 c 0
EndSplineSet
EndChar

StartChar: uni043F
Encoding: 1087 1087 487
Width: 584
Flags: W
LayerCount: 2
Fore
SplineSet
405 0 m 1
 405 457 l 1
 179 457 l 1
 179 0 l 1
 95 0 l 1
 95 526 l 1
 489 526 l 1
 489 0 l 1
 405 0 l 1
EndSplineSet
EndChar

StartChar: uni0440
Encoding: 1088 1088 488
Width: 583
Flags: W
LayerCount: 2
Fore
SplineSet
331 538 m 0
 468 538 525 431 525 264 c 0
 525 103 454 -12 320 -12 c 0
 260 -12 213 9 179 51 c 1
 179 -201 l 1
 95 -211 l 1
 95 526 l 1
 167 526 l 1
 174 453 l 1
 212 507 268 538 331 538 c 0
300 57 m 0
 387 57 434 123 434 264 c 0
 434 404 393 471 311 471 c 0
 252 471 209 431 179 386 c 1
 179 125 l 1
 208 82 249 57 300 57 c 0
EndSplineSet
EndChar

StartChar: uni0441
Encoding: 1089 1089 489
Width: 476
Flags: W
LayerCount: 2
Fore
SplineSet
287 538 m 0
 348 538 397 522 445 482 c 1
 404 429 l 1
 369 455 335 468 290 468 c 0
 204 468 149 401 149 260 c 0
 149 120 204 60 290 60 c 0
 335 60 367 74 406 101 c 1
 445 46 l 1
 400 8 347 -12 287 -12 c 0
 147 -12 59 89 59 259 c 0
 59 427 146 538 287 538 c 0
EndSplineSet
EndChar

StartChar: uni0442
Encoding: 1090 1090 490
Width: 447
Flags: W
LayerCount: 2
Fore
SplineSet
445 526 m 1
 435 457 l 1
 265 457 l 1
 265 0 l 1
 181 0 l 1
 181 457 l 1
 6 457 l 1
 6 526 l 1
 445 526 l 1
EndSplineSet
EndChar

StartChar: uni0443
Encoding: 1091 1091 491
Width: 486
Flags: W
LayerCount: 2
Fore
SplineSet
475 526 m 1
 298 -3 l 2
 261 -115 202 -193 61 -211 c 1
 51 -145 l 1
 158 -125 187 -84 218 0 c 1
 189 0 l 1
 11 526 l 1
 101 526 l 1
 246 61 l 1
 388 526 l 1
 475 526 l 1
EndSplineSet
EndChar

StartChar: uni0444
Encoding: 1092 1092 492
Width: 802
Flags: W
LayerCount: 2
Fore
SplineSet
567 538 m 0
 699 538 743 429 743 264 c 0
 743 98 679 -12 564 -12 c 0
 513 -12 472 12 441 56 c 1
 441 -201 l 1
 361 -211 l 1
 361 56 l 1
 330 12 284 -12 231 -12 c 0
 123 -12 59 98 59 264 c 0
 59 430 105 538 232 538 c 0
 281 538 327 520 361 476 c 1
 361 748 l 1
 441 738 l 1
 441 475 l 1
 474 520 518 538 567 538 c 0
249 55 m 0
 295 55 333 82 361 126 c 1
 361 406 l 1
 332 447 294 471 249 471 c 0
 185 471 149 403 149 264 c 0
 149 125 186 55 249 55 c 0
550 55 m 0
 614 55 653 125 653 264 c 0
 653 403 618 471 550 471 c 0
 504 471 468 446 441 404 c 1
 441 124 l 1
 469 81 502 55 550 55 c 0
EndSplineSet
EndChar

StartChar: uni0445
Encoding: 1093 1093 493
Width: 479
Flags: W
LayerCount: 2
Fore
SplineSet
289 282 m 1
 473 0 l 1
 371 0 l 1
 237 228 l 1
 101 0 l 1
 6 0 l 1
 190 278 l 1
 28 526 l 1
 126 526 l 1
 241 329 l 1
 356 526 l 1
 451 526 l 1
 289 282 l 1
EndSplineSet
EndChar

StartChar: uni0446
Encoding: 1094 1094 494
Width: 584
Flags: W
LayerCount: 2
Fore
SplineSet
483 68 m 1
 563 68 l 1
 563 -149 l 1
 495 -149 l 1
 481 0 l 1
 95 0 l 1
 95 526 l 1
 179 526 l 1
 179 69 l 1
 399 69 l 1
 399 526 l 1
 483 526 l 1
 483 68 l 1
EndSplineSet
EndChar

StartChar: uni0447
Encoding: 1095 1095 495
Width: 547
Flags: W
LayerCount: 2
Fore
SplineSet
368 526 m 1
 452 526 l 1
 452 0 l 1
 368 0 l 1
 368 226 l 1
 330 189 271 165 207 165 c 0
 109 165 56 221 56 318 c 2
 56 526 l 1
 140 526 l 1
 140 328 l 2
 140 259 170 231 230 231 c 0
 278 231 337 255 368 292 c 1
 368 526 l 1
EndSplineSet
EndChar

StartChar: uni0448
Encoding: 1096 1096 496
Width: 791
Flags: W
LayerCount: 2
Fore
SplineSet
696 526 m 1
 696 0 l 1
 95 0 l 1
 95 526 l 1
 177 526 l 1
 177 68 l 1
 355 68 l 1
 355 526 l 1
 436 526 l 1
 436 68 l 1
 614 68 l 1
 614 526 l 1
 696 526 l 1
EndSplineSet
EndChar

StartChar: uni0449
Encoding: 1097 1097 497
Width: 796
Flags: W
LayerCount: 2
Fore
SplineSet
696 68 m 1
 776 68 l 1
 776 -149 l 1
 708 -149 l 1
 693 0 l 1
 95 0 l 1
 95 526 l 1
 177 526 l 1
 177 68 l 1
 355 68 l 1
 355 526 l 1
 436 526 l 1
 436 68 l 1
 614 68 l 1
 614 526 l 1
 696 526 l 1
 696 68 l 1
EndSplineSet
EndChar

StartChar: uni044A
Encoding: 1098 1098 498
Width: 594
Flags: W
LayerCount: 2
Fore
SplineSet
338 355 m 2
 499 355 558 286 558 179 c 0
 558 54 461 0 353 0 c 2
 178 0 l 1
 178 462 l 1
 6 462 l 1
 6 526 l 1
 265 526 l 1
 262 524 l 1
 262 355 l 1
 338 355 l 2
346 66 m 2
 419 66 469 94 469 179 c 0
 469 251 437 290 337 290 c 2
 262 290 l 1
 262 66 l 1
 346 66 l 2
EndSplineSet
EndChar

StartChar: uni044B
Encoding: 1099 1099 499
Width: 724
Flags: W
LayerCount: 2
Fore
SplineSet
244 355 m 2
 406 355 465 286 465 179 c 0
 465 54 367 0 260 0 c 2
 95 0 l 1
 95 526 l 1
 179 526 l 1
 179 355 l 1
 244 355 l 2
545 526 m 1
 629 526 l 1
 629 0 l 1
 545 0 l 1
 545 526 l 1
252 66 m 2
 325 66 375 94 375 179 c 0
 375 251 343 290 244 290 c 2
 179 290 l 1
 179 66 l 1
 252 66 l 2
EndSplineSet
EndChar

StartChar: uni044C
Encoding: 1100 1100 500
Width: 510
Flags: W
LayerCount: 2
Fore
SplineSet
254 355 m 2
 416 355 475 286 475 179 c 0
 475 54 377 0 270 0 c 2
 95 0 l 1
 95 526 l 1
 179 526 l 1
 179 355 l 1
 254 355 l 2
262 66 m 2
 335 66 385 94 385 179 c 0
 385 251 353 290 254 290 c 2
 179 290 l 1
 179 66 l 1
 262 66 l 2
EndSplineSet
EndChar

StartChar: uni044D
Encoding: 1101 1101 501
Width: 482
Flags: W
LayerCount: 2
Fore
SplineSet
216 538 m 0
 342 538 423 452 423 266 c 0
 423 95 346 -12 198 -12 c 0
 130 -12 75 11 32 46 c 1
 72 100 l 1
 109 72 143 57 197 57 c 0
 276 57 329 110 335 238 c 1
 115 238 l 1
 115 302 l 1
 335 302 l 1
 327 420 285 471 213 471 c 0
 164 471 126 458 86 430 c 1
 47 481 l 1
 95 518 147 538 216 538 c 0
EndSplineSet
EndChar

StartChar: uni044E
Encoding: 1102 1102 502
Width: 777
Flags: W
LayerCount: 2
Fore
SplineSet
496 538 m 0
 634 538 719 431 719 264 c 0
 719 109 639 -12 495 -12 c 0
 364 -12 286 90 278 235 c 1
 179 235 l 1
 179 0 l 1
 95 0 l 1
 95 526 l 1
 179 526 l 1
 179 303 l 1
 279 303 l 1
 291 438 370 538 496 538 c 0
495 56 m 0
 590 56 628 132 628 264 c 0
 628 394 581 469 496 469 c 0
 410 469 364 403 364 262 c 0
 364 132 409 56 495 56 c 0
EndSplineSet
EndChar

StartChar: uni044F
Encoding: 1103 1103 503
Width: 546
Flags: W
LayerCount: 2
Fore
SplineSet
278 526 m 2
 451 526 l 1
 451 0 l 1
 367 0 l 1
 367 205 l 1
 247 205 l 1
 133 0 l 1
 39 0 l 1
 166 224 l 1
 101 251 70 300 70 367 c 0
 70 471 147 526 278 526 c 2
273 270 m 2
 367 270 l 1
 367 461 l 1
 277 461 l 2
 200 461 158 433 158 367 c 0
 158 299 194 270 273 270 c 2
EndSplineSet
EndChar

StartChar: uni0450
Encoding: 1104 1104 504
Width: 542
Flags: W
LayerCount: 2
Fore
SplineSet
208 797 m 1
 404 685 l 1
 378 640 l 1
 170 725 l 1
 208 797 l 1
489 280 m 0
 489 262 488 245 487 234 c 1
 148 234 l 1
 156 107 216 57 295 57 c 0
 348 57 387 72 433 104 c 1
 470 54 l 1
 419 13 361 -12 289 -12 c 0
 144 -12 59 91 59 258 c 0
 59 423 141 538 275 538 c 0
 416 538 489 439 489 280 c 0
406 296 m 1
 406 304 l 2
 406 410 364 471 277 471 c 0
 204 471 155 419 148 296 c 1
 406 296 l 1
EndSplineSet
EndChar

StartChar: uni0451
Encoding: 1105 1105 505
Width: 542
Flags: W
LayerCount: 2
Fore
SplineSet
176 762 m 0
 206 762 229 739 229 709 c 0
 229 679 206 656 176 656 c 0
 145 656 122 679 122 709 c 0
 122 739 145 762 176 762 c 0
380 762 m 0
 411 762 434 739 434 709 c 0
 434 679 411 656 380 656 c 0
 350 656 327 679 327 709 c 0
 327 739 350 762 380 762 c 0
489 280 m 0
 489 262 488 245 487 234 c 1
 148 234 l 1
 156 107 216 57 295 57 c 0
 348 57 387 72 433 104 c 1
 470 54 l 1
 419 13 361 -12 289 -12 c 0
 144 -12 59 91 59 258 c 0
 59 423 141 538 275 538 c 0
 416 538 489 439 489 280 c 0
406 296 m 1
 406 304 l 2
 406 410 364 471 277 471 c 0
 204 471 155 419 148 296 c 1
 406 296 l 1
EndSplineSet
EndChar

StartChar: uni0452
Encoding: 1106 1106 506
Width: 585
Flags: W
LayerCount: 2
Fore
SplineSet
345 538 m 0
 440 538 496 476 496 377 c 2
 496 29 l 2
 496 -118 443 -161 335 -210 c 1
 311 -149 l 1
 380 -116 412 -90 412 24 c 2
 412 365 l 2
 412 446 378 472 325 472 c 0
 264 472 222 433 185 376 c 1
 185 0 l 1
 101 0 l 1
 101 608 l 1
 25 608 l 1
 25 673 l 1
 101 673 l 1
 101 737 l 1
 185 747 l 1
 185 673 l 1
 344 673 l 1
 344 608 l 1
 185 608 l 1
 185 450 l 1
 224 503 277 538 345 538 c 0
EndSplineSet
EndChar

StartChar: uni0453
Encoding: 1107 1107 507
Width: 425
Flags: W
LayerCount: 2
Fore
SplineSet
335 797 m 1
 373 725 l 1
 165 640 l 1
 139 685 l 1
 335 797 l 1
179 0 m 1
 95 0 l 1
 95 526 l 1
 419 526 l 1
 408 456 l 1
 179 456 l 1
 179 0 l 1
EndSplineSet
EndChar

StartChar: uni0454
Encoding: 1108 1108 508
Width: 481
Flags: W
LayerCount: 2
Fore
SplineSet
292 57 m 0
 333 57 367 69 409 100 c 1
 449 45 l 1
 401 7 347 -12 291 -12 c 0
 147 -12 59 89 59 261 c 0
 59 430 149 538 289 538 c 0
 348 538 400 522 449 482 c 1
 409 430 l 1
 366 461 332 471 293 471 c 0
 211 471 154 413 147 302 c 1
 371 302 l 1
 371 238 l 1
 146 238 l 1
 152 113 208 57 292 57 c 0
EndSplineSet
EndChar

StartChar: uni0455
Encoding: 1109 1109 509
Width: 465
Flags: W
LayerCount: 2
Fore
SplineSet
236 538 m 0
 309 538 363 516 413 478 c 1
 376 425 l 1
 330 456 289 471 239 471 c 0
 177 471 138 442 138 397 c 0
 138 352 167 332 254 309 c 0
 366 280 427 238 427 146 c 0
 427 39 330 -12 224 -12 c 0
 136 -12 73 17 28 57 c 1
 73 108 l 1
 115 76 163 56 222 56 c 0
 293 56 339 88 339 141 c 0
 339 196 312 216 209 244 c 0
 95 274 50 321 50 395 c 0
 50 478 130 538 236 538 c 0
EndSplineSet
EndChar

StartChar: uni0456
Encoding: 1110 1110 510
Width: 274
Flags: W
LayerCount: 2
Fore
SplineSet
136 774 m 0
 172 774 196 749 196 716 c 0
 196 683 172 658 136 658 c 0
 101 658 77 683 77 716 c 0
 77 749 101 774 136 774 c 0
179 526 m 1
 179 0 l 1
 95 0 l 1
 95 526 l 1
 179 526 l 1
EndSplineSet
EndChar

StartChar: uni0457
Encoding: 1111 1111 511
Width: 274
Flags: W
LayerCount: 2
Fore
SplineSet
35 762 m 0
 65 762 88 739 88 709 c 0
 88 679 65 656 35 656 c 0
 4 656 -19 679 -19 709 c 0
 -19 739 4 762 35 762 c 0
239 762 m 0
 270 762 293 739 293 709 c 0
 293 679 270 656 239 656 c 0
 209 656 186 679 186 709 c 0
 186 739 209 762 239 762 c 0
179 526 m 1
 179 0 l 1
 95 0 l 1
 95 526 l 1
 179 526 l 1
EndSplineSet
EndChar

